# Wall-Based Floorplan 3D Model
# Vertices: 580
# Faces: 668
mtllib Capture d’écran 2025-06-05 224217.mtl

v 14.292862 0.000000 7.926007 0.900 0.900 0.900
v 14.172862 0.000000 7.926007 0.900 0.900 0.900
v 14.172862 0.000000 8.840044 0.900 0.900 0.900
v 14.292862 0.000000 8.840044 0.900 0.900 0.900
v 14.292862 2.500000 7.926007 0.900 0.900 0.900
v 14.172862 2.500000 7.926007 0.900 0.900 0.900
v 14.172862 2.500000 8.840044 0.900 0.900 0.900
v 14.292862 2.500000 8.840044 0.900 0.900 0.900
v 14.232862 0.000000 8.780044 0.900 0.900 0.900
v 14.232862 0.000000 8.900044 0.900 0.900 0.900
v 14.833515 0.000000 8.900044 0.900 0.900 0.900
v 14.833515 0.000000 8.780044 0.900 0.900 0.900
v 14.232862 2.500000 8.780044 0.900 0.900 0.900
v 14.232862 2.500000 8.900044 0.900 0.900 0.900
v 14.833515 2.500000 8.900044 0.900 0.900 0.900
v 14.833515 2.500000 8.780044 0.900 0.900 0.900
v 14.773515 0.000000 8.840044 0.900 0.900 0.900
v 14.893515 0.000000 8.840044 0.900 0.900 0.900
v 14.893515 0.000000 7.926007 0.900 0.900 0.900
v 14.773515 0.000000 7.926007 0.900 0.900 0.900
v 14.773515 2.500000 8.840044 0.900 0.900 0.900
v 14.893515 2.500000 8.840044 0.900 0.900 0.900
v 14.893515 2.500000 7.926007 0.900 0.900 0.900
v 14.773515 2.500000 7.926007 0.900 0.900 0.900
v 14.833515 0.000000 7.986007 0.900 0.900 0.900
v 14.833515 0.000000 7.866007 0.900 0.900 0.900
v 14.232862 0.000000 7.866007 0.900 0.900 0.900
v 14.232862 0.000000 7.986007 0.900 0.900 0.900
v 14.833515 2.500000 7.986007 0.900 0.900 0.900
v 14.833515 2.500000 7.866007 0.900 0.900 0.900
v 14.232862 2.500000 7.866007 0.900 0.900 0.900
v 14.232862 2.500000 7.986007 0.900 0.900 0.900
v 3.141610 0.000000 7.886834 0.900 0.900 0.900
v 3.021610 0.000000 7.886834 0.900 0.900 0.900
v 3.021610 0.000000 9.819369 0.900 0.900 0.900
v 3.141610 0.000000 9.819369 0.900 0.900 0.900
v 3.141610 2.500000 7.886834 0.900 0.900 0.900
v 3.021610 2.500000 7.886834 0.900 0.900 0.900
v 3.021610 2.500000 9.819369 0.900 0.900 0.900
v 3.141610 2.500000 9.819369 0.900 0.900 0.900
v 3.081610 0.000000 9.759369 0.900 0.900 0.900
v 3.081610 0.000000 9.879369 0.900 0.900 0.900
v 3.421110 0.000000 9.879369 0.900 0.900 0.900
v 3.421110 0.000000 9.759369 0.900 0.900 0.900
v 3.081610 2.500000 9.759369 0.900 0.900 0.900
v 3.081610 2.500000 9.879369 0.900 0.900 0.900
v 3.421110 2.500000 9.879369 0.900 0.900 0.900
v 3.421110 2.500000 9.759369 0.900 0.900 0.900
v 3.361110 0.000000 9.819369 0.900 0.900 0.900
v 3.481110 0.000000 9.819369 0.900 0.900 0.900
v 3.481110 0.000000 7.886834 0.900 0.900 0.900
v 3.361110 0.000000 7.886834 0.900 0.900 0.900
v 3.361110 2.500000 9.819369 0.900 0.900 0.900
v 3.481110 2.500000 9.819369 0.900 0.900 0.900
v 3.481110 2.500000 7.886834 0.900 0.900 0.900
v 3.361110 2.500000 7.886834 0.900 0.900 0.900
v 3.421110 0.000000 7.946834 0.900 0.900 0.900
v 3.421110 0.000000 7.826834 0.900 0.900 0.900
v 3.081610 0.000000 7.826834 0.900 0.900 0.900
v 3.081610 0.000000 7.946834 0.900 0.900 0.900
v 3.421110 2.500000 7.946834 0.900 0.900 0.900
v 3.421110 2.500000 7.826834 0.900 0.900 0.900
v 3.081610 2.500000 7.826834 0.900 0.900 0.900
v 3.081610 2.500000 7.946834 0.900 0.900 0.900
v 3.585571 0.000000 7.834603 0.900 0.900 0.900
v 3.465571 0.000000 7.834603 0.900 0.900 0.900
v 3.465571 0.000000 9.845484 0.900 0.900 0.900
v 3.585571 0.000000 9.845484 0.900 0.900 0.900
v 3.585571 2.500000 7.834603 0.900 0.900 0.900
v 3.465571 2.500000 7.834603 0.900 0.900 0.900
v 3.465571 2.500000 9.845484 0.900 0.900 0.900
v 3.585571 2.500000 9.845484 0.900 0.900 0.900
v 3.525571 0.000000 9.785484 0.900 0.900 0.900
v 3.525571 0.000000 9.905484 0.900 0.900 0.900
v 8.866159 0.000000 9.905484 0.900 0.900 0.900
v 8.866159 0.000000 9.785484 0.900 0.900 0.900
v 3.525571 2.500000 9.785484 0.900 0.900 0.900
v 3.525571 2.500000 9.905484 0.900 0.900 0.900
v 8.866159 2.500000 9.905484 0.900 0.900 0.900
v 8.866159 2.500000 9.785484 0.900 0.900 0.900
v 8.806159 0.000000 9.845484 0.900 0.900 0.900
v 8.926159 0.000000 9.845484 0.900 0.900 0.900
v 8.926159 0.000000 7.834603 0.900 0.900 0.900
v 8.806159 0.000000 7.834603 0.900 0.900 0.900
v 8.806159 2.500000 9.845484 0.900 0.900 0.900
v 8.926159 2.500000 9.845484 0.900 0.900 0.900
v 8.926159 2.500000 7.834603 0.900 0.900 0.900
v 8.806159 2.500000 7.834603 0.900 0.900 0.900
v 8.866159 0.000000 7.894603 0.900 0.900 0.900
v 8.866159 0.000000 7.774603 0.900 0.900 0.900
v 3.525571 0.000000 7.774603 0.900 0.900 0.900
v 3.525571 0.000000 7.894603 0.900 0.900 0.900
v 8.866159 2.500000 7.894603 0.900 0.900 0.900
v 8.866159 2.500000 7.774603 0.900 0.900 0.900
v 3.525571 2.500000 7.774603 0.900 0.900 0.900
v 3.525571 2.500000 7.894603 0.900 0.900 0.900
v 3.141610 0.000000 3.120783 0.900 0.900 0.900
v 3.021610 0.000000 3.120783 0.900 0.900 0.900
v 3.021610 0.000000 5.366703 0.900 0.900 0.900
v 3.141610 0.000000 5.366703 0.900 0.900 0.900
v 3.141610 2.500000 3.120783 0.900 0.900 0.900
v 3.021610 2.500000 3.120783 0.900 0.900 0.900
v 3.021610 2.500000 5.366703 0.900 0.900 0.900
v 3.141610 2.500000 5.366703 0.900 0.900 0.900
v 3.308879 0.000000 5.366703 0.900 0.900 0.900
v 3.428879 0.000000 5.366703 0.900 0.900 0.900
v 3.428879 0.000000 3.120783 0.900 0.900 0.900
v 3.308879 0.000000 3.120783 0.900 0.900 0.900
v 3.308879 2.500000 5.366703 0.900 0.900 0.900
v 3.428879 2.500000 5.366703 0.900 0.900 0.900
v 3.428879 2.500000 3.120783 0.900 0.900 0.900
v 3.308879 2.500000 3.120783 0.900 0.900 0.900
v 14.854342 0.000000 3.434168 0.900 0.900 0.900
v 14.734342 0.000000 3.434168 0.900 0.900 0.900
v 14.734342 0.000000 3.825898 0.900 0.900 0.900
v 14.854342 0.000000 3.825898 0.900 0.900 0.900
v 14.854342 2.500000 3.434168 0.900 0.900 0.900
v 14.734342 2.500000 3.434168 0.900 0.900 0.900
v 14.734342 2.500000 3.825898 0.900 0.900 0.900
v 14.854342 2.500000 3.825898 0.900 0.900 0.900
v 14.815169 0.000000 3.838955 0.900 0.900 0.900
v 14.695169 0.000000 3.838955 0.900 0.900 0.900
v 14.695169 0.000000 4.191513 0.900 0.900 0.900
v 14.815169 0.000000 4.191513 0.900 0.900 0.900
v 14.815169 2.500000 3.838955 0.900 0.900 0.900
v 14.695169 2.500000 3.838955 0.900 0.900 0.900
v 14.695169 2.500000 4.191513 0.900 0.900 0.900
v 14.815169 2.500000 4.191513 0.900 0.900 0.900
v 14.854342 0.000000 4.204570 0.900 0.900 0.900
v 14.734342 0.000000 4.204570 0.900 0.900 0.900
v 14.734342 0.000000 4.726877 0.900 0.900 0.900
v 14.854342 0.000000 4.726877 0.900 0.900 0.900
v 14.854342 2.500000 4.204570 0.900 0.900 0.900
v 14.734342 2.500000 4.204570 0.900 0.900 0.900
v 14.734342 2.500000 4.726877 0.900 0.900 0.900
v 14.854342 2.500000 4.726877 0.900 0.900 0.900
v 14.893515 0.000000 4.739935 0.900 0.900 0.900
v 14.773515 0.000000 4.739935 0.900 0.900 0.900
v 14.773515 0.000000 5.301415 0.900 0.900 0.900
v 14.893515 0.000000 5.301415 0.900 0.900 0.900
v 14.893515 2.500000 4.739935 0.900 0.900 0.900
v 14.773515 2.500000 4.739935 0.900 0.900 0.900
v 14.773515 2.500000 5.301415 0.900 0.900 0.900
v 14.893515 2.500000 5.301415 0.900 0.900 0.900
v 14.854342 0.000000 5.536453 0.900 0.900 0.900
v 14.734342 0.000000 5.536453 0.900 0.900 0.900
v 14.734342 0.000000 5.836779 0.900 0.900 0.900
v 14.854342 0.000000 5.836779 0.900 0.900 0.900
v 14.854342 2.500000 5.536453 0.900 0.900 0.900
v 14.734342 2.500000 5.536453 0.900 0.900 0.900
v 14.734342 2.500000 5.836779 0.900 0.900 0.900
v 14.854342 2.500000 5.836779 0.900 0.900 0.900
v 14.893515 0.000000 5.849837 0.900 0.900 0.900
v 14.773515 0.000000 5.849837 0.900 0.900 0.900
v 14.773515 0.000000 6.293798 0.900 0.900 0.900
v 14.893515 0.000000 6.293798 0.900 0.900 0.900
v 14.893515 2.500000 5.849837 0.900 0.900 0.900
v 14.773515 2.500000 5.849837 0.900 0.900 0.900
v 14.773515 2.500000 6.293798 0.900 0.900 0.900
v 14.893515 2.500000 6.293798 0.900 0.900 0.900
v 14.838803 0.000000 5.405876 0.900 0.900 0.900
v 14.958803 0.000000 5.405876 0.900 0.900 0.900
v 14.958803 0.000000 5.053319 0.900 0.900 0.900
v 14.838803 0.000000 5.053319 0.900 0.900 0.900
v 14.838803 2.500000 5.405876 0.900 0.900 0.900
v 14.958803 2.500000 5.405876 0.900 0.900 0.900
v 14.958803 2.500000 5.053319 0.900 0.900 0.900
v 14.838803 2.500000 5.053319 0.900 0.900 0.900
v 14.982437 0.000000 4.191513 0.900 0.900 0.900
v 15.102437 0.000000 4.191513 0.900 0.900 0.900
v 15.102437 0.000000 3.891186 0.900 0.900 0.900
v 14.982437 0.000000 3.891186 0.900 0.900 0.900
v 14.982437 2.500000 4.191513 0.900 0.900 0.900
v 15.102437 2.500000 4.191513 0.900 0.900 0.900
v 15.102437 2.500000 3.891186 0.900 0.900 0.900
v 14.982437 2.500000 3.891186 0.900 0.900 0.900
v 14.943264 0.000000 3.878128 0.900 0.900 0.900
v 15.063264 0.000000 3.878128 0.900 0.900 0.900
v 15.063264 0.000000 3.486398 0.900 0.900 0.900
v 14.943264 0.000000 3.486398 0.900 0.900 0.900
v 14.943264 2.500000 3.878128 0.900 0.900 0.900
v 15.063264 2.500000 3.878128 0.900 0.900 0.900
v 15.063264 2.500000 3.486398 0.900 0.900 0.900
v 14.943264 2.500000 3.486398 0.900 0.900 0.900
v 10.793406 0.000000 2.167573 0.900 0.900 0.900
v 10.673406 0.000000 2.167573 0.900 0.900 0.900
v 10.673406 0.000000 6.581066 0.900 0.900 0.900
v 10.793406 0.000000 6.581066 0.900 0.900 0.900
v 10.793406 2.500000 2.167573 0.900 0.900 0.900
v 10.673406 2.500000 2.167573 0.900 0.900 0.900
v 10.673406 2.500000 6.581066 0.900 0.900 0.900
v 10.793406 2.500000 6.581066 0.900 0.900 0.900
v 9.218716 0.000000 9.772427 0.900 0.900 0.900
v 9.218716 0.000000 9.892427 0.900 0.900 0.900
v 10.393906 0.000000 9.892427 0.900 0.900 0.900
v 10.393906 0.000000 9.772427 0.900 0.900 0.900
v 9.218716 2.500000 9.772427 0.900 0.900 0.900
v 9.218716 2.500000 9.892427 0.900 0.900 0.900
v 10.393906 2.500000 9.892427 0.900 0.900 0.900
v 10.393906 2.500000 9.772427 0.900 0.900 0.900
v 10.406964 0.000000 9.759369 0.900 0.900 0.900
v 10.406964 0.000000 9.879369 0.900 0.900 0.900
v 12.914037 0.000000 9.879369 0.900 0.900 0.900
v 12.914037 0.000000 9.759369 0.900 0.900 0.900
v 10.406964 2.500000 9.759369 0.900 0.900 0.900
v 10.406964 2.500000 9.879369 0.900 0.900 0.900
v 12.914037 2.500000 9.879369 0.900 0.900 0.900
v 12.914037 2.500000 9.759369 0.900 0.900 0.900
v 12.736518 0.000000 9.101197 0.900 0.900 0.900
v 12.856518 0.000000 9.101197 0.900 0.900 0.900
v 12.856518 0.000000 8.631121 0.900 0.900 0.900
v 12.736518 0.000000 8.631121 0.900 0.900 0.900
v 12.736518 2.500000 9.101197 0.900 0.900 0.900
v 12.856518 2.500000 9.101197 0.900 0.900 0.900
v 12.856518 2.500000 8.631121 0.900 0.900 0.900
v 12.736518 2.500000 8.631121 0.900 0.900 0.900
v 12.809576 0.000000 8.558063 0.900 0.900 0.900
v 12.809576 0.000000 8.678063 0.900 0.900 0.900
v 14.089227 0.000000 8.678063 0.900 0.900 0.900
v 14.089227 0.000000 8.558063 0.900 0.900 0.900
v 12.809576 2.500000 8.558063 0.900 0.900 0.900
v 12.809576 2.500000 8.678063 0.900 0.900 0.900
v 14.089227 2.500000 8.678063 0.900 0.900 0.900
v 14.089227 2.500000 8.558063 0.900 0.900 0.900
v 14.089227 0.000000 8.704178 0.900 0.900 0.900
v 14.089227 0.000000 8.584178 0.900 0.900 0.900
v 13.083787 0.000000 8.584178 0.900 0.900 0.900
v 13.083787 0.000000 8.704178 0.900 0.900 0.900
v 14.089227 2.500000 8.704178 0.900 0.900 0.900
v 14.089227 2.500000 8.584178 0.900 0.900 0.900
v 13.083787 2.500000 8.584178 0.900 0.900 0.900
v 13.083787 2.500000 8.704178 0.900 0.900 0.900
v 13.143787 0.000000 8.644178 0.900 0.900 0.900
v 13.023787 0.000000 8.644178 0.900 0.900 0.900
v 13.023787 0.000000 9.819369 0.900 0.900 0.900
v 13.143787 0.000000 9.819369 0.900 0.900 0.900
v 13.143787 2.500000 8.644178 0.900 0.900 0.900
v 13.023787 2.500000 8.644178 0.900 0.900 0.900
v 13.023787 2.500000 9.819369 0.900 0.900 0.900
v 13.143787 2.500000 9.819369 0.900 0.900 0.900
v 13.083787 0.000000 9.759369 0.900 0.900 0.900
v 13.083787 0.000000 9.879369 0.900 0.900 0.900
v 14.115343 0.000000 9.879369 0.900 0.900 0.900
v 14.115343 0.000000 9.759369 0.900 0.900 0.900
v 13.083787 2.500000 9.759369 0.900 0.900 0.900
v 13.083787 2.500000 9.879369 0.900 0.900 0.900
v 14.115343 2.500000 9.879369 0.900 0.900 0.900
v 14.115343 2.500000 9.759369 0.900 0.900 0.900
v 14.055343 0.000000 9.819369 0.900 0.900 0.900
v 14.175343 0.000000 9.819369 0.900 0.900 0.900
v 14.175343 0.000000 8.670294 0.900 0.900 0.900
v 14.055343 0.000000 8.670294 0.900 0.900 0.900
v 14.055343 2.500000 9.819369 0.900 0.900 0.900
v 14.175343 2.500000 9.819369 0.900 0.900 0.900
v 14.175343 2.500000 8.670294 0.900 0.900 0.900
v 14.055343 2.500000 8.670294 0.900 0.900 0.900
v 14.068400 0.000000 8.657236 0.900 0.900 0.900
v 14.188400 0.000000 8.657236 0.900 0.900 0.900
v 14.188400 0.000000 7.873776 0.900 0.900 0.900
v 14.068400 0.000000 7.873776 0.900 0.900 0.900
v 14.068400 2.500000 8.657236 0.900 0.900 0.900
v 14.188400 2.500000 8.657236 0.900 0.900 0.900
v 14.188400 2.500000 7.873776 0.900 0.900 0.900
v 14.068400 2.500000 7.873776 0.900 0.900 0.900
v 12.457018 0.000000 7.555103 0.900 0.900 0.900
v 12.457018 0.000000 7.435103 0.900 0.900 0.900
v 11.569097 0.000000 7.435103 0.900 0.900 0.900
v 11.569097 0.000000 7.555103 0.900 0.900 0.900
v 12.457018 2.500000 7.555103 0.900 0.900 0.900
v 12.457018 2.500000 7.435103 0.900 0.900 0.900
v 11.569097 2.500000 7.435103 0.900 0.900 0.900
v 11.569097 2.500000 7.555103 0.900 0.900 0.900
v 11.095767 0.000000 7.080511 0.900 0.900 0.900
v 11.180620 0.000000 6.995658 0.900 0.900 0.900
v 10.906409 0.000000 6.721447 0.900 0.900 0.900
v 10.821556 0.000000 6.806300 0.900 0.900 0.900
v 11.095767 2.500000 7.080511 0.900 0.900 0.900
v 11.180620 2.500000 6.995658 0.900 0.900 0.900
v 10.906409 2.500000 6.721447 0.900 0.900 0.900
v 10.821556 2.500000 6.806300 0.900 0.900 0.900
v 10.759521 0.000000 6.560239 0.900 0.900 0.900
v 10.759521 0.000000 6.680239 0.900 0.900 0.900
v 14.689880 0.000000 6.680239 0.900 0.900 0.900
v 14.689880 0.000000 6.560239 0.900 0.900 0.900
v 10.759521 2.500000 6.560239 0.900 0.900 0.900
v 10.759521 2.500000 6.680239 0.900 0.900 0.900
v 14.689880 2.500000 6.680239 0.900 0.900 0.900
v 14.689880 2.500000 6.560239 0.900 0.900 0.900
v 14.629880 0.000000 6.620239 0.900 0.900 0.900
v 14.749880 0.000000 6.620239 0.900 0.900 0.900
v 14.749880 0.000000 2.167573 0.900 0.900 0.900
v 14.629880 0.000000 2.167573 0.900 0.900 0.900
v 14.629880 2.500000 6.620239 0.900 0.900 0.900
v 14.749880 2.500000 6.620239 0.900 0.900 0.900
v 14.749880 2.500000 2.167573 0.900 0.900 0.900
v 14.629880 2.500000 2.167573 0.900 0.900 0.900
v 14.689880 0.000000 2.227573 0.900 0.900 0.900
v 14.689880 0.000000 2.107573 0.900 0.900 0.900
v 10.733406 0.000000 2.107573 0.900 0.900 0.900
v 10.733406 0.000000 2.227573 0.900 0.900 0.900
v 14.689880 2.500000 2.227573 0.900 0.900 0.900
v 14.689880 2.500000 2.107573 0.900 0.900 0.900
v 10.733406 2.500000 2.107573 0.900 0.900 0.900
v 10.733406 2.500000 2.227573 0.900 0.900 0.900
v 3.507225 0.000000 2.128400 0.900 0.900 0.900
v 3.387225 0.000000 2.128400 0.900 0.900 0.900
v 3.387225 0.000000 6.346028 0.900 0.900 0.900
v 3.507225 0.000000 6.346028 0.900 0.900 0.900
v 3.507225 2.500000 2.128400 0.900 0.900 0.900
v 3.387225 2.500000 2.128400 0.900 0.900 0.900
v 3.387225 2.500000 6.346028 0.900 0.900 0.900
v 3.507225 2.500000 6.346028 0.900 0.900 0.900
v 3.663917 0.000000 6.359086 0.900 0.900 0.900
v 3.543917 0.000000 6.359086 0.900 0.900 0.900
v 3.543917 0.000000 7.547334 0.900 0.900 0.900
v 3.663917 0.000000 7.547334 0.900 0.900 0.900
v 3.663917 2.500000 6.359086 0.900 0.900 0.900
v 3.543917 2.500000 6.359086 0.900 0.900 0.900
v 3.543917 2.500000 7.547334 0.900 0.900 0.900
v 3.663917 2.500000 7.547334 0.900 0.900 0.900
v 3.603917 0.000000 7.487334 0.900 0.900 0.900
v 3.603917 0.000000 7.607334 0.900 0.900 0.900
v 7.612622 0.000000 7.607334 0.900 0.900 0.900
v 7.612622 0.000000 7.487334 0.900 0.900 0.900
v 3.603917 2.500000 7.487334 0.900 0.900 0.900
v 3.603917 2.500000 7.607334 0.900 0.900 0.900
v 7.612622 2.500000 7.607334 0.900 0.900 0.900
v 7.612622 2.500000 7.487334 0.900 0.900 0.900
v 7.552622 0.000000 7.547334 0.900 0.900 0.900
v 7.672622 0.000000 7.547334 0.900 0.900 0.900
v 7.672622 0.000000 6.359086 0.900 0.900 0.900
v 7.552622 0.000000 6.359086 0.900 0.900 0.900
v 7.552622 2.500000 7.547334 0.900 0.900 0.900
v 7.672622 2.500000 7.547334 0.900 0.900 0.900
v 7.672622 2.500000 6.359086 0.900 0.900 0.900
v 7.552622 2.500000 6.359086 0.900 0.900 0.900
v 7.670141 0.000000 6.346028 0.900 0.900 0.900
v 7.790141 0.000000 6.346028 0.900 0.900 0.900
v 7.790141 0.000000 2.128400 0.900 0.900 0.900
v 7.670141 0.000000 2.128400 0.900 0.900 0.900
v 7.670141 2.500000 6.346028 0.900 0.900 0.900
v 7.790141 2.500000 6.346028 0.900 0.900 0.900
v 7.790141 2.500000 2.128400 0.900 0.900 0.900
v 7.670141 2.500000 2.128400 0.900 0.900 0.900
v 7.730141 0.000000 2.188400 0.900 0.900 0.900
v 7.730141 0.000000 2.068400 0.900 0.900 0.900
v 3.447225 0.000000 2.068400 0.900 0.900 0.900
v 3.447225 0.000000 2.188400 0.900 0.900 0.900
v 7.730141 2.500000 2.188400 0.900 0.900 0.900
v 7.730141 2.500000 2.068400 0.900 0.900 0.900
v 3.447225 2.500000 2.068400 0.900 0.900 0.900
v 3.447225 2.500000 2.188400 0.900 0.900 0.900
v 8.299391 0.000000 2.050054 0.900 0.900 0.900
v 8.179391 0.000000 2.050054 0.900 0.900 0.900
v 8.179391 0.000000 5.667029 0.900 0.900 0.900
v 8.299391 0.000000 5.667029 0.900 0.900 0.900
v 8.299391 2.500000 2.050054 0.900 0.900 0.900
v 8.179391 2.500000 2.050054 0.900 0.900 0.900
v 8.179391 2.500000 5.667029 0.900 0.900 0.900
v 8.299391 2.500000 5.667029 0.900 0.900 0.900
v 8.239391 0.000000 5.607029 0.900 0.900 0.900
v 8.239391 0.000000 5.727029 0.900 0.900 0.900
v 8.813928 0.000000 5.727029 0.900 0.900 0.900
v 8.813928 0.000000 5.607029 0.900 0.900 0.900
v 8.239391 2.500000 5.607029 0.900 0.900 0.900
v 8.239391 2.500000 5.727029 0.900 0.900 0.900
v 8.813928 2.500000 5.727029 0.900 0.900 0.900
v 8.813928 2.500000 5.607029 0.900 0.900 0.900
v 8.753928 0.000000 5.667029 0.900 0.900 0.900
v 8.873928 0.000000 5.667029 0.900 0.900 0.900
v 8.873928 0.000000 2.729053 0.900 0.900 0.900
v 8.753928 0.000000 2.729053 0.900 0.900 0.900
v 8.753928 2.500000 5.667029 0.900 0.900 0.900
v 8.873928 2.500000 5.667029 0.900 0.900 0.900
v 8.873928 2.500000 2.729053 0.900 0.900 0.900
v 8.753928 2.500000 2.729053 0.900 0.900 0.900
v 8.826986 0.000000 2.655996 0.900 0.900 0.900
v 8.826986 0.000000 2.775996 0.900 0.900 0.900
v 9.949946 0.000000 2.775996 0.900 0.900 0.900
v 9.949946 0.000000 2.655996 0.900 0.900 0.900
v 8.826986 2.500000 2.655996 0.900 0.900 0.900
v 8.826986 2.500000 2.775996 0.900 0.900 0.900
v 9.949946 2.500000 2.775996 0.900 0.900 0.900
v 9.949946 2.500000 2.655996 0.900 0.900 0.900
v 9.889946 0.000000 2.715996 0.900 0.900 0.900
v 10.009946 0.000000 2.715996 0.900 0.900 0.900
v 10.009946 0.000000 2.050054 0.900 0.900 0.900
v 9.889946 0.000000 2.050054 0.900 0.900 0.900
v 9.889946 2.500000 2.715996 0.900 0.900 0.900
v 10.009946 2.500000 2.715996 0.900 0.900 0.900
v 10.009946 2.500000 2.050054 0.900 0.900 0.900
v 9.889946 2.500000 2.050054 0.900 0.900 0.900
v 9.949946 0.000000 2.110054 0.900 0.900 0.900
v 9.949946 0.000000 1.990054 0.900 0.900 0.900
v 8.239391 0.000000 1.990054 0.900 0.900 0.900
v 8.239391 0.000000 2.110054 0.900 0.900 0.900
v 9.949946 2.500000 2.110054 0.900 0.900 0.900
v 9.949946 2.500000 1.990054 0.900 0.900 0.900
v 8.239391 2.500000 1.990054 0.900 0.900 0.900
v 8.239391 2.500000 2.110054 0.900 0.900 0.900
v 12.300326 0.000000 1.911708 0.900 0.900 0.900
v 12.300326 0.000000 2.031708 0.900 0.900 0.900
v 12.731230 0.000000 2.031708 0.900 0.900 0.900
v 12.731230 0.000000 1.911708 0.900 0.900 0.900
v 12.300326 2.500000 1.911708 0.900 0.900 0.900
v 12.300326 2.500000 2.031708 0.900 0.900 0.900
v 12.731230 2.500000 2.031708 0.900 0.900 0.900
v 12.731230 2.500000 1.911708 0.900 0.900 0.900
v 8.683351 0.000000 1.846420 0.900 0.900 0.900
v 8.683351 0.000000 1.966420 0.900 0.900 0.900
v 9.375408 0.000000 1.966420 0.900 0.900 0.900
v 9.375408 0.000000 1.846420 0.900 0.900 0.900
v 8.683351 2.500000 1.846420 0.900 0.900 0.900
v 8.683351 2.500000 1.966420 0.900 0.900 0.900
v 9.375408 2.500000 1.966420 0.900 0.900 0.900
v 9.375408 2.500000 1.846420 0.900 0.900 0.900
v 9.414581 0.000000 1.770555 0.900 0.900 0.900
v 9.414581 0.000000 1.650555 0.900 0.900 0.900
v 8.500544 0.000000 1.650555 0.900 0.900 0.900
v 8.500544 0.000000 1.770555 0.900 0.900 0.900
v 9.414581 2.500000 1.770555 0.900 0.900 0.900
v 9.414581 2.500000 1.650555 0.900 0.900 0.900
v 8.500544 2.500000 1.650555 0.900 0.900 0.900
v 8.500544 2.500000 1.770555 0.900 0.900 0.900
v 11.252940 0.000000 7.281647 0.900 0.900 0.900
v 11.180139 0.000000 7.186253 0.900 0.900 0.900
v 10.683948 0.000000 7.564925 0.900 0.900 0.900
v 10.756749 0.000000 7.660319 0.900 0.900 0.900
v 11.252940 2.500000 7.281647 0.900 0.900 0.900
v 11.180139 2.500000 7.186253 0.900 0.900 0.900
v 10.683948 2.500000 7.564925 0.900 0.900 0.900
v 10.756749 2.500000 7.660319 0.900 0.900 0.900
v 10.685130 0.000000 7.564046 0.900 0.900 0.900
v 10.755566 0.000000 7.661199 0.900 0.900 0.900
v 11.277873 0.000000 7.282527 0.900 0.900 0.900
v 11.207437 0.000000 7.185373 0.900 0.900 0.900
v 10.685130 2.500000 7.564046 0.900 0.900 0.900
v 10.755566 2.500000 7.661199 0.900 0.900 0.900
v 11.277873 2.500000 7.282527 0.900 0.900 0.900
v 11.207437 2.500000 7.185373 0.900 0.900 0.900
v 3.590860 0.000000 6.259913 0.900 0.900 0.900
v 3.590860 0.000000 6.379913 0.900 0.900 0.900
v 7.625680 0.000000 6.379913 0.900 0.900 0.900
v 7.625680 0.000000 6.259913 0.900 0.900 0.900
v 3.590860 2.500000 6.259913 0.900 0.900 0.900
v 3.590860 2.500000 6.379913 0.900 0.900 0.900
v 7.625680 2.500000 6.379913 0.900 0.900 0.900
v 7.625680 2.500000 6.259913 0.900 0.900 0.900
v 10.034472 0.000000 8.095096 0.900 0.900 0.900
v 9.917650 0.000000 8.122532 0.900 0.900 0.900
v 10.322438 0.000000 9.846144 0.900 0.900 0.900
v 10.439260 0.000000 9.818709 0.900 0.900 0.900
v 10.034472 2.500000 8.095096 0.900 0.900 0.900
v 9.917650 2.500000 8.122532 0.900 0.900 0.900
v 10.322438 2.500000 9.846144 0.900 0.900 0.900
v 10.439260 2.500000 9.818709 0.900 0.900 0.900
v 10.322246 0.000000 9.845301 0.900 0.900 0.900
v 10.439451 0.000000 9.819552 0.900 0.900 0.900
v 10.060779 0.000000 8.095939 0.900 0.900 0.900
v 9.943574 0.000000 8.121689 0.900 0.900 0.900
v 10.322246 2.500000 9.845301 0.900 0.900 0.900
v 10.439451 2.500000 9.819552 0.900 0.900 0.900
v 10.060779 2.500000 8.095939 0.900 0.900 0.900
v 9.943574 2.500000 8.121689 0.900 0.900 0.900
v 11.252940 0.000000 7.281647 0.900 0.900 0.900
v 11.180139 0.000000 7.186253 0.900 0.900 0.900
v 10.683948 0.000000 7.564925 0.900 0.900 0.900
v 10.756749 0.000000 7.660319 0.900 0.900 0.900
v 11.252940 2.500000 7.281647 0.900 0.900 0.900
v 11.180139 2.500000 7.186253 0.900 0.900 0.900
v 10.683948 2.500000 7.564925 0.900 0.900 0.900
v 10.756749 2.500000 7.660319 0.900 0.900 0.900
v 10.685130 0.000000 7.564046 0.900 0.900 0.900
v 10.755566 0.000000 7.661199 0.900 0.900 0.900
v 11.277873 0.000000 7.282527 0.900 0.900 0.900
v 11.207437 0.000000 7.185373 0.900 0.900 0.900
v 10.685130 2.500000 7.564046 0.900 0.900 0.900
v 10.755566 2.500000 7.661199 0.900 0.900 0.900
v 11.277873 2.500000 7.282527 0.900 0.900 0.900
v 11.207437 2.500000 7.185373 0.900 0.900 0.900
v 11.608270 0.000000 8.840044 0.700 0.850 0.950
v 11.608270 0.000000 9.166485 0.700 0.850 0.950
v 11.503808 0.000000 9.179543 0.700 0.850 0.950
v 11.503808 0.000000 9.479869 0.700 0.850 0.950
v 11.608270 0.000000 9.492927 0.700 0.850 0.950
v 11.621328 0.000000 9.427639 0.700 0.850 0.950
v 12.104461 0.000000 9.414581 0.700 0.850 0.950
v 12.104461 0.000000 8.840044 0.700 0.850 0.950
v 13.083787 0.000000 8.644178 0.700 0.850 0.950
v 13.083787 0.000000 9.819369 0.700 0.850 0.950
v 14.115343 0.000000 9.819369 0.700 0.850 0.950
v 14.102285 0.000000 8.644178 0.700 0.850 0.950
v 10.733406 0.000000 2.167573 0.700 0.850 0.950
v 10.733406 0.000000 6.607182 0.700 0.850 0.950
v 14.689880 0.000000 6.620239 0.700 0.850 0.950
v 14.689880 0.000000 2.167573 0.700 0.850 0.950
v 3.447225 0.000000 2.128400 0.700 0.850 0.950
v 3.447225 0.000000 6.346028 0.700 0.850 0.950
v 7.730141 0.000000 6.346028 0.700 0.850 0.950
v 7.730141 0.000000 2.128400 0.700 0.850 0.950
v 3.525571 0.000000 7.834603 0.800 0.900 0.950
v 3.525571 0.000000 9.845484 0.800 0.900 0.950
v 8.866159 0.000000 9.845484 0.800 0.900 0.950
v 8.866159 0.000000 7.834603 0.800 0.900 0.950
v 9.949946 0.000000 8.161045 0.800 0.900 0.950
v 10.406964 0.000000 9.819369 0.800 0.900 0.950
v 12.914037 0.000000 9.819369 0.800 0.900 0.950
v 12.914037 0.000000 9.558215 0.800 0.900 0.950
v 12.626768 0.000000 9.388466 0.800 0.900 0.950
v 12.809576 0.000000 8.618063 0.800 0.900 0.950
v 14.128400 0.000000 8.657236 0.800 0.900 0.950
v 14.128400 0.000000 7.873776 0.800 0.900 0.950
v 12.457018 0.000000 7.495103 0.800 0.900 0.950
v 11.569097 0.000000 7.495103 0.800 0.900 0.950
v 11.294886 0.000000 7.233950 0.800 0.900 0.950
v 9.949946 0.000000 2.050054 0.800 0.900 0.950
v 8.239391 0.000000 2.050054 0.800 0.900 0.950
v 8.239391 0.000000 5.667029 0.800 0.900 0.950
v 8.813928 0.000000 5.667029 0.800 0.900 0.950
v 8.813928 0.000000 2.729053 0.800 0.900 0.950
v 9.949946 0.000000 2.715996 0.800 0.900 0.950
v 3.603917 0.000000 6.346028 0.950 0.900 0.750
v 3.603917 0.000000 7.547334 0.950 0.900 0.750
v 7.612622 0.000000 7.547334 0.950 0.900 0.750
v 7.612622 0.000000 6.346028 0.950 0.900 0.750
v 10.054407 0.000000 2.689880 0.950 0.900 0.750
v 9.048966 0.000000 3.225245 0.950 0.900 0.750
v 9.558215 0.000000 8.161045 0.950 0.900 0.750
v 9.218716 0.000000 9.832427 0.950 0.900 0.750
v 10.393906 0.000000 9.832427 0.950 0.900 0.750
v 9.936888 0.000000 8.161045 0.950 0.900 0.750
v 10.720348 0.000000 7.260065 0.950 0.900 0.750
v 14.232862 0.000000 7.926007 0.900 0.950 0.900
v 14.232862 0.000000 8.840044 0.900 0.950 0.900
v 14.833515 0.000000 8.840044 0.900 0.950 0.900
v 14.833515 0.000000 7.926007 0.900 0.950 0.900
v 10.720348 0.000000 6.594124 0.600 0.600 0.600
v 10.642002 0.000000 6.672470 0.600 0.600 0.600
v 10.694233 0.000000 6.998912 0.600 0.600 0.600
v 10.733406 0.000000 7.011970 0.600 0.600 0.600
v 10.733406 0.000000 7.260065 0.600 0.600 0.600
v 10.550598 0.000000 7.468988 0.600 0.600 0.600
v 10.550598 0.000000 7.573449 0.600 0.600 0.600
v 10.733406 0.000000 7.599565 0.600 0.600 0.600
v 11.229597 0.000000 7.247008 0.600 0.600 0.600
v 11.190424 0.000000 7.103373 0.600 0.600 0.600
v 3.081610 0.000000 7.886834 0.750 0.750 0.750
v 3.081610 0.000000 9.819369 0.750 0.750 0.750
v 3.421110 0.000000 9.819369 0.750 0.750 0.750
v 3.421110 0.000000 7.886834 0.750 0.750 0.750
v 3.081610 0.000000 3.120783 0.750 0.750 0.750
v 3.081610 0.000000 5.366703 0.750 0.750 0.750
v 3.368879 0.000000 5.366703 0.750 0.750 0.750
v 3.368879 0.000000 3.120783 0.750 0.750 0.750
v 14.859630 0.000000 3.094668 0.750 0.750 0.750
v 14.755169 0.000000 3.186072 0.750 0.750 0.750
v 14.872688 0.000000 5.314472 0.750 0.750 0.750
v 14.794342 0.000000 6.568009 0.750 0.750 0.750
v 15.081610 0.000000 6.372144 0.750 0.750 0.750
v 14.898803 0.000000 5.405876 0.750 0.750 0.750
v 15.081610 0.000000 3.173014 0.750 0.750 0.750
v 11.503808 0.000000 1.841132 0.750 0.750 0.750
v 11.751904 0.000000 2.023939 0.750 0.750 0.750
v 12.091404 0.000000 1.945593 0.750 0.750 0.750
v 13.462459 0.000000 1.997824 0.750 0.750 0.750
v 13.606094 0.000000 1.867247 0.750 0.750 0.750
v 13.540805 0.000000 1.815016 0.750 0.750 0.750
v 12.966268 0.000000 1.867247 0.750 0.750 0.750
v 12.692057 0.000000 1.736670 0.750 0.750 0.750
v 12.404788 0.000000 1.815016 0.750 0.750 0.750
v 12.195865 0.000000 1.762786 0.750 0.750 0.750
v 12.143634 0.000000 1.841132 0.750 0.750 0.750
v 11.751904 0.000000 1.736670 0.750 0.750 0.750
v 8.500544 0.000000 1.710555 0.750 0.750 0.750
v 8.500544 0.000000 1.867247 0.750 0.750 0.750
v 8.670294 0.000000 1.867247 0.750 0.750 0.750
v 8.683351 0.000000 1.906420 0.750 0.750 0.750
v 9.375408 0.000000 1.906420 0.750 0.750 0.750
v 9.414581 0.000000 1.867247 0.750 0.750 0.750
v 9.414581 0.000000 1.710555 0.750 0.750 0.750

usemtl walls
f 5 6 7
f 5 7 8
f 1 2 6
f 1 6 5
f 3 4 8
f 3 8 7
f 1 5 8
f 1 8 4
f 2 3 7
f 2 7 6
f 13 14 15
f 13 15 16
f 9 10 14
f 9 14 13
f 11 12 16
f 11 16 15
f 9 13 16
f 9 16 12
f 10 11 15
f 10 15 14
f 21 22 23
f 21 23 24
f 17 18 22
f 17 22 21
f 19 20 24
f 19 24 23
f 17 21 24
f 17 24 20
f 18 19 23
f 18 23 22
f 29 30 31
f 29 31 32
f 25 26 30
f 25 30 29
f 27 28 32
f 27 32 31
f 25 29 32
f 25 32 28
f 26 27 31
f 26 31 30
f 37 38 39
f 37 39 40
f 33 34 38
f 33 38 37
f 35 36 40
f 35 40 39
f 33 37 40
f 33 40 36
f 34 35 39
f 34 39 38
f 45 46 47
f 45 47 48
f 41 42 46
f 41 46 45
f 43 44 48
f 43 48 47
f 41 45 48
f 41 48 44
f 42 43 47
f 42 47 46
f 53 54 55
f 53 55 56
f 49 50 54
f 49 54 53
f 51 52 56
f 51 56 55
f 49 53 56
f 49 56 52
f 50 51 55
f 50 55 54
f 61 62 63
f 61 63 64
f 57 58 62
f 57 62 61
f 59 60 64
f 59 64 63
f 57 61 64
f 57 64 60
f 58 59 63
f 58 63 62
f 69 70 71
f 69 71 72
f 65 66 70
f 65 70 69
f 67 68 72
f 67 72 71
f 65 69 72
f 65 72 68
f 66 67 71
f 66 71 70
f 77 78 79
f 77 79 80
f 73 74 78
f 73 78 77
f 75 76 80
f 75 80 79
f 73 77 80
f 73 80 76
f 74 75 79
f 74 79 78
f 85 86 87
f 85 87 88
f 81 82 86
f 81 86 85
f 83 84 88
f 83 88 87
f 81 85 88
f 81 88 84
f 82 83 87
f 82 87 86
f 93 94 95
f 93 95 96
f 89 90 94
f 89 94 93
f 91 92 96
f 91 96 95
f 89 93 96
f 89 96 92
f 90 91 95
f 90 95 94
f 101 102 103
f 101 103 104
f 97 98 102
f 97 102 101
f 99 100 104
f 99 104 103
f 97 101 104
f 97 104 100
f 98 99 103
f 98 103 102
f 109 110 111
f 109 111 112
f 105 106 110
f 105 110 109
f 107 108 112
f 107 112 111
f 105 109 112
f 105 112 108
f 106 107 111
f 106 111 110
f 117 118 119
f 117 119 120
f 113 114 118
f 113 118 117
f 115 116 120
f 115 120 119
f 113 117 120
f 113 120 116
f 114 115 119
f 114 119 118
f 125 126 127
f 125 127 128
f 121 122 126
f 121 126 125
f 123 124 128
f 123 128 127
f 121 125 128
f 121 128 124
f 122 123 127
f 122 127 126
f 133 134 135
f 133 135 136
f 129 130 134
f 129 134 133
f 131 132 136
f 131 136 135
f 129 133 136
f 129 136 132
f 130 131 135
f 130 135 134
f 141 142 143
f 141 143 144
f 137 138 142
f 137 142 141
f 139 140 144
f 139 144 143
f 137 141 144
f 137 144 140
f 138 139 143
f 138 143 142
f 149 150 151
f 149 151 152
f 145 146 150
f 145 150 149
f 147 148 152
f 147 152 151
f 145 149 152
f 145 152 148
f 146 147 151
f 146 151 150
f 157 158 159
f 157 159 160
f 153 154 158
f 153 158 157
f 155 156 160
f 155 160 159
f 153 157 160
f 153 160 156
f 154 155 159
f 154 159 158
f 165 166 167
f 165 167 168
f 161 162 166
f 161 166 165
f 163 164 168
f 163 168 167
f 161 165 168
f 161 168 164
f 162 163 167
f 162 167 166
f 173 174 175
f 173 175 176
f 169 170 174
f 169 174 173
f 171 172 176
f 171 176 175
f 169 173 176
f 169 176 172
f 170 171 175
f 170 175 174
f 181 182 183
f 181 183 184
f 177 178 182
f 177 182 181
f 179 180 184
f 179 184 183
f 177 181 184
f 177 184 180
f 178 179 183
f 178 183 182
f 189 190 191
f 189 191 192
f 185 186 190
f 185 190 189
f 187 188 192
f 187 192 191
f 185 189 192
f 185 192 188
f 186 187 191
f 186 191 190
f 197 198 199
f 197 199 200
f 193 194 198
f 193 198 197
f 195 196 200
f 195 200 199
f 193 197 200
f 193 200 196
f 194 195 199
f 194 199 198
f 205 206 207
f 205 207 208
f 201 202 206
f 201 206 205
f 203 204 208
f 203 208 207
f 201 205 208
f 201 208 204
f 202 203 207
f 202 207 206
f 213 214 215
f 213 215 216
f 209 210 214
f 209 214 213
f 211 212 216
f 211 216 215
f 209 213 216
f 209 216 212
f 210 211 215
f 210 215 214
f 221 222 223
f 221 223 224
f 217 218 222
f 217 222 221
f 219 220 224
f 219 224 223
f 217 221 224
f 217 224 220
f 218 219 223
f 218 223 222
f 229 230 231
f 229 231 232
f 225 226 230
f 225 230 229
f 227 228 232
f 227 232 231
f 225 229 232
f 225 232 228
f 226 227 231
f 226 231 230
f 237 238 239
f 237 239 240
f 233 234 238
f 233 238 237
f 235 236 240
f 235 240 239
f 233 237 240
f 233 240 236
f 234 235 239
f 234 239 238
f 245 246 247
f 245 247 248
f 241 242 246
f 241 246 245
f 243 244 248
f 243 248 247
f 241 245 248
f 241 248 244
f 242 243 247
f 242 247 246
f 253 254 255
f 253 255 256
f 249 250 254
f 249 254 253
f 251 252 256
f 251 256 255
f 249 253 256
f 249 256 252
f 250 251 255
f 250 255 254
f 261 262 263
f 261 263 264
f 257 258 262
f 257 262 261
f 259 260 264
f 259 264 263
f 257 261 264
f 257 264 260
f 258 259 263
f 258 263 262
f 269 270 271
f 269 271 272
f 265 266 270
f 265 270 269
f 267 268 272
f 267 272 271
f 265 269 272
f 265 272 268
f 266 267 271
f 266 271 270
f 277 278 279
f 277 279 280
f 273 274 278
f 273 278 277
f 275 276 280
f 275 280 279
f 273 277 280
f 273 280 276
f 274 275 279
f 274 279 278
f 285 286 287
f 285 287 288
f 281 282 286
f 281 286 285
f 283 284 288
f 283 288 287
f 281 285 288
f 281 288 284
f 282 283 287
f 282 287 286
f 293 294 295
f 293 295 296
f 289 290 294
f 289 294 293
f 291 292 296
f 291 296 295
f 289 293 296
f 289 296 292
f 290 291 295
f 290 295 294
f 301 302 303
f 301 303 304
f 297 298 302
f 297 302 301
f 299 300 304
f 299 304 303
f 297 301 304
f 297 304 300
f 298 299 303
f 298 303 302
f 309 310 311
f 309 311 312
f 305 306 310
f 305 310 309
f 307 308 312
f 307 312 311
f 305 309 312
f 305 312 308
f 306 307 311
f 306 311 310
f 317 318 319
f 317 319 320
f 313 314 318
f 313 318 317
f 315 316 320
f 315 320 319
f 313 317 320
f 313 320 316
f 314 315 319
f 314 319 318
f 325 326 327
f 325 327 328
f 321 322 326
f 321 326 325
f 323 324 328
f 323 328 327
f 321 325 328
f 321 328 324
f 322 323 327
f 322 327 326
f 333 334 335
f 333 335 336
f 329 330 334
f 329 334 333
f 331 332 336
f 331 336 335
f 329 333 336
f 329 336 332
f 330 331 335
f 330 335 334
f 341 342 343
f 341 343 344
f 337 338 342
f 337 342 341
f 339 340 344
f 339 344 343
f 337 341 344
f 337 344 340
f 338 339 343
f 338 343 342
f 349 350 351
f 349 351 352
f 345 346 350
f 345 350 349
f 347 348 352
f 347 352 351
f 345 349 352
f 345 352 348
f 346 347 351
f 346 351 350
f 357 358 359
f 357 359 360
f 353 354 358
f 353 358 357
f 355 356 360
f 355 360 359
f 353 357 360
f 353 360 356
f 354 355 359
f 354 359 358
f 365 366 367
f 365 367 368
f 361 362 366
f 361 366 365
f 363 364 368
f 363 368 367
f 361 365 368
f 361 368 364
f 362 363 367
f 362 367 366
f 373 374 375
f 373 375 376
f 369 370 374
f 369 374 373
f 371 372 376
f 371 376 375
f 369 373 376
f 369 376 372
f 370 371 375
f 370 375 374
f 381 382 383
f 381 383 384
f 377 378 382
f 377 382 381
f 379 380 384
f 379 384 383
f 377 381 384
f 377 384 380
f 378 379 383
f 378 383 382
f 389 390 391
f 389 391 392
f 385 386 390
f 385 390 389
f 387 388 392
f 387 392 391
f 385 389 392
f 385 392 388
f 386 387 391
f 386 391 390
f 397 398 399
f 397 399 400
f 393 394 398
f 393 398 397
f 395 396 400
f 395 400 399
f 393 397 400
f 393 400 396
f 394 395 399
f 394 399 398
f 405 406 407
f 405 407 408
f 401 402 406
f 401 406 405
f 403 404 408
f 403 408 407
f 401 405 408
f 401 408 404
f 402 403 407
f 402 407 406
f 413 414 415
f 413 415 416
f 409 410 414
f 409 414 413
f 411 412 416
f 411 416 415
f 409 413 416
f 409 416 412
f 410 411 415
f 410 415 414
f 421 422 423
f 421 423 424
f 417 418 422
f 417 422 421
f 419 420 424
f 419 424 423
f 417 421 424
f 417 424 420
f 418 419 423
f 418 423 422
f 429 430 431
f 429 431 432
f 425 426 430
f 425 430 429
f 427 428 432
f 427 432 431
f 425 429 432
f 425 432 428
f 426 427 431
f 426 431 430
f 437 438 439
f 437 439 440
f 433 434 438
f 433 438 437
f 435 436 440
f 435 440 439
f 433 437 440
f 433 440 436
f 434 435 439
f 434 439 438
f 445 446 447
f 445 447 448
f 441 442 446
f 441 446 445
f 443 444 448
f 443 448 447
f 441 445 448
f 441 448 444
f 442 443 447
f 442 447 446
f 453 454 455
f 453 455 456
f 449 450 454
f 449 454 453
f 451 452 456
f 451 456 455
f 449 453 456
f 449 456 452
f 450 451 455
f 450 455 454
f 461 462 463
f 461 463 464
f 457 458 462
f 457 462 461
f 459 460 464
f 459 464 463
f 457 461 464
f 457 464 460
f 458 459 463
f 458 463 462
f 469 470 471
f 469 471 472
f 465 466 470
f 465 470 469
f 467 468 472
f 467 472 471
f 465 469 472
f 465 472 468
f 466 467 471
f 466 471 470
f 477 478 479
f 477 479 480
f 473 474 478
f 473 478 477
f 475 476 480
f 475 480 479
f 473 477 480
f 473 480 476
f 474 475 479
f 474 479 478
f 481 482 483
f 481 483 484
f 481 484 485
f 481 485 486
f 481 486 487
f 481 487 488
f 489 490 491
f 489 491 492
f 493 494 495
f 493 495 496
f 497 498 499
f 497 499 500
f 501 502 503
f 501 503 504
f 505 506 507
f 505 507 508
f 505 508 509
f 505 509 510
f 505 510 511
f 505 511 512
f 505 512 513
f 505 513 514
f 505 514 515
f 516 517 518
f 516 518 519
f 516 519 520
f 516 520 521
f 522 523 524
f 522 524 525
f 526 527 528
f 526 528 529
f 526 529 530
f 526 530 531
f 526 531 532
f 533 534 535
f 533 535 536
f 537 538 539
f 537 539 540
f 537 540 541
f 537 541 542
f 537 542 543
f 537 543 544
f 537 544 545
f 537 545 546
f 547 548 549
f 547 549 550
f 551 552 553
f 551 553 554
f 555 556 557
f 555 557 558
f 555 558 559
f 555 559 560
f 555 560 561
f 562 563 564
f 562 564 565
f 562 565 566
f 562 566 567
f 562 567 568
f 562 568 569
f 562 569 570
f 562 570 571
f 562 571 572
f 562 572 573
f 574 575 576
f 574 576 577
f 574 577 578
f 574 578 579
f 574 579 580
