# Floorplan 3D Model
# Vertices: 134
# Faces: 216
mtllib Capture d’écran 2025-06-05 224217.mtl

v 15.539568 0.000000 9.525180 1.000 0.784 0.486
v 15.553957 0.000000 10.820144 1.000 0.784 0.486
v 14.417266 0.000000 10.820144 1.000 0.784 0.486
v 14.417266 0.000000 9.525180 1.000 0.784 0.486
v 15.539568 2.500000 9.525180 1.000 0.784 0.486
v 15.553957 2.500000 10.820144 1.000 0.784 0.486
v 14.417266 2.500000 10.820144 1.000 0.784 0.486
v 14.417266 2.500000 9.525180 1.000 0.784 0.486
v 16.187050 0.000000 2.388489 1.000 0.784 0.486
v 16.187050 0.000000 7.294964 1.000 0.784 0.486
v 11.827338 0.000000 7.280576 1.000 0.784 0.486
v 11.827338 0.000000 2.388489 1.000 0.784 0.486
v 16.187050 2.500000 2.388489 1.000 0.784 0.486
v 16.187050 2.500000 7.294964 1.000 0.784 0.486
v 11.827338 2.500000 7.280576 1.000 0.784 0.486
v 11.827338 2.500000 2.388489 1.000 0.784 0.486
v 8.517986 0.000000 2.345324 1.000 0.784 0.486
v 8.517986 0.000000 6.992806 1.000 0.784 0.486
v 3.798561 0.000000 6.992806 1.000 0.784 0.486
v 3.798561 0.000000 2.345324 1.000 0.784 0.486
v 8.517986 2.500000 2.345324 1.000 0.784 0.486
v 8.517986 2.500000 6.992806 1.000 0.784 0.486
v 3.798561 2.500000 6.992806 1.000 0.784 0.486
v 3.798561 2.500000 2.345324 1.000 0.784 0.486
v 9.769784 0.000000 8.633094 0.678 0.847 0.902
v 9.769784 0.000000 10.848921 0.678 0.847 0.902
v 3.884892 0.000000 10.848921 0.678 0.847 0.902
v 3.884892 0.000000 8.633094 0.678 0.847 0.902
v 9.769784 2.500000 8.633094 0.678 0.847 0.902
v 9.769784 2.500000 10.848921 0.678 0.847 0.902
v 3.884892 2.500000 10.848921 0.678 0.847 0.902
v 3.884892 2.500000 8.633094 0.678 0.847 0.902
v 12.446043 0.000000 7.971223 0.678 0.847 0.902
v 12.748201 0.000000 8.258993 0.678 0.847 0.902
v 15.568345 0.000000 8.676259 0.678 0.847 0.902
v 15.568345 0.000000 9.539568 0.678 0.847 0.902
v 14.115108 0.000000 9.496403 0.678 0.847 0.902
v 13.913669 0.000000 10.345324 0.678 0.847 0.902
v 14.230216 0.000000 10.820144 0.678 0.847 0.902
v 11.467626 0.000000 10.820144 0.678 0.847 0.902
v 10.964029 0.000000 8.992806 0.678 0.847 0.902
v 12.446043 2.500000 7.971223 0.678 0.847 0.902
v 12.748201 2.500000 8.258993 0.678 0.847 0.902
v 15.568345 2.500000 8.676259 0.678 0.847 0.902
v 15.568345 2.500000 9.539568 0.678 0.847 0.902
v 14.115108 2.500000 9.496403 0.678 0.847 0.902
v 13.913669 2.500000 10.345324 0.678 0.847 0.902
v 14.230216 2.500000 10.820144 0.678 0.847 0.902
v 11.467626 2.500000 10.820144 0.678 0.847 0.902
v 10.964029 2.500000 8.992806 0.678 0.847 0.902
v 10.964029 0.000000 2.992806 0.678 0.847 0.902
v 9.712230 0.000000 3.007194 0.678 0.847 0.902
v 9.712230 0.000000 6.244604 0.678 0.847 0.902
v 9.079137 0.000000 6.244604 0.678 0.847 0.902
v 9.079137 0.000000 2.258993 0.678 0.847 0.902
v 10.964029 0.000000 2.258993 0.678 0.847 0.902
v 10.964029 2.500000 2.992806 0.678 0.847 0.902
v 9.712230 2.500000 3.007194 0.678 0.847 0.902
v 9.712230 2.500000 6.244604 0.678 0.847 0.902
v 9.079137 2.500000 6.244604 0.678 0.847 0.902
v 9.079137 2.500000 2.258993 0.678 0.847 0.902
v 10.964029 2.500000 2.258993 0.678 0.847 0.902
v 8.388489 0.000000 6.992806 1.000 0.894 0.710
v 8.388489 0.000000 8.316547 1.000 0.894 0.710
v 3.971223 0.000000 8.316547 1.000 0.894 0.710
v 3.971223 0.000000 6.992806 1.000 0.894 0.710
v 8.388489 2.500000 6.992806 1.000 0.894 0.710
v 8.388489 2.500000 8.316547 1.000 0.894 0.710
v 3.971223 2.500000 8.316547 1.000 0.894 0.710
v 3.971223 2.500000 6.992806 1.000 0.894 0.710
v 11.812950 0.000000 8.000000 1.000 0.894 0.710
v 10.949640 0.000000 8.992806 1.000 0.894 0.710
v 11.453237 0.000000 10.834532 1.000 0.894 0.710
v 10.158273 0.000000 10.834532 1.000 0.894 0.710
v 10.532374 0.000000 8.992806 1.000 0.894 0.710
v 9.971223 0.000000 3.553957 1.000 0.894 0.710
v 11.079137 0.000000 2.964029 1.000 0.894 0.710
v 11.812950 2.500000 8.000000 1.000 0.894 0.710
v 10.949640 2.500000 8.992806 1.000 0.894 0.710
v 11.453237 2.500000 10.834532 1.000 0.894 0.710
v 10.158273 2.500000 10.834532 1.000 0.894 0.710
v 10.532374 2.500000 8.992806 1.000 0.894 0.710
v 9.971223 2.500000 3.553957 1.000 0.894 0.710
v 11.079137 2.500000 2.964029 1.000 0.894 0.710
v 16.345324 0.000000 8.733813 0.941 1.000 0.941
v 16.345324 0.000000 9.741007 0.941 1.000 0.941
v 15.683453 0.000000 9.741007 0.941 1.000 0.941
v 15.683453 0.000000 8.733813 0.941 1.000 0.941
v 16.345324 2.500000 8.733813 0.941 1.000 0.941
v 16.345324 2.500000 9.741007 0.941 1.000 0.941
v 15.683453 2.500000 9.741007 0.941 1.000 0.941
v 15.683453 2.500000 8.733813 0.941 1.000 0.941
v 3.769784 0.000000 8.690647 0.827 0.827 0.827
v 3.769784 0.000000 10.820144 0.827 0.827 0.827
v 3.395683 0.000000 10.820144 0.827 0.827 0.827
v 3.395683 0.000000 8.690647 0.827 0.827 0.827
v 3.769784 2.500000 8.690647 0.827 0.827 0.827
v 3.769784 2.500000 10.820144 0.827 0.827 0.827
v 3.395683 2.500000 10.820144 0.827 0.827 0.827
v 3.395683 2.500000 8.690647 0.827 0.827 0.827
v 3.712230 0.000000 3.438849 0.827 0.827 0.827
v 3.712230 0.000000 5.913669 0.827 0.827 0.827
v 3.395683 0.000000 5.913669 0.827 0.827 0.827
v 3.395683 0.000000 3.438849 0.827 0.827 0.827
v 3.712230 2.500000 3.438849 0.827 0.827 0.827
v 3.712230 2.500000 5.913669 0.827 0.827 0.827
v 3.395683 2.500000 5.913669 0.827 0.827 0.827
v 3.395683 2.500000 3.438849 0.827 0.827 0.827
v 16.618705 0.000000 3.496403 0.827 0.827 0.827
v 16.417266 0.000000 5.956835 0.827 0.827 0.827
v 16.618705 0.000000 7.021583 0.827 0.827 0.827
v 16.302158 0.000000 7.237410 0.827 0.827 0.827
v 16.374101 0.000000 3.410072 0.827 0.827 0.827
v 16.618705 2.500000 3.496403 0.827 0.827 0.827
v 16.417266 2.500000 5.956835 0.827 0.827 0.827
v 16.618705 2.500000 7.021583 0.827 0.827 0.827
v 16.302158 2.500000 7.237410 0.827 0.827 0.827
v 16.374101 2.500000 3.410072 0.827 0.827 0.827
v 12.949640 0.000000 1.913669 0.827 0.827 0.827
v 13.381295 0.000000 2.028777 0.827 0.827 0.827
v 13.985612 0.000000 1.913669 0.827 0.827 0.827
v 14.287770 0.000000 2.057554 0.827 0.827 0.827
v 14.992806 0.000000 2.057554 0.827 0.827 0.827
v 14.834532 0.000000 2.201439 0.827 0.827 0.827
v 12.949640 0.000000 2.230216 0.827 0.827 0.827
v 12.676259 0.000000 2.028777 0.827 0.827 0.827
v 12.949640 2.500000 1.913669 0.827 0.827 0.827
v 13.381295 2.500000 2.028777 0.827 0.827 0.827
v 13.985612 2.500000 1.913669 0.827 0.827 0.827
v 14.287770 2.500000 2.057554 0.827 0.827 0.827
v 14.992806 2.500000 2.057554 0.827 0.827 0.827
v 14.834532 2.500000 2.201439 0.827 0.827 0.827
v 12.949640 2.500000 2.230216 0.827 0.827 0.827
v 12.676259 2.500000 2.028777 0.827 0.827 0.827

usemtl default
f 4 2 1
f 2 4 3
f 8 5 6
f 6 7 8
f 1 2 6
f 1 6 5
f 2 3 7
f 2 7 6
f 3 4 8
f 3 8 7
f 4 1 5
f 4 5 8
f 12 10 9
f 10 12 11
f 16 13 14
f 14 15 16
f 9 10 14
f 9 14 13
f 10 11 15
f 10 15 14
f 11 12 16
f 11 16 15
f 12 9 13
f 12 13 16
f 20 18 17
f 18 20 19
f 24 21 22
f 22 23 24
f 17 18 22
f 17 22 21
f 18 19 23
f 18 23 22
f 19 20 24
f 19 24 23
f 20 17 21
f 20 21 24
f 28 26 25
f 26 28 27
f 32 29 30
f 30 31 32
f 25 26 30
f 25 30 29
f 26 27 31
f 26 31 30
f 27 28 32
f 27 32 31
f 28 25 29
f 28 29 32
f 41 34 33
f 41 35 34
f 41 36 35
f 41 37 36
f 41 38 37
f 41 39 38
f 39 41 40
f 50 42 43
f 50 43 44
f 50 44 45
f 50 45 46
f 50 46 47
f 50 47 48
f 48 49 50
f 33 34 43
f 33 43 42
f 34 35 44
f 34 44 43
f 35 36 45
f 35 45 44
f 36 37 46
f 36 46 45
f 37 38 47
f 37 47 46
f 38 39 48
f 38 48 47
f 39 40 49
f 39 49 48
f 40 41 50
f 40 50 49
f 41 33 42
f 41 42 50
f 56 52 51
f 52 54 53
f 52 55 54
f 52 56 55
f 62 57 58
f 58 59 60
f 58 60 61
f 58 61 62
f 51 52 58
f 51 58 57
f 52 53 59
f 52 59 58
f 53 54 60
f 53 60 59
f 54 55 61
f 54 61 60
f 55 56 62
f 55 62 61
f 56 51 57
f 56 57 62
f 66 64 63
f 64 66 65
f 70 67 68
f 68 69 70
f 63 64 68
f 63 68 67
f 64 65 69
f 64 69 68
f 65 66 70
f 65 70 69
f 66 63 67
f 66 67 70
f 77 72 71
f 72 74 73
f 72 75 74
f 77 75 72
f 75 77 76
f 84 78 79
f 79 80 81
f 79 81 82
f 84 79 82
f 82 83 84
f 71 72 79
f 71 79 78
f 72 73 80
f 72 80 79
f 73 74 81
f 73 81 80
f 74 75 82
f 74 82 81
f 75 76 83
f 75 83 82
f 76 77 84
f 76 84 83
f 77 71 78
f 77 78 84
f 88 86 85
f 86 88 87
f 92 89 90
f 90 91 92
f 85 86 90
f 85 90 89
f 86 87 91
f 86 91 90
f 87 88 92
f 87 92 91
f 88 85 89
f 88 89 92
f 96 94 93
f 94 96 95
f 100 97 98
f 98 99 100
f 93 94 98
f 93 98 97
f 94 95 99
f 94 99 98
f 95 96 100
f 95 100 99
f 96 93 97
f 96 97 100
f 104 102 101
f 102 104 103
f 108 105 106
f 106 107 108
f 101 102 106
f 101 106 105
f 102 103 107
f 102 107 106
f 103 104 108
f 103 108 107
f 104 101 105
f 104 105 108
f 113 110 109
f 110 112 111
f 110 113 112
f 118 114 115
f 115 116 117
f 115 117 118
f 109 110 115
f 109 115 114
f 110 111 116
f 110 116 115
f 111 112 117
f 111 117 116
f 112 113 118
f 112 118 117
f 113 109 114
f 113 114 118
f 126 120 119
f 120 122 121
f 126 122 120
f 122 124 123
f 126 124 122
f 124 126 125
f 134 127 128
f 128 129 130
f 134 128 130
f 130 131 132
f 134 130 132
f 132 133 134
f 119 120 128
f 119 128 127
f 120 121 129
f 120 129 128
f 121 122 130
f 121 130 129
f 122 123 131
f 122 131 130
f 123 124 132
f 123 132 131
f 124 125 133
f 124 133 132
f 125 126 134
f 125 134 133
f 126 119 127
f 126 127 134
