# Floorplan 3D Model
# Vertices: 170
# Faces: 292
mtllib Capture d’écran 2025-06-05 224217.mtl

v 13.304482 0.000000 8.148377 1.000 0.784 0.486
v 13.477589 0.000000 8.568779 1.000 0.784 0.486
v 13.823802 0.000000 8.865533 1.000 0.784 0.486
v 13.823802 0.000000 9.261206 1.000 0.784 0.486
v 12.414219 0.000000 9.310665 1.000 0.784 0.486
v 12.401855 0.000000 9.125193 1.000 0.784 0.486
v 11.969088 0.000000 8.890263 1.000 0.784 0.486
v 12.278207 0.000000 8.618238 1.000 0.784 0.486
v 12.068006 0.000000 8.482226 1.000 0.784 0.486
v 12.142195 0.000000 8.197836 1.000 0.784 0.486
v 13.304482 2.500000 8.148377 1.000 0.784 0.486
v 13.477589 2.500000 8.568779 1.000 0.784 0.486
v 13.823802 2.500000 8.865533 1.000 0.784 0.486
v 13.823802 2.500000 9.261206 1.000 0.784 0.486
v 12.414219 2.500000 9.310665 1.000 0.784 0.486
v 12.401855 2.500000 9.125193 1.000 0.784 0.486
v 11.969088 2.500000 8.890263 1.000 0.784 0.486
v 12.278207 2.500000 8.618238 1.000 0.784 0.486
v 12.068006 2.500000 8.482226 1.000 0.784 0.486
v 12.142195 2.500000 8.197836 1.000 0.784 0.486
v 7.789799 0.000000 2.015456 1.000 0.784 0.486
v 7.369397 0.000000 2.979907 1.000 0.784 0.486
v 7.307573 0.000000 5.922720 1.000 0.784 0.486
v 3.264297 0.000000 6.009274 1.000 0.784 0.486
v 3.264297 0.000000 1.990726 1.000 0.784 0.486
v 7.789799 2.500000 2.015456 1.000 0.784 0.486
v 7.369397 2.500000 2.979907 1.000 0.784 0.486
v 7.307573 2.500000 5.922720 1.000 0.784 0.486
v 3.264297 2.500000 6.009274 1.000 0.784 0.486
v 3.264297 2.500000 1.990726 1.000 0.784 0.486
v 13.897991 0.000000 7.134467 1.000 0.784 0.486
v 10.992272 0.000000 7.109737 1.000 0.784 0.486
v 10.163833 0.000000 6.256569 1.000 0.784 0.486
v 9.496136 0.000000 2.064915 1.000 0.784 0.486
v 13.996909 0.000000 1.941267 1.000 0.784 0.486
v 13.897991 2.500000 7.134467 1.000 0.784 0.486
v 10.992272 2.500000 7.109737 1.000 0.784 0.486
v 10.163833 2.500000 6.256569 1.000 0.784 0.486
v 9.496136 2.500000 2.064915 1.000 0.784 0.486
v 13.996909 2.500000 1.941267 1.000 0.784 0.486
v 10.646059 0.000000 6.850077 0.678 0.847 0.902
v 12.995363 0.000000 7.072643 0.678 0.847 0.902
v 12.315301 0.000000 7.307573 0.678 0.847 0.902
v 13.477589 0.000000 7.443586 0.678 0.847 0.902
v 13.341577 0.000000 8.160742 0.678 0.847 0.902
v 12.129830 0.000000 8.197836 0.678 0.847 0.902
v 12.228748 0.000000 9.310665 0.678 0.847 0.902
v 9.854714 0.000000 9.310665 0.678 0.847 0.902
v 9.434312 0.000000 7.715611 0.678 0.847 0.902
v 10.646059 2.500000 6.850077 0.678 0.847 0.902
v 12.995363 2.500000 7.072643 0.678 0.847 0.902
v 12.315301 2.500000 7.307573 0.678 0.847 0.902
v 13.477589 2.500000 7.443586 0.678 0.847 0.902
v 13.341577 2.500000 8.160742 0.678 0.847 0.902
v 12.129830 2.500000 8.197836 0.678 0.847 0.902
v 12.228748 2.500000 9.310665 0.678 0.847 0.902
v 9.854714 2.500000 9.310665 0.678 0.847 0.902
v 9.434312 2.500000 7.715611 0.678 0.847 0.902
v 3.363215 0.000000 7.183926 0.678 0.847 0.902
v 7.542504 0.000000 7.418856 0.678 0.847 0.902
v 7.826893 0.000000 6.503864 0.678 0.847 0.902
v 8.531685 0.000000 7.938176 0.678 0.847 0.902
v 9.001546 0.000000 7.530139 0.678 0.847 0.902
v 8.445131 0.000000 9.310665 0.678 0.847 0.902
v 3.326121 0.000000 9.310665 0.678 0.847 0.902
v 3.190108 0.000000 6.503864 0.678 0.847 0.902
v 3.363215 2.500000 7.183926 0.678 0.847 0.902
v 7.542504 2.500000 7.418856 0.678 0.847 0.902
v 7.826893 2.500000 6.503864 0.678 0.847 0.902
v 8.531685 2.500000 7.938176 0.678 0.847 0.902
v 9.001546 2.500000 7.530139 0.678 0.847 0.902
v 8.445131 2.500000 9.310665 0.678 0.847 0.902
v 3.326121 2.500000 9.310665 0.678 0.847 0.902
v 3.190108 2.500000 6.503864 0.678 0.847 0.902
v 9.421947 0.000000 2.547141 0.678 0.847 0.902
v 8.556414 0.000000 3.041731 0.678 0.847 0.902
v 8.309119 0.000000 5.551777 0.678 0.847 0.902
v 7.938176 0.000000 5.897991 0.678 0.847 0.902
v 7.591963 0.000000 4.636785 0.678 0.847 0.902
v 7.765070 0.000000 1.965997 0.678 0.847 0.902
v 9.384853 0.000000 1.941267 0.678 0.847 0.902
v 9.421947 2.500000 2.547141 0.678 0.847 0.902
v 8.556414 2.500000 3.041731 0.678 0.847 0.902
v 8.309119 2.500000 5.551777 0.678 0.847 0.902
v 7.938176 2.500000 5.897991 0.678 0.847 0.902
v 7.591963 2.500000 4.636785 0.678 0.847 0.902
v 7.765070 2.500000 1.965997 0.678 0.847 0.902
v 9.384853 2.500000 1.941267 0.678 0.847 0.902
v 7.196291 0.000000 7.221020 1.000 0.894 0.710
v 3.326121 0.000000 7.134467 1.000 0.894 0.710
v 3.289026 0.000000 6.021638 1.000 0.894 0.710
v 7.307573 0.000000 5.935085 1.000 0.894 0.710
v 7.196291 2.500000 7.221020 1.000 0.894 0.710
v 3.326121 2.500000 7.134467 1.000 0.894 0.710
v 3.289026 2.500000 6.021638 1.000 0.894 0.710
v 7.307573 2.500000 5.935085 1.000 0.894 0.710
v 10.151468 0.000000 6.874807 1.000 0.894 0.710
v 9.421947 0.000000 7.715611 1.000 0.894 0.710
v 9.842349 0.000000 9.285935 1.000 0.894 0.710
v 8.704791 0.000000 9.310665 1.000 0.894 0.710
v 9.051005 0.000000 7.765070 1.000 0.894 0.710
v 8.630603 0.000000 6.837713 1.000 0.894 0.710
v 8.568779 0.000000 3.041731 1.000 0.894 0.710
v 9.520866 0.000000 2.547141 1.000 0.894 0.710
v 10.151468 2.500000 6.874807 1.000 0.894 0.710
v 9.421947 2.500000 7.715611 1.000 0.894 0.710
v 9.842349 2.500000 9.285935 1.000 0.894 0.710
v 8.704791 2.500000 9.310665 1.000 0.894 0.710
v 9.051005 2.500000 7.765070 1.000 0.894 0.710
v 8.630603 2.500000 6.837713 1.000 0.894 0.710
v 8.568779 2.500000 3.041731 1.000 0.894 0.710
v 9.520866 2.500000 2.547141 1.000 0.894 0.710
v 13.959815 0.000000 7.505410 0.941 1.000 0.941
v 14.108192 0.000000 8.061824 0.941 1.000 0.941
v 13.922720 0.000000 8.333849 0.941 1.000 0.941
v 14.034003 0.000000 9.026275 0.941 1.000 0.941
v 13.860896 0.000000 9.211747 0.941 1.000 0.941
v 13.836167 0.000000 8.865533 0.941 1.000 0.941
v 13.489954 0.000000 8.568779 0.941 1.000 0.941
v 13.353941 0.000000 8.234930 0.941 1.000 0.941
v 13.391036 0.000000 7.604328 0.941 1.000 0.941
v 13.489954 0.000000 7.443586 0.941 1.000 0.941
v 13.761978 0.000000 7.394127 0.941 1.000 0.941
v 13.959815 2.500000 7.505410 0.941 1.000 0.941
v 14.108192 2.500000 8.061824 0.941 1.000 0.941
v 13.922720 2.500000 8.333849 0.941 1.000 0.941
v 14.034003 2.500000 9.026275 0.941 1.000 0.941
v 13.860896 2.500000 9.211747 0.941 1.000 0.941
v 13.836167 2.500000 8.865533 0.941 1.000 0.941
v 13.489954 2.500000 8.568779 0.941 1.000 0.941
v 13.353941 2.500000 8.234930 0.941 1.000 0.941
v 13.391036 2.500000 7.604328 0.941 1.000 0.941
v 13.489954 2.500000 7.443586 0.941 1.000 0.941
v 13.761978 2.500000 7.394127 0.941 1.000 0.941
v 3.276662 0.000000 9.285935 0.827 0.827 0.827
v 2.942813 0.000000 9.310665 0.827 0.827 0.827
v 2.918083 0.000000 8.741886 0.827 0.827 0.827
v 2.806801 0.000000 8.544049 0.827 0.827 0.827
v 2.880989 0.000000 7.530139 0.827 0.827 0.827
v 3.214838 0.000000 7.443586 0.827 0.827 0.827
v 3.276662 2.500000 9.285935 0.827 0.827 0.827
v 2.942813 2.500000 9.310665 0.827 0.827 0.827
v 2.918083 2.500000 8.741886 0.827 0.827 0.827
v 2.806801 2.500000 8.544049 0.827 0.827 0.827
v 2.880989 2.500000 7.530139 0.827 0.827 0.827
v 3.214838 2.500000 7.443586 0.827 0.827 0.827
v 14.281298 0.000000 3.004637 0.827 0.827 0.827
v 14.108192 0.000000 5.119011 0.827 0.827 0.827
v 14.281298 0.000000 6.034003 0.827 0.827 0.827
v 14.009274 0.000000 6.219474 0.827 0.827 0.827
v 14.071097 0.000000 2.930448 0.827 0.827 0.827
v 14.281298 2.500000 3.004637 0.827 0.827 0.827
v 14.108192 2.500000 5.119011 0.827 0.827 0.827
v 14.281298 2.500000 6.034003 0.827 0.827 0.827
v 14.009274 2.500000 6.219474 0.827 0.827 0.827
v 14.071097 2.500000 2.930448 0.827 0.827 0.827
v 3.214838 0.000000 2.979907 0.827 0.827 0.827
v 3.177743 0.000000 5.156105 0.827 0.827 0.827
v 2.918083 0.000000 5.069552 0.827 0.827 0.827
v 2.806801 0.000000 4.080371 0.827 0.827 0.827
v 2.843895 0.000000 3.115920 0.827 0.827 0.827
v 2.942813 0.000000 2.905719 0.827 0.827 0.827
v 3.115920 0.000000 2.856260 0.827 0.827 0.827
v 3.214838 2.500000 2.979907 0.827 0.827 0.827
v 3.177743 2.500000 5.156105 0.827 0.827 0.827
v 2.918083 2.500000 5.069552 0.827 0.827 0.827
v 2.806801 2.500000 4.080371 0.827 0.827 0.827
v 2.843895 2.500000 3.115920 0.827 0.827 0.827
v 2.942813 2.500000 2.905719 0.827 0.827 0.827
v 3.115920 2.500000 2.856260 0.827 0.827 0.827

usemtl default
f 10 2 1
f 10 3 2
f 10 4 3
f 4 6 5
f 4 7 6
f 4 8 7
f 10 8 4
f 8 10 9
f 20 11 12
f 20 12 13
f 20 13 14
f 14 15 16
f 14 16 17
f 14 17 18
f 20 14 18
f 18 19 20
f 1 2 12
f 1 12 11
f 2 3 13
f 2 13 12
f 3 4 14
f 3 14 13
f 4 5 15
f 4 15 14
f 5 6 16
f 5 16 15
f 6 7 17
f 6 17 16
f 7 8 18
f 7 18 17
f 8 9 19
f 8 19 18
f 9 10 20
f 9 20 19
f 10 1 11
f 10 11 20
f 25 22 21
f 25 23 22
f 23 25 24
f 30 26 27
f 30 27 28
f 28 29 30
f 21 22 27
f 21 27 26
f 22 23 28
f 22 28 27
f 23 24 29
f 23 29 28
f 24 25 30
f 24 30 29
f 25 21 26
f 25 26 30
f 35 32 31
f 35 33 32
f 33 35 34
f 40 36 37
f 40 37 38
f 38 39 40
f 31 32 37
f 31 37 36
f 32 33 38
f 32 38 37
f 33 34 39
f 33 39 38
f 34 35 40
f 34 40 39
f 35 31 36
f 35 36 40
f 49 42 41
f 49 43 42
f 49 44 43
f 49 45 44
f 49 46 45
f 49 47 46
f 47 49 48
f 58 50 51
f 58 51 52
f 58 52 53
f 58 53 54
f 58 54 55
f 58 55 56
f 56 57 58
f 41 42 51
f 41 51 50
f 42 43 52
f 42 52 51
f 43 44 53
f 43 53 52
f 44 45 54
f 44 54 53
f 45 46 55
f 45 55 54
f 46 47 56
f 46 56 55
f 47 48 57
f 47 57 56
f 48 49 58
f 48 58 57
f 49 41 50
f 49 50 58
f 60 62 61
f 59 62 60
f 62 64 63
f 59 64 62
f 59 65 64
f 59 66 65
f 68 69 70
f 67 68 70
f 70 71 72
f 67 70 72
f 67 72 73
f 67 73 74
f 59 60 68
f 59 68 67
f 60 61 69
f 60 69 68
f 61 62 70
f 61 70 69
f 62 63 71
f 62 71 70
f 63 64 72
f 63 72 71
f 64 65 73
f 64 73 72
f 65 66 74
f 65 74 73
f 66 59 67
f 66 67 74
f 81 76 75
f 76 78 77
f 76 79 78
f 76 80 79
f 76 81 80
f 88 82 83
f 83 84 85
f 83 85 86
f 83 86 87
f 83 87 88
f 75 76 83
f 75 83 82
f 76 77 84
f 76 84 83
f 77 78 85
f 77 85 84
f 78 79 86
f 78 86 85
f 79 80 87
f 79 87 86
f 80 81 88
f 80 88 87
f 81 75 82
f 81 82 88
f 92 90 89
f 90 92 91
f 96 93 94
f 94 95 96
f 89 90 94
f 89 94 93
f 90 91 95
f 90 95 94
f 91 92 96
f 91 96 95
f 92 89 93
f 92 93 96
f 104 98 97
f 98 100 99
f 98 101 100
f 104 101 98
f 104 102 101
f 102 104 103
f 112 105 106
f 106 107 108
f 106 108 109
f 112 106 109
f 112 109 110
f 110 111 112
f 97 98 106
f 97 106 105
f 98 99 107
f 98 107 106
f 99 100 108
f 99 108 107
f 100 101 109
f 100 109 108
f 101 102 110
f 101 110 109
f 102 103 111
f 102 111 110
f 103 104 112
f 103 112 111
f 104 97 105
f 104 105 112
f 123 114 113
f 123 115 114
f 123 116 115
f 123 117 116
f 123 118 117
f 123 119 118
f 123 120 119
f 123 121 120
f 121 123 122
f 134 124 125
f 134 125 126
f 134 126 127
f 134 127 128
f 134 128 129
f 134 129 130
f 134 130 131
f 134 131 132
f 132 133 134
f 113 114 125
f 113 125 124
f 114 115 126
f 114 126 125
f 115 116 127
f 115 127 126
f 116 117 128
f 116 128 127
f 117 118 129
f 117 129 128
f 118 119 130
f 118 130 129
f 119 120 131
f 119 131 130
f 120 121 132
f 120 132 131
f 121 122 133
f 121 133 132
f 122 123 134
f 122 134 133
f 123 113 124
f 123 124 134
f 140 136 135
f 140 137 136
f 140 138 137
f 138 140 139
f 146 141 142
f 146 142 143
f 146 143 144
f 144 145 146
f 135 136 142
f 135 142 141
f 136 137 143
f 136 143 142
f 137 138 144
f 137 144 143
f 138 139 145
f 138 145 144
f 139 140 146
f 139 146 145
f 140 135 141
f 140 141 146
f 151 148 147
f 148 150 149
f 148 151 150
f 156 152 153
f 153 154 155
f 153 155 156
f 147 148 153
f 147 153 152
f 148 149 154
f 148 154 153
f 149 150 155
f 149 155 154
f 150 151 156
f 150 156 155
f 151 147 152
f 151 152 156
f 163 158 157
f 163 159 158
f 163 160 159
f 163 161 160
f 161 163 162
f 170 164 165
f 170 165 166
f 170 166 167
f 170 167 168
f 168 169 170
f 157 158 165
f 157 165 164
f 158 159 166
f 158 166 165
f 159 160 167
f 159 167 166
f 160 161 168
f 160 168 167
f 161 162 169
f 161 169 168
f 162 163 170
f 162 170 169
f 163 157 164
f 163 164 170
