# Floorplan 3D Model
# Vertices: 226
# Faces: 388
mtllib Capture d’écran 2025-06-05 224143.mtl

v 4.569620 0.000000 2.430380 1.000 0.714 0.757
v 5.227848 0.000000 2.468354 1.000 0.714 0.757
v 5.468354 0.000000 2.810127 1.000 0.714 0.757
v 5.658228 0.000000 2.405063 1.000 0.714 0.757
v 7.177215 0.000000 2.594937 1.000 0.714 0.757
v 7.481013 0.000000 3.582278 1.000 0.714 0.757
v 7.215190 0.000000 4.822785 1.000 0.714 0.757
v 6.050633 0.000000 4.974684 1.000 0.714 0.757
v 3.784810 0.000000 4.531646 1.000 0.714 0.757
v 3.443038 0.000000 4.278481 1.000 0.714 0.757
v 3.632911 0.000000 3.037975 1.000 0.714 0.757
v 4.569620 2.500000 2.430380 1.000 0.714 0.757
v 5.227848 2.500000 2.468354 1.000 0.714 0.757
v 5.468354 2.500000 2.810127 1.000 0.714 0.757
v 5.658228 2.500000 2.405063 1.000 0.714 0.757
v 7.177215 2.500000 2.594937 1.000 0.714 0.757
v 7.481013 2.500000 3.582278 1.000 0.714 0.757
v 7.215190 2.500000 4.822785 1.000 0.714 0.757
v 6.050633 2.500000 4.974684 1.000 0.714 0.757
v 3.784810 2.500000 4.531646 1.000 0.714 0.757
v 3.443038 2.500000 4.278481 1.000 0.714 0.757
v 3.632911 2.500000 3.037975 1.000 0.714 0.757
v 8.468354 0.000000 14.164557 1.000 0.784 0.486
v 4.569620 0.000000 14.164557 1.000 0.784 0.486
v 4.645570 0.000000 10.367089 1.000 0.784 0.486
v 8.506329 0.000000 10.329114 1.000 0.784 0.486
v 8.468354 2.500000 14.164557 1.000 0.784 0.486
v 4.569620 2.500000 14.164557 1.000 0.784 0.486
v 4.645570 2.500000 10.367089 1.000 0.784 0.486
v 8.506329 2.500000 10.329114 1.000 0.784 0.486
v 13.075949 0.000000 14.354430 1.000 0.784 0.486
v 9.139241 0.000000 14.063291 1.000 0.784 0.486
v 9.177215 0.000000 10.392405 1.000 0.784 0.486
v 13.151899 0.000000 10.265823 1.000 0.784 0.486
v 13.075949 2.500000 14.354430 1.000 0.784 0.486
v 9.139241 2.500000 14.063291 1.000 0.784 0.486
v 9.177215 2.500000 10.392405 1.000 0.784 0.486
v 13.151899 2.500000 10.265823 1.000 0.784 0.486
v 14.367089 0.000000 7.126582 1.000 0.784 0.486
v 10.189873 0.000000 7.443038 1.000 0.784 0.486
v 10.037975 0.000000 2.556962 1.000 0.784 0.486
v 14.240506 0.000000 2.430380 1.000 0.784 0.486
v 14.367089 2.500000 7.126582 1.000 0.784 0.486
v 10.189873 2.500000 7.443038 1.000 0.784 0.486
v 10.037975 2.500000 2.556962 1.000 0.784 0.486
v 14.240506 2.500000 2.430380 1.000 0.784 0.486
v 4.569620 0.000000 14.455696 0.678 0.847 0.902
v 11.278481 0.000000 14.658228 0.678 0.847 0.902
v 11.316456 0.000000 15.177215 0.678 0.847 0.902
v 10.886076 0.000000 15.468354 0.678 0.847 0.902
v 4.379747 0.000000 15.341772 0.678 0.847 0.902
v 4.569620 2.500000 14.455696 0.678 0.847 0.902
v 11.278481 2.500000 14.658228 0.678 0.847 0.902
v 11.316456 2.500000 15.177215 0.678 0.847 0.902
v 10.886076 2.500000 15.468354 0.678 0.847 0.902
v 4.379747 2.500000 15.341772 0.678 0.847 0.902
v 8.860759 0.000000 2.556962 0.678 0.847 0.902
v 8.898734 0.000000 6.860759 0.678 0.847 0.902
v 12.139241 0.000000 7.455696 0.678 0.847 0.902
v 12.734177 0.000000 9.784810 0.678 0.847 0.902
v 14.962025 0.000000 9.012658 0.678 0.847 0.902
v 14.455696 0.000000 7.291139 0.678 0.847 0.902
v 15.455696 0.000000 6.974684 0.678 0.847 0.902
v 14.443038 0.000000 14.316456 0.678 0.847 0.902
v 13.860759 0.000000 10.037975 0.678 0.847 0.902
v 7.810127 0.000000 9.810127 0.678 0.847 0.902
v 7.379747 0.000000 2.468354 0.678 0.847 0.902
v 8.860759 2.500000 2.556962 0.678 0.847 0.902
v 8.898734 2.500000 6.860759 0.678 0.847 0.902
v 12.139241 2.500000 7.455696 0.678 0.847 0.902
v 12.734177 2.500000 9.784810 0.678 0.847 0.902
v 14.962025 2.500000 9.012658 0.678 0.847 0.902
v 14.455696 2.500000 7.291139 0.678 0.847 0.902
v 15.455696 2.500000 6.974684 0.678 0.847 0.902
v 14.443038 2.500000 14.316456 0.678 0.847 0.902
v 13.860759 2.500000 10.037975 0.678 0.847 0.902
v 7.810127 2.500000 9.810127 0.678 0.847 0.902
v 7.379747 2.500000 2.468354 0.678 0.847 0.902
v 3.620253 0.000000 3.037975 0.678 0.847 0.902
v 3.430380 0.000000 4.278481 0.678 0.847 0.902
v 6.000000 0.000000 4.974684 0.678 0.847 0.902
v 2.734177 0.000000 5.974684 0.678 0.847 0.902
v 2.113924 0.000000 4.594937 0.678 0.847 0.902
v 2.265823 0.000000 2.746835 0.678 0.847 0.902
v 4.367089 0.000000 2.468354 0.678 0.847 0.902
v 3.620253 2.500000 3.037975 0.678 0.847 0.902
v 3.430380 2.500000 4.278481 0.678 0.847 0.902
v 6.000000 2.500000 4.974684 0.678 0.847 0.902
v 2.734177 2.500000 5.974684 0.678 0.847 0.902
v 2.113924 2.500000 4.594937 0.678 0.847 0.902
v 2.265823 2.500000 2.746835 0.678 0.847 0.902
v 4.367089 2.500000 2.468354 0.678 0.847 0.902
v 14.518987 0.000000 15.215190 1.000 0.894 0.710
v 14.202532 0.000000 15.531646 1.000 0.894 0.710
v 11.177215 0.000000 15.379747 1.000 0.894 0.710
v 11.481013 0.000000 14.455696 1.000 0.894 0.710
v 13.379747 0.000000 14.493671 1.000 0.894 0.710
v 13.632911 0.000000 14.113924 1.000 0.894 0.710
v 14.405063 0.000000 14.329114 1.000 0.894 0.710
v 14.518987 2.500000 15.215190 1.000 0.894 0.710
v 14.202532 2.500000 15.531646 1.000 0.894 0.710
v 11.177215 2.500000 15.379747 1.000 0.894 0.710
v 11.481013 2.500000 14.455696 1.000 0.894 0.710
v 13.379747 2.500000 14.493671 1.000 0.894 0.710
v 13.632911 2.500000 14.113924 1.000 0.894 0.710
v 14.405063 2.500000 14.329114 1.000 0.894 0.710
v 4.632911 0.000000 10.392405 1.000 0.894 0.710
v 4.443038 0.000000 13.835443 1.000 0.894 0.710
v 4.708861 0.000000 14.291139 1.000 0.894 0.710
v 4.443038 0.000000 15.253165 1.000 0.894 0.710
v 3.810127 0.000000 15.468354 1.000 0.894 0.710
v 3.278481 0.000000 15.215190 1.000 0.894 0.710
v 3.240506 0.000000 10.518987 1.000 0.894 0.710
v 3.556962 0.000000 10.177215 1.000 0.894 0.710
v 4.632911 2.500000 10.392405 1.000 0.894 0.710
v 4.443038 2.500000 13.835443 1.000 0.894 0.710
v 4.708861 2.500000 14.291139 1.000 0.894 0.710
v 4.443038 2.500000 15.253165 1.000 0.894 0.710
v 3.810127 2.500000 15.468354 1.000 0.894 0.710
v 3.278481 2.500000 15.215190 1.000 0.894 0.710
v 3.240506 2.500000 10.518987 1.000 0.894 0.710
v 3.556962 2.500000 10.177215 1.000 0.894 0.710
v 9.797468 0.000000 2.405063 1.000 0.894 0.710
v 10.025316 0.000000 2.594937 1.000 0.894 0.710
v 10.025316 0.000000 5.227848 1.000 0.894 0.710
v 9.949367 0.000000 4.341772 1.000 0.894 0.710
v 9.670886 0.000000 4.481013 1.000 0.894 0.710
v 9.835443 0.000000 4.658228 1.000 0.894 0.710
v 9.594937 0.000000 5.075949 1.000 0.894 0.710
v 8.822785 0.000000 5.037975 1.000 0.894 0.710
v 8.670886 0.000000 3.329114 1.000 0.894 0.710
v 8.873418 0.000000 2.556962 1.000 0.894 0.710
v 8.670886 0.000000 2.493671 1.000 0.894 0.710
v 9.797468 2.500000 2.405063 1.000 0.894 0.710
v 10.025316 2.500000 2.594937 1.000 0.894 0.710
v 10.025316 2.500000 5.227848 1.000 0.894 0.710
v 9.949367 2.500000 4.341772 1.000 0.894 0.710
v 9.670886 2.500000 4.481013 1.000 0.894 0.710
v 9.835443 2.500000 4.658228 1.000 0.894 0.710
v 9.594937 2.500000 5.075949 1.000 0.894 0.710
v 8.822785 2.500000 5.037975 1.000 0.894 0.710
v 8.670886 2.500000 3.329114 1.000 0.894 0.710
v 8.873418 2.500000 2.556962 1.000 0.894 0.710
v 8.670886 2.500000 2.493671 1.000 0.894 0.710
v 14.556962 0.000000 7.759494 1.000 1.000 0.878
v 14.835443 0.000000 7.810127 1.000 1.000 0.878
v 14.746835 0.000000 9.075949 1.000 1.000 0.878
v 12.696203 0.000000 9.746835 1.000 1.000 0.878
v 12.189873 0.000000 9.012658 1.000 1.000 0.878
v 11.987342 0.000000 7.835443 1.000 1.000 0.878
v 12.455696 0.000000 7.417722 1.000 1.000 0.878
v 14.443038 0.000000 7.291139 1.000 1.000 0.878
v 14.556962 2.500000 7.759494 1.000 1.000 0.878
v 14.835443 2.500000 7.810127 1.000 1.000 0.878
v 14.746835 2.500000 9.075949 1.000 1.000 0.878
v 12.696203 2.500000 9.746835 1.000 1.000 0.878
v 12.189873 2.500000 9.012658 1.000 1.000 0.878
v 11.987342 2.500000 7.835443 1.000 1.000 0.878
v 12.455696 2.500000 7.417722 1.000 1.000 0.878
v 14.443038 2.500000 7.291139 1.000 1.000 0.878
v 9.987342 0.000000 7.151899 0.565 0.933 0.565
v 9.759494 0.000000 7.278481 0.565 0.933 0.565
v 8.987342 0.000000 6.962025 0.565 0.933 0.565
v 8.670886 0.000000 6.265823 0.565 0.933 0.565
v 8.873418 0.000000 5.113924 0.565 0.933 0.565
v 9.594937 0.000000 5.088608 0.565 0.933 0.565
v 9.810127 0.000000 4.696203 0.565 0.933 0.565
v 9.645570 0.000000 4.506329 0.565 0.933 0.565
v 9.911392 0.000000 4.316456 0.565 0.933 0.565
v 9.987342 2.500000 7.151899 0.565 0.933 0.565
v 9.759494 2.500000 7.278481 0.565 0.933 0.565
v 8.987342 2.500000 6.962025 0.565 0.933 0.565
v 8.670886 2.500000 6.265823 0.565 0.933 0.565
v 8.873418 2.500000 5.113924 0.565 0.933 0.565
v 9.594937 2.500000 5.088608 0.565 0.933 0.565
v 9.810127 2.500000 4.696203 0.565 0.933 0.565
v 9.645570 2.500000 4.506329 0.565 0.933 0.565
v 9.911392 2.500000 4.316456 0.565 0.933 0.565
v 8.518987 0.000000 14.126582 0.596 0.984 0.596
v 7.696203 0.000000 9.405063 0.596 0.984 0.596
v 13.506329 0.000000 9.949367 0.596 0.984 0.596
v 13.379747 0.000000 14.481013 0.596 0.984 0.596
v 12.759494 0.000000 10.063291 0.596 0.984 0.596
v 9.088608 0.000000 10.518987 0.596 0.984 0.596
v 9.126582 0.000000 14.063291 0.596 0.984 0.596
v 11.746835 0.000000 14.443038 0.596 0.984 0.596
v 4.645570 0.000000 14.392405 0.596 0.984 0.596
v 8.518987 2.500000 14.126582 0.596 0.984 0.596
v 7.696203 2.500000 9.405063 0.596 0.984 0.596
v 13.506329 2.500000 9.949367 0.596 0.984 0.596
v 13.379747 2.500000 14.481013 0.596 0.984 0.596
v 12.759494 2.500000 10.063291 0.596 0.984 0.596
v 9.088608 2.500000 10.518987 0.596 0.984 0.596
v 9.126582 2.500000 14.063291 0.596 0.984 0.596
v 11.746835 2.500000 14.443038 0.596 0.984 0.596
v 4.645570 2.500000 14.392405 0.596 0.984 0.596
v 10.924051 0.000000 15.632911 0.827 0.827 0.827
v 6.607595 0.000000 15.822785 0.827 0.827 0.827
v 4.291139 0.000000 15.544304 0.827 0.827 0.827
v 10.924051 2.500000 15.632911 0.827 0.827 0.827
v 6.607595 2.500000 15.822785 0.827 0.827 0.827
v 4.291139 2.500000 15.544304 0.827 0.827 0.827
v 14.632911 0.000000 3.417722 0.827 0.827 0.827
v 14.556962 0.000000 5.582278 0.827 0.827 0.827
v 14.873418 0.000000 5.886076 0.827 0.827 0.827
v 14.746835 0.000000 6.189873 0.827 0.827 0.827
v 14.493671 0.000000 5.936709 0.827 0.827 0.827
v 14.379747 0.000000 5.012658 0.827 0.827 0.827
v 14.455696 0.000000 3.265823 0.827 0.827 0.827
v 14.632911 2.500000 3.417722 0.827 0.827 0.827
v 14.556962 2.500000 5.582278 0.827 0.827 0.827
v 14.873418 2.500000 5.886076 0.827 0.827 0.827
v 14.746835 2.500000 6.189873 0.827 0.827 0.827
v 14.493671 2.500000 5.936709 0.827 0.827 0.827
v 14.379747 2.500000 5.012658 0.827 0.827 0.827
v 14.455696 2.500000 3.265823 0.827 0.827 0.827
v 11.683544 0.000000 2.075949 0.827 0.827 0.827
v 13.227848 0.000000 2.113924 0.827 0.827 0.827
v 13.379747 0.000000 2.392405 0.827 0.827 0.827
v 11.215190 0.000000 2.455696 0.827 0.827 0.827
v 11.012658 0.000000 2.265823 0.827 0.827 0.827
v 11.683544 2.500000 2.075949 0.827 0.827 0.827
v 13.227848 2.500000 2.113924 0.827 0.827 0.827
v 13.379747 2.500000 2.392405 0.827 0.827 0.827
v 11.215190 2.500000 2.455696 0.827 0.827 0.827
v 11.012658 2.500000 2.265823 0.827 0.827 0.827

usemtl default
f 11 2 1
f 11 3 2
f 3 5 4
f 3 6 5
f 11 6 3
f 11 7 6
f 11 8 7
f 11 9 8
f 9 11 10
f 22 12 13
f 22 13 14
f 14 15 16
f 14 16 17
f 22 14 17
f 22 17 18
f 22 18 19
f 22 19 20
f 20 21 22
f 1 2 13
f 1 13 12
f 2 3 14
f 2 14 13
f 3 4 15
f 3 15 14
f 4 5 16
f 4 16 15
f 5 6 17
f 5 17 16
f 6 7 18
f 6 18 17
f 7 8 19
f 7 19 18
f 8 9 20
f 8 20 19
f 9 10 21
f 9 21 20
f 10 11 22
f 10 22 21
f 11 1 12
f 11 12 22
f 26 24 23
f 24 26 25
f 30 27 28
f 28 29 30
f 23 24 28
f 23 28 27
f 24 25 29
f 24 29 28
f 25 26 30
f 25 30 29
f 26 23 27
f 26 27 30
f 34 32 31
f 32 34 33
f 38 35 36
f 36 37 38
f 31 32 36
f 31 36 35
f 32 33 37
f 32 37 36
f 33 34 38
f 33 38 37
f 34 31 35
f 34 35 38
f 42 40 39
f 40 42 41
f 46 43 44
f 44 45 46
f 39 40 44
f 39 44 43
f 40 41 45
f 40 45 44
f 41 42 46
f 41 46 45
f 42 39 43
f 42 43 46
f 51 48 47
f 51 49 48
f 49 51 50
f 56 52 53
f 56 53 54
f 54 55 56
f 47 48 53
f 47 53 52
f 48 49 54
f 48 54 53
f 49 50 55
f 49 55 54
f 50 51 56
f 50 56 55
f 51 47 52
f 51 52 56
f 67 58 57
f 58 60 59
f 61 63 62
f 61 64 63
f 61 65 64
f 60 65 61
f 60 66 65
f 58 66 60
f 58 67 66
f 78 68 69
f 69 70 71
f 72 73 74
f 72 74 75
f 72 75 76
f 71 72 76
f 71 76 77
f 69 71 77
f 69 77 78
f 57 58 69
f 57 69 68
f 58 59 70
f 58 70 69
f 59 60 71
f 59 71 70
f 60 61 72
f 60 72 71
f 61 62 73
f 61 73 72
f 62 63 74
f 62 74 73
f 63 64 75
f 63 75 74
f 64 65 76
f 64 76 75
f 65 66 77
f 65 77 76
f 66 67 78
f 66 78 77
f 67 57 68
f 67 68 78
f 80 82 81
f 79 82 80
f 79 83 82
f 79 84 83
f 79 85 84
f 87 88 89
f 86 87 89
f 86 89 90
f 86 90 91
f 86 91 92
f 79 80 87
f 79 87 86
f 80 81 88
f 80 88 87
f 81 82 89
f 81 89 88
f 82 83 90
f 82 90 89
f 83 84 91
f 83 91 90
f 84 85 92
f 84 92 91
f 85 79 86
f 85 86 92
f 99 94 93
f 99 95 94
f 95 97 96
f 99 97 95
f 97 99 98
f 106 100 101
f 106 101 102
f 102 103 104
f 106 102 104
f 104 105 106
f 93 94 101
f 93 101 100
f 94 95 102
f 94 102 101
f 95 96 103
f 95 103 102
f 96 97 104
f 96 104 103
f 97 98 105
f 97 105 104
f 98 99 106
f 98 106 105
f 99 93 100
f 99 100 106
f 114 108 107
f 108 110 109
f 114 110 108
f 114 111 110
f 114 112 111
f 112 114 113
f 122 115 116
f 116 117 118
f 122 116 118
f 122 118 119
f 122 119 120
f 120 121 122
f 107 108 116
f 107 116 115
f 108 109 117
f 108 117 116
f 109 110 118
f 109 118 117
f 110 111 119
f 110 119 118
f 111 112 120
f 111 120 119
f 112 113 121
f 112 121 120
f 113 114 122
f 113 122 121
f 114 107 115
f 114 115 122
f 133 124 123
f 124 126 125
f 124 127 126
f 127 129 128
f 127 130 129
f 124 130 127
f 124 131 130
f 124 132 131
f 124 133 132
f 144 134 135
f 135 136 137
f 135 137 138
f 138 139 140
f 138 140 141
f 135 138 141
f 135 141 142
f 135 142 143
f 135 143 144
f 123 124 135
f 123 135 134
f 124 125 136
f 124 136 135
f 125 126 137
f 125 137 136
f 126 127 138
f 126 138 137
f 127 128 139
f 127 139 138
f 128 129 140
f 128 140 139
f 129 130 141
f 129 141 140
f 130 131 142
f 130 142 141
f 131 132 143
f 131 143 142
f 132 133 144
f 132 144 143
f 133 123 134
f 133 134 144
f 145 147 146
f 152 147 145
f 152 148 147
f 152 149 148
f 152 150 149
f 150 152 151
f 153 154 155
f 160 153 155
f 160 155 156
f 160 156 157
f 160 157 158
f 158 159 160
f 145 146 154
f 145 154 153
f 146 147 155
f 146 155 154
f 147 148 156
f 147 156 155
f 148 149 157
f 148 157 156
f 149 150 158
f 149 158 157
f 150 151 159
f 150 159 158
f 151 152 160
f 151 160 159
f 152 145 153
f 152 153 160
f 169 162 161
f 162 164 163
f 162 165 164
f 162 166 165
f 162 167 166
f 169 167 162
f 167 169 168
f 178 170 171
f 171 172 173
f 171 173 174
f 171 174 175
f 171 175 176
f 178 171 176
f 176 177 178
f 161 162 171
f 161 171 170
f 162 163 172
f 162 172 171
f 163 164 173
f 163 173 172
f 164 165 174
f 164 174 173
f 165 166 175
f 165 175 174
f 166 167 176
f 166 176 175
f 167 168 177
f 167 177 176
f 168 169 178
f 168 178 177
f 169 161 170
f 169 170 178
f 181 183 182
f 180 183 181
f 180 184 183
f 179 184 180
f 179 185 184
f 179 186 185
f 179 187 186
f 190 191 192
f 189 190 192
f 189 192 193
f 188 189 193
f 188 193 194
f 188 194 195
f 188 195 196
f 179 180 189
f 179 189 188
f 180 181 190
f 180 190 189
f 181 182 191
f 181 191 190
f 182 183 192
f 182 192 191
f 183 184 193
f 183 193 192
f 184 185 194
f 184 194 193
f 185 186 195
f 185 195 194
f 186 187 196
f 186 196 195
f 187 179 188
f 187 188 196
f 197 199 198
f 200 201 202
f 197 198 201
f 197 201 200
f 198 199 202
f 198 202 201
f 199 197 200
f 199 200 202
f 209 204 203
f 204 206 205
f 204 207 206
f 209 207 204
f 207 209 208
f 216 210 211
f 211 212 213
f 211 213 214
f 216 211 214
f 214 215 216
f 203 204 211
f 203 211 210
f 204 205 212
f 204 212 211
f 205 206 213
f 205 213 212
f 206 207 214
f 206 214 213
f 207 208 215
f 207 215 214
f 208 209 216
f 208 216 215
f 209 203 210
f 209 210 216
f 221 218 217
f 221 219 218
f 219 221 220
f 226 222 223
f 226 223 224
f 224 225 226
f 217 218 223
f 217 223 222
f 218 219 224
f 218 224 223
f 219 220 225
f 219 225 224
f 220 221 226
f 220 226 225
f 221 217 222
f 221 222 226
