# Floorplan 3D Model
# Vertices: 196
# Faces: 328
mtllib Capture d’écran 2025-06-05 224143.mtl

v 7.528662 0.000000 3.668790 1.000 0.714 0.757
v 7.121019 0.000000 4.980892 1.000 0.714 0.757
v 3.464968 0.000000 4.305732 1.000 0.714 0.757
v 3.656051 0.000000 3.057325 1.000 0.714 0.757
v 4.433121 0.000000 2.484076 1.000 0.714 0.757
v 5.503185 0.000000 2.815287 1.000 0.714 0.757
v 5.707006 0.000000 2.420382 1.000 0.714 0.757
v 7.299363 0.000000 2.585987 1.000 0.714 0.757
v 7.528662 2.500000 3.668790 1.000 0.714 0.757
v 7.121019 2.500000 4.980892 1.000 0.714 0.757
v 3.464968 2.500000 4.305732 1.000 0.714 0.757
v 3.656051 2.500000 3.057325 1.000 0.714 0.757
v 4.433121 2.500000 2.484076 1.000 0.714 0.757
v 5.503185 2.500000 2.815287 1.000 0.714 0.757
v 5.707006 2.500000 2.420382 1.000 0.714 0.757
v 7.299363 2.500000 2.585987 1.000 0.714 0.757
v 8.560510 0.000000 10.394904 1.000 0.784 0.486
v 8.560510 0.000000 14.254777 1.000 0.784 0.486
v 4.675159 0.000000 14.254777 1.000 0.784 0.486
v 4.675159 0.000000 10.394904 1.000 0.784 0.486
v 8.560510 2.500000 10.394904 1.000 0.784 0.486
v 8.560510 2.500000 14.254777 1.000 0.784 0.486
v 4.675159 2.500000 14.254777 1.000 0.784 0.486
v 4.675159 2.500000 10.394904 1.000 0.784 0.486
v 13.159236 0.000000 14.445860 1.000 0.784 0.486
v 9.197452 0.000000 14.152866 1.000 0.784 0.486
v 9.197452 0.000000 10.496815 1.000 0.784 0.486
v 13.159236 0.000000 10.343949 1.000 0.784 0.486
v 13.159236 2.500000 14.445860 1.000 0.784 0.486
v 9.197452 2.500000 14.152866 1.000 0.784 0.486
v 9.197452 2.500000 10.496815 1.000 0.784 0.486
v 13.159236 2.500000 10.343949 1.000 0.784 0.486
v 14.458599 0.000000 7.159236 1.000 0.784 0.486
v 10.254777 0.000000 7.477707 1.000 0.784 0.486
v 10.101911 0.000000 2.573248 1.000 0.784 0.486
v 14.331210 0.000000 2.445860 1.000 0.784 0.486
v 14.458599 2.500000 7.159236 1.000 0.784 0.486
v 10.254777 2.500000 7.477707 1.000 0.784 0.486
v 10.101911 2.500000 2.573248 1.000 0.784 0.486
v 14.331210 2.500000 2.445860 1.000 0.784 0.486
v 11.388535 0.000000 15.273885 0.678 0.847 0.902
v 4.407643 0.000000 15.439490 0.678 0.847 0.902
v 4.407643 0.000000 14.878981 0.678 0.847 0.902
v 11.388535 0.000000 14.751592 0.678 0.847 0.902
v 11.388535 2.500000 15.273885 0.678 0.847 0.902
v 4.407643 2.500000 15.439490 0.678 0.847 0.902
v 4.407643 2.500000 14.878981 0.678 0.847 0.902
v 11.388535 2.500000 14.751592 0.678 0.847 0.902
v 8.955414 0.000000 2.598726 0.678 0.847 0.902
v 8.955414 0.000000 6.878981 0.678 0.847 0.902
v 12.216561 0.000000 7.515924 0.678 0.847 0.902
v 12.802548 0.000000 9.808917 0.678 0.847 0.902
v 15.554140 0.000000 7.031847 0.678 0.847 0.902
v 14.535032 0.000000 14.394904 0.678 0.847 0.902
v 13.872611 0.000000 10.101911 0.678 0.847 0.902
v 7.859873 0.000000 9.872611 0.678 0.847 0.902
v 7.388535 0.000000 2.598726 0.678 0.847 0.902
v 8.955414 2.500000 2.598726 0.678 0.847 0.902
v 8.955414 2.500000 6.878981 0.678 0.847 0.902
v 12.216561 2.500000 7.515924 0.678 0.847 0.902
v 12.802548 2.500000 9.808917 0.678 0.847 0.902
v 15.554140 2.500000 7.031847 0.678 0.847 0.902
v 14.535032 2.500000 14.394904 0.678 0.847 0.902
v 13.872611 2.500000 10.101911 0.678 0.847 0.902
v 7.859873 2.500000 9.872611 0.678 0.847 0.902
v 7.388535 2.500000 2.598726 0.678 0.847 0.902
v 3.643312 0.000000 3.057325 0.678 0.847 0.902
v 3.452229 0.000000 4.305732 0.678 0.847 0.902
v 6.038217 0.000000 4.993631 0.678 0.847 0.902
v 2.751592 0.000000 6.012739 0.678 0.847 0.902
v 2.127389 0.000000 4.636943 0.678 0.847 0.902
v 2.280255 0.000000 2.764331 0.678 0.847 0.902
v 4.369427 0.000000 2.484076 0.678 0.847 0.902
v 3.643312 2.500000 3.057325 0.678 0.847 0.902
v 3.452229 2.500000 4.305732 0.678 0.847 0.902
v 6.038217 2.500000 4.993631 0.678 0.847 0.902
v 2.751592 2.500000 6.012739 0.678 0.847 0.902
v 2.127389 2.500000 4.636943 0.678 0.847 0.902
v 2.280255 2.500000 2.764331 0.678 0.847 0.902
v 4.369427 2.500000 2.484076 0.678 0.847 0.902
v 14.611465 0.000000 15.312102 1.000 0.894 0.710
v 14.292994 0.000000 15.630573 1.000 0.894 0.710
v 11.363057 0.000000 15.477707 1.000 0.894 0.710
v 11.363057 0.000000 14.713376 1.000 0.894 0.710
v 11.821656 0.000000 14.458599 1.000 0.894 0.710
v 13.414013 0.000000 14.585987 1.000 0.894 0.710
v 13.732484 0.000000 14.203822 1.000 0.894 0.710
v 14.611465 0.000000 14.433121 1.000 0.894 0.710
v 14.611465 2.500000 15.312102 1.000 0.894 0.710
v 14.292994 2.500000 15.630573 1.000 0.894 0.710
v 11.363057 2.500000 15.477707 1.000 0.894 0.710
v 11.363057 2.500000 14.713376 1.000 0.894 0.710
v 11.821656 2.500000 14.458599 1.000 0.894 0.710
v 13.414013 2.500000 14.585987 1.000 0.894 0.710
v 13.732484 2.500000 14.203822 1.000 0.894 0.710
v 14.611465 2.500000 14.433121 1.000 0.894 0.710
v 4.662420 0.000000 10.445860 1.000 0.894 0.710
v 4.738854 0.000000 14.394904 1.000 0.894 0.710
v 4.394904 0.000000 15.375796 1.000 0.894 0.710
v 3.847134 0.000000 15.566879 1.000 0.894 0.710
v 3.261146 0.000000 15.312102 1.000 0.894 0.710
v 3.261146 0.000000 10.585987 1.000 0.894 0.710
v 3.579618 0.000000 10.242038 1.000 0.894 0.710
v 4.662420 2.500000 10.445860 1.000 0.894 0.710
v 4.738854 2.500000 14.394904 1.000 0.894 0.710
v 4.394904 2.500000 15.375796 1.000 0.894 0.710
v 3.847134 2.500000 15.566879 1.000 0.894 0.710
v 3.261146 2.500000 15.312102 1.000 0.894 0.710
v 3.261146 2.500000 10.585987 1.000 0.894 0.710
v 3.579618 2.500000 10.242038 1.000 0.894 0.710
v 10.089172 0.000000 2.611465 1.000 0.894 0.710
v 9.961783 0.000000 4.993631 1.000 0.894 0.710
v 9.949045 0.000000 4.394904 1.000 0.894 0.710
v 9.656051 0.000000 5.070064 1.000 0.894 0.710
v 8.968153 0.000000 5.070064 1.000 0.894 0.710
v 8.878981 0.000000 2.445860 1.000 0.894 0.710
v 10.089172 2.500000 2.611465 1.000 0.894 0.710
v 9.961783 2.500000 4.993631 1.000 0.894 0.710
v 9.949045 2.500000 4.394904 1.000 0.894 0.710
v 9.656051 2.500000 5.070064 1.000 0.894 0.710
v 8.968153 2.500000 5.070064 1.000 0.894 0.710
v 8.878981 2.500000 2.445860 1.000 0.894 0.710
v 14.802548 0.000000 7.783439 1.000 1.000 0.878
v 12.802548 0.000000 9.796178 1.000 1.000 0.878
v 12.280255 0.000000 7.707006 1.000 1.000 0.878
v 12.662420 0.000000 7.401274 1.000 1.000 0.878
v 14.611465 0.000000 7.401274 1.000 1.000 0.878
v 14.802548 2.500000 7.783439 1.000 1.000 0.878
v 12.802548 2.500000 9.796178 1.000 1.000 0.878
v 12.280255 2.500000 7.707006 1.000 1.000 0.878
v 12.662420 2.500000 7.401274 1.000 1.000 0.878
v 14.611465 2.500000 7.401274 1.000 1.000 0.878
v 10.063694 0.000000 7.095541 0.565 0.933 0.565
v 8.993631 0.000000 6.891720 0.565 0.933 0.565
v 8.968153 0.000000 5.082803 0.565 0.933 0.565
v 9.681529 0.000000 5.082803 0.565 0.933 0.565
v 9.949045 0.000000 4.420382 0.565 0.933 0.565
v 9.961783 0.000000 5.006369 0.565 0.933 0.565
v 10.063694 0.000000 4.356688 0.565 0.933 0.565
v 10.063694 2.500000 7.095541 0.565 0.933 0.565
v 8.993631 2.500000 6.891720 0.565 0.933 0.565
v 8.968153 2.500000 5.082803 0.565 0.933 0.565
v 9.681529 2.500000 5.082803 0.565 0.933 0.565
v 9.949045 2.500000 4.420382 0.565 0.933 0.565
v 9.961783 2.500000 5.006369 0.565 0.933 0.565
v 10.063694 2.500000 4.356688 0.565 0.933 0.565
v 8.573248 0.000000 14.254777 0.596 0.984 0.596
v 8.573248 0.000000 10.394904 0.596 0.984 0.596
v 7.745223 0.000000 9.515924 0.596 0.984 0.596
v 13.605096 0.000000 10.101911 0.596 0.984 0.596
v 13.439490 0.000000 14.535032 0.596 0.984 0.596
v 12.777070 0.000000 10.127389 0.596 0.984 0.596
v 9.184713 0.000000 10.496815 0.596 0.984 0.596
v 9.184713 0.000000 14.152866 0.596 0.984 0.596
v 11.732484 0.000000 14.496815 0.596 0.984 0.596
v 4.713376 0.000000 14.509554 0.596 0.984 0.596
v 8.573248 2.500000 14.254777 0.596 0.984 0.596
v 8.573248 2.500000 10.394904 0.596 0.984 0.596
v 7.745223 2.500000 9.515924 0.596 0.984 0.596
v 13.605096 2.500000 10.101911 0.596 0.984 0.596
v 13.439490 2.500000 14.535032 0.596 0.984 0.596
v 12.777070 2.500000 10.127389 0.596 0.984 0.596
v 9.184713 2.500000 10.496815 0.596 0.984 0.596
v 9.184713 2.500000 14.152866 0.596 0.984 0.596
v 11.732484 2.500000 14.496815 0.596 0.984 0.596
v 4.713376 2.500000 14.509554 0.596 0.984 0.596
v 10.993631 0.000000 15.732484 0.827 0.827 0.827
v 6.649682 0.000000 15.923567 0.827 0.827 0.827
v 4.318471 0.000000 15.643312 0.827 0.827 0.827
v 10.993631 2.500000 15.732484 0.827 0.827 0.827
v 6.649682 2.500000 15.923567 0.827 0.827 0.827
v 4.318471 2.500000 15.643312 0.827 0.827 0.827
v 14.726115 0.000000 3.439490 0.827 0.827 0.827
v 14.649682 0.000000 5.617834 0.827 0.827 0.827
v 14.968153 0.000000 5.923567 0.827 0.827 0.827
v 14.840764 0.000000 6.229299 0.827 0.827 0.827
v 14.585987 0.000000 5.974522 0.827 0.827 0.827
v 14.471338 0.000000 5.044586 0.827 0.827 0.827
v 14.547771 0.000000 3.286624 0.827 0.827 0.827
v 14.726115 2.500000 3.439490 0.827 0.827 0.827
v 14.649682 2.500000 5.617834 0.827 0.827 0.827
v 14.968153 2.500000 5.923567 0.827 0.827 0.827
v 14.840764 2.500000 6.229299 0.827 0.827 0.827
v 14.585987 2.500000 5.974522 0.827 0.827 0.827
v 14.471338 2.500000 5.044586 0.827 0.827 0.827
v 14.547771 2.500000 3.286624 0.827 0.827 0.827
v 11.757962 0.000000 2.089172 0.827 0.827 0.827
v 13.312102 0.000000 2.127389 0.827 0.827 0.827
v 13.464968 0.000000 2.407643 0.827 0.827 0.827
v 11.286624 0.000000 2.471338 0.827 0.827 0.827
v 11.082803 0.000000 2.280255 0.827 0.827 0.827
v 11.757962 2.500000 2.089172 0.827 0.827 0.827
v 13.312102 2.500000 2.127389 0.827 0.827 0.827
v 13.464968 2.500000 2.407643 0.827 0.827 0.827
v 11.286624 2.500000 2.471338 0.827 0.827 0.827
v 11.082803 2.500000 2.280255 0.827 0.827 0.827

usemtl default
f 8 2 1
f 8 3 2
f 8 4 3
f 4 6 5
f 8 6 4
f 6 8 7
f 16 9 10
f 16 10 11
f 16 11 12
f 12 13 14
f 16 12 14
f 14 15 16
f 1 2 10
f 1 10 9
f 2 3 11
f 2 11 10
f 3 4 12
f 3 12 11
f 4 5 13
f 4 13 12
f 5 6 14
f 5 14 13
f 6 7 15
f 6 15 14
f 7 8 16
f 7 16 15
f 8 1 9
f 8 9 16
f 20 18 17
f 18 20 19
f 24 21 22
f 22 23 24
f 17 18 22
f 17 22 21
f 18 19 23
f 18 23 22
f 19 20 24
f 19 24 23
f 20 17 21
f 20 21 24
f 28 26 25
f 26 28 27
f 32 29 30
f 30 31 32
f 25 26 30
f 25 30 29
f 26 27 31
f 26 31 30
f 27 28 32
f 27 32 31
f 28 25 29
f 28 29 32
f 36 34 33
f 34 36 35
f 40 37 38
f 38 39 40
f 33 34 38
f 33 38 37
f 34 35 39
f 34 39 38
f 35 36 40
f 35 40 39
f 36 33 37
f 36 37 40
f 44 42 41
f 42 44 43
f 48 45 46
f 46 47 48
f 41 42 46
f 41 46 45
f 42 43 47
f 42 47 46
f 43 44 48
f 43 48 47
f 44 41 45
f 44 45 48
f 57 50 49
f 50 52 51
f 53 55 54
f 52 55 53
f 52 56 55
f 50 56 52
f 50 57 56
f 66 58 59
f 59 60 61
f 62 63 64
f 61 62 64
f 61 64 65
f 59 61 65
f 59 65 66
f 49 50 59
f 49 59 58
f 50 51 60
f 50 60 59
f 51 52 61
f 51 61 60
f 52 53 62
f 52 62 61
f 53 54 63
f 53 63 62
f 54 55 64
f 54 64 63
f 55 56 65
f 55 65 64
f 56 57 66
f 56 66 65
f 57 49 58
f 57 58 66
f 68 70 69
f 67 70 68
f 67 71 70
f 67 72 71
f 67 73 72
f 75 76 77
f 74 75 77
f 74 77 78
f 74 78 79
f 74 79 80
f 67 68 75
f 67 75 74
f 68 69 76
f 68 76 75
f 69 70 77
f 69 77 76
f 70 71 78
f 70 78 77
f 71 72 79
f 71 79 78
f 72 73 80
f 72 80 79
f 73 67 74
f 73 74 80
f 88 82 81
f 88 83 82
f 83 85 84
f 83 86 85
f 88 86 83
f 86 88 87
f 96 89 90
f 96 90 91
f 91 92 93
f 91 93 94
f 96 91 94
f 94 95 96
f 81 82 90
f 81 90 89
f 82 83 91
f 82 91 90
f 83 84 92
f 83 92 91
f 84 85 93
f 84 93 92
f 85 86 94
f 85 94 93
f 86 87 95
f 86 95 94
f 87 88 96
f 87 96 95
f 88 81 89
f 88 89 96
f 103 98 97
f 103 99 98
f 103 100 99
f 103 101 100
f 101 103 102
f 110 104 105
f 110 105 106
f 110 106 107
f 110 107 108
f 108 109 110
f 97 98 105
f 97 105 104
f 98 99 106
f 98 106 105
f 99 100 107
f 99 107 106
f 100 101 108
f 100 108 107
f 101 102 109
f 101 109 108
f 102 103 110
f 102 110 109
f 103 97 104
f 103 104 110
f 111 113 112
f 116 113 111
f 116 114 113
f 114 116 115
f 117 118 119
f 122 117 119
f 122 119 120
f 120 121 122
f 111 112 118
f 111 118 117
f 112 113 119
f 112 119 118
f 113 114 120
f 113 120 119
f 114 115 121
f 114 121 120
f 115 116 122
f 115 122 121
f 116 111 117
f 116 117 122
f 127 124 123
f 127 125 124
f 125 127 126
f 132 128 129
f 132 129 130
f 130 131 132
f 123 124 129
f 123 129 128
f 124 125 130
f 124 130 129
f 125 126 131
f 125 131 130
f 126 127 132
f 126 132 131
f 127 123 128
f 127 128 132
f 133 135 134
f 133 136 135
f 136 138 137
f 133 138 136
f 133 139 138
f 140 141 142
f 140 142 143
f 143 144 145
f 140 143 145
f 140 145 146
f 133 134 141
f 133 141 140
f 134 135 142
f 134 142 141
f 135 136 143
f 135 143 142
f 136 137 144
f 136 144 143
f 137 138 145
f 137 145 144
f 138 139 146
f 138 146 145
f 139 133 140
f 139 140 146
f 150 152 151
f 149 152 150
f 148 152 149
f 148 153 152
f 147 153 148
f 147 154 153
f 147 155 154
f 147 156 155
f 160 161 162
f 159 160 162
f 158 159 162
f 158 162 163
f 157 158 163
f 157 163 164
f 157 164 165
f 157 165 166
f 147 148 158
f 147 158 157
f 148 149 159
f 148 159 158
f 149 150 160
f 149 160 159
f 150 151 161
f 150 161 160
f 151 152 162
f 151 162 161
f 152 153 163
f 152 163 162
f 153 154 164
f 153 164 163
f 154 155 165
f 154 165 164
f 155 156 166
f 155 166 165
f 156 147 157
f 156 157 166
f 167 169 168
f 170 171 172
f 167 168 171
f 167 171 170
f 168 169 172
f 168 172 171
f 169 167 170
f 169 170 172
f 179 174 173
f 174 176 175
f 174 177 176
f 179 177 174
f 177 179 178
f 186 180 181
f 181 182 183
f 181 183 184
f 186 181 184
f 184 185 186
f 173 174 181
f 173 181 180
f 174 175 182
f 174 182 181
f 175 176 183
f 175 183 182
f 176 177 184
f 176 184 183
f 177 178 185
f 177 185 184
f 178 179 186
f 178 186 185
f 179 173 180
f 179 180 186
f 191 188 187
f 191 189 188
f 189 191 190
f 196 192 193
f 196 193 194
f 194 195 196
f 187 188 193
f 187 193 192
f 188 189 194
f 188 194 193
f 189 190 195
f 189 195 194
f 190 191 196
f 190 196 195
f 191 187 192
f 191 192 196
