# Floorplan 3D Model
# Vertices: 150
# Faces: 252
mtllib Capture d’écran 2025-06-05 224217.mtl

v 13.572327 0.000000 8.314465 1.000 0.784 0.486
v 14.062893 0.000000 9.018868 1.000 0.784 0.486
v 14.062893 0.000000 9.446541 1.000 0.784 0.486
v 12.603774 0.000000 9.446541 1.000 0.784 0.486
v 12.591195 0.000000 9.270440 1.000 0.784 0.486
v 12.176101 0.000000 9.044025 1.000 0.784 0.486
v 12.339623 0.000000 8.767296 1.000 0.784 0.486
v 12.339623 0.000000 8.314465 1.000 0.784 0.486
v 13.572327 2.500000 8.314465 1.000 0.784 0.486
v 14.062893 2.500000 9.018868 1.000 0.784 0.486
v 14.062893 2.500000 9.446541 1.000 0.784 0.486
v 12.603774 2.500000 9.446541 1.000 0.784 0.486
v 12.591195 2.500000 9.270440 1.000 0.784 0.486
v 12.176101 2.500000 9.044025 1.000 0.784 0.486
v 12.339623 2.500000 8.767296 1.000 0.784 0.486
v 12.339623 2.500000 8.314465 1.000 0.784 0.486
v 7.924528 0.000000 2.050314 1.000 0.784 0.486
v 7.433962 0.000000 6.100629 1.000 0.784 0.486
v 3.320755 0.000000 6.100629 1.000 0.784 0.486
v 3.320755 0.000000 2.050314 1.000 0.784 0.486
v 7.924528 2.500000 2.050314 1.000 0.784 0.486
v 7.433962 2.500000 6.100629 1.000 0.784 0.486
v 3.320755 2.500000 6.100629 1.000 0.784 0.486
v 3.320755 2.500000 2.050314 1.000 0.784 0.486
v 14.138365 0.000000 7.207547 1.000 0.784 0.486
v 11.144654 0.000000 7.207547 1.000 0.784 0.486
v 10.339623 0.000000 6.364780 1.000 0.784 0.486
v 9.660377 0.000000 2.113208 1.000 0.784 0.486
v 14.138365 0.000000 1.974843 1.000 0.784 0.486
v 14.138365 2.500000 7.207547 1.000 0.784 0.486
v 11.144654 2.500000 7.207547 1.000 0.784 0.486
v 10.339623 2.500000 6.364780 1.000 0.784 0.486
v 9.660377 2.500000 2.113208 1.000 0.784 0.486
v 14.138365 2.500000 1.974843 1.000 0.784 0.486
v 10.880503 0.000000 6.968553 0.678 0.847 0.902
v 11.144654 0.000000 7.220126 0.678 0.847 0.902
v 13.610063 0.000000 7.584906 0.678 0.847 0.902
v 13.610063 0.000000 8.339623 0.678 0.847 0.902
v 12.339623 0.000000 8.301887 0.678 0.847 0.902
v 12.163522 0.000000 9.044025 0.678 0.847 0.902
v 12.440252 0.000000 9.459119 0.678 0.847 0.902
v 10.025157 0.000000 9.459119 0.678 0.847 0.902
v 9.584906 0.000000 7.861635 0.678 0.847 0.902
v 10.880503 2.500000 6.968553 0.678 0.847 0.902
v 11.144654 2.500000 7.220126 0.678 0.847 0.902
v 13.610063 2.500000 7.584906 0.678 0.847 0.902
v 13.610063 2.500000 8.339623 0.678 0.847 0.902
v 12.339623 2.500000 8.301887 0.678 0.847 0.902
v 12.163522 2.500000 9.044025 0.678 0.847 0.902
v 12.440252 2.500000 9.459119 0.678 0.847 0.902
v 10.025157 2.500000 9.459119 0.678 0.847 0.902
v 9.584906 2.500000 7.861635 0.678 0.847 0.902
v 3.484277 0.000000 7.308176 0.678 0.847 0.902
v 7.547170 0.000000 7.547170 0.678 0.847 0.902
v 7.974843 0.000000 6.628931 0.678 0.847 0.902
v 9.169811 0.000000 8.264151 0.678 0.847 0.902
v 8.528302 0.000000 9.471698 0.678 0.847 0.902
v 3.396226 0.000000 9.471698 0.678 0.847 0.902
v 3.245283 0.000000 6.616352 0.678 0.847 0.902
v 3.484277 2.500000 7.308176 0.678 0.847 0.902
v 7.547170 2.500000 7.547170 0.678 0.847 0.902
v 7.974843 2.500000 6.628931 0.678 0.847 0.902
v 9.169811 2.500000 8.264151 0.678 0.847 0.902
v 8.528302 2.500000 9.471698 0.678 0.847 0.902
v 3.396226 2.500000 9.471698 0.678 0.847 0.902
v 3.245283 2.500000 6.616352 0.678 0.847 0.902
v 9.584906 0.000000 2.591195 0.678 0.847 0.902
v 8.704403 0.000000 3.106918 0.678 0.847 0.902
v 8.452830 0.000000 5.647799 0.678 0.847 0.902
v 8.088050 0.000000 6.000000 0.678 0.847 0.902
v 7.723270 0.000000 4.729560 0.678 0.847 0.902
v 7.886792 0.000000 1.974843 0.678 0.847 0.902
v 9.584906 0.000000 1.974843 0.678 0.847 0.902
v 9.584906 2.500000 2.591195 0.678 0.847 0.902
v 8.704403 2.500000 3.106918 0.678 0.847 0.902
v 8.452830 2.500000 5.647799 0.678 0.847 0.902
v 8.088050 2.500000 6.000000 0.678 0.847 0.902
v 7.723270 2.500000 4.729560 0.678 0.847 0.902
v 7.886792 2.500000 1.974843 0.678 0.847 0.902
v 9.584906 2.500000 1.974843 0.678 0.847 0.902
v 7.320755 0.000000 6.113208 1.000 0.894 0.710
v 7.320755 0.000000 7.257862 1.000 0.894 0.710
v 3.471698 0.000000 7.257862 1.000 0.894 0.710
v 3.371069 0.000000 6.113208 1.000 0.894 0.710
v 7.320755 2.500000 6.113208 1.000 0.894 0.710
v 7.320755 2.500000 7.257862 1.000 0.894 0.710
v 3.471698 2.500000 7.257862 1.000 0.894 0.710
v 3.371069 2.500000 6.113208 1.000 0.894 0.710
v 10.327044 0.000000 6.993711 1.000 0.894 0.710
v 9.572327 0.000000 7.861635 1.000 0.894 0.710
v 10.012579 0.000000 9.471698 1.000 0.894 0.710
v 8.880503 0.000000 9.471698 1.000 0.894 0.710
v 9.207547 0.000000 7.861635 1.000 0.894 0.710
v 8.716981 0.000000 3.106918 1.000 0.894 0.710
v 9.685535 0.000000 2.591195 1.000 0.894 0.710
v 10.327044 2.500000 6.993711 1.000 0.894 0.710
v 9.572327 2.500000 7.861635 1.000 0.894 0.710
v 10.012579 2.500000 9.471698 1.000 0.894 0.710
v 8.880503 2.500000 9.471698 1.000 0.894 0.710
v 9.207547 2.500000 7.861635 1.000 0.894 0.710
v 8.716981 2.500000 3.106918 1.000 0.894 0.710
v 9.685535 2.500000 2.591195 1.000 0.894 0.710
v 14.276730 0.000000 7.635220 0.941 1.000 0.941
v 14.276730 0.000000 9.182390 0.941 1.000 0.941
v 14.075472 0.000000 9.358491 0.941 1.000 0.941
v 14.075472 0.000000 9.018868 0.941 1.000 0.941
v 13.622642 0.000000 8.377358 0.941 1.000 0.941
v 13.622642 0.000000 7.635220 0.941 1.000 0.941
v 14.276730 2.500000 7.635220 0.941 1.000 0.941
v 14.276730 2.500000 9.182390 0.941 1.000 0.941
v 14.075472 2.500000 9.358491 0.941 1.000 0.941
v 14.075472 2.500000 9.018868 0.941 1.000 0.941
v 13.622642 2.500000 8.377358 0.941 1.000 0.941
v 13.622642 2.500000 7.635220 0.941 1.000 0.941
v 3.333333 0.000000 9.446541 0.827 0.827 0.827
v 2.993711 0.000000 9.471698 0.827 0.827 0.827
v 2.968553 0.000000 8.893082 0.827 0.827 0.827
v 2.855346 0.000000 8.691824 0.827 0.827 0.827
v 2.930818 0.000000 7.660377 0.827 0.827 0.827
v 3.270440 0.000000 7.572327 0.827 0.827 0.827
v 3.333333 2.500000 9.446541 0.827 0.827 0.827
v 2.993711 2.500000 9.471698 0.827 0.827 0.827
v 2.968553 2.500000 8.893082 0.827 0.827 0.827
v 2.855346 2.500000 8.691824 0.827 0.827 0.827
v 2.930818 2.500000 7.660377 0.827 0.827 0.827
v 3.270440 2.500000 7.572327 0.827 0.827 0.827
v 14.528302 0.000000 3.056604 0.827 0.827 0.827
v 14.352201 0.000000 5.207547 0.827 0.827 0.827
v 14.528302 0.000000 6.138365 0.827 0.827 0.827
v 14.251572 0.000000 6.327044 0.827 0.827 0.827
v 14.314465 0.000000 2.981132 0.827 0.827 0.827
v 14.528302 2.500000 3.056604 0.827 0.827 0.827
v 14.352201 2.500000 5.207547 0.827 0.827 0.827
v 14.528302 2.500000 6.138365 0.827 0.827 0.827
v 14.251572 2.500000 6.327044 0.827 0.827 0.827
v 14.314465 2.500000 2.981132 0.827 0.827 0.827
v 3.270440 0.000000 3.031447 0.827 0.827 0.827
v 3.232704 0.000000 5.245283 0.827 0.827 0.827
v 2.968553 0.000000 5.157233 0.827 0.827 0.827
v 2.855346 0.000000 4.150943 0.827 0.827 0.827
v 2.893082 0.000000 3.169811 0.827 0.827 0.827
v 2.993711 0.000000 2.955975 0.827 0.827 0.827
v 3.169811 0.000000 2.905660 0.827 0.827 0.827
v 3.270440 2.500000 3.031447 0.827 0.827 0.827
v 3.232704 2.500000 5.245283 0.827 0.827 0.827
v 2.968553 2.500000 5.157233 0.827 0.827 0.827
v 2.855346 2.500000 4.150943 0.827 0.827 0.827
v 2.893082 2.500000 3.169811 0.827 0.827 0.827
v 2.993711 2.500000 2.955975 0.827 0.827 0.827
v 3.169811 2.500000 2.905660 0.827 0.827 0.827

usemtl default
f 8 2 1
f 8 3 2
f 3 5 4
f 8 5 3
f 5 7 6
f 5 8 7
f 16 9 10
f 16 10 11
f 11 12 13
f 16 11 13
f 13 14 15
f 13 15 16
f 1 2 10
f 1 10 9
f 2 3 11
f 2 11 10
f 3 4 12
f 3 12 11
f 4 5 13
f 4 13 12
f 5 6 14
f 5 14 13
f 6 7 15
f 6 15 14
f 7 8 16
f 7 16 15
f 8 1 9
f 8 9 16
f 20 18 17
f 18 20 19
f 24 21 22
f 22 23 24
f 17 18 22
f 17 22 21
f 18 19 23
f 18 23 22
f 19 20 24
f 19 24 23
f 20 17 21
f 20 21 24
f 29 26 25
f 29 27 26
f 27 29 28
f 34 30 31
f 34 31 32
f 32 33 34
f 25 26 31
f 25 31 30
f 26 27 32
f 26 32 31
f 27 28 33
f 27 33 32
f 28 29 34
f 28 34 33
f 29 25 30
f 29 30 34
f 43 36 35
f 43 37 36
f 43 38 37
f 43 39 38
f 43 40 39
f 43 41 40
f 41 43 42
f 52 44 45
f 52 45 46
f 52 46 47
f 52 47 48
f 52 48 49
f 52 49 50
f 50 51 52
f 35 36 45
f 35 45 44
f 36 37 46
f 36 46 45
f 37 38 47
f 37 47 46
f 38 39 48
f 38 48 47
f 39 40 49
f 39 49 48
f 40 41 50
f 40 50 49
f 41 42 51
f 41 51 50
f 42 43 52
f 42 52 51
f 43 35 44
f 43 44 52
f 54 56 55
f 53 56 54
f 53 57 56
f 53 58 57
f 53 59 58
f 61 62 63
f 60 61 63
f 60 63 64
f 60 64 65
f 60 65 66
f 53 54 61
f 53 61 60
f 54 55 62
f 54 62 61
f 55 56 63
f 55 63 62
f 56 57 64
f 56 64 63
f 57 58 65
f 57 65 64
f 58 59 66
f 58 66 65
f 59 53 60
f 59 60 66
f 73 68 67
f 68 70 69
f 68 71 70
f 68 72 71
f 68 73 72
f 80 74 75
f 75 76 77
f 75 77 78
f 75 78 79
f 75 79 80
f 67 68 75
f 67 75 74
f 68 69 76
f 68 76 75
f 69 70 77
f 69 77 76
f 70 71 78
f 70 78 77
f 71 72 79
f 71 79 78
f 72 73 80
f 72 80 79
f 73 67 74
f 73 74 80
f 84 82 81
f 82 84 83
f 88 85 86
f 86 87 88
f 81 82 86
f 81 86 85
f 82 83 87
f 82 87 86
f 83 84 88
f 83 88 87
f 84 81 85
f 84 85 88
f 95 90 89
f 90 92 91
f 90 93 92
f 95 93 90
f 93 95 94
f 102 96 97
f 97 98 99
f 97 99 100
f 102 97 100
f 100 101 102
f 89 90 97
f 89 97 96
f 90 91 98
f 90 98 97
f 91 92 99
f 91 99 98
f 92 93 100
f 92 100 99
f 93 94 101
f 93 101 100
f 94 95 102
f 94 102 101
f 95 89 96
f 95 96 102
f 108 104 103
f 104 106 105
f 108 106 104
f 106 108 107
f 114 109 110
f 110 111 112
f 114 110 112
f 112 113 114
f 103 104 110
f 103 110 109
f 104 105 111
f 104 111 110
f 105 106 112
f 105 112 111
f 106 107 113
f 106 113 112
f 107 108 114
f 107 114 113
f 108 103 109
f 108 109 114
f 120 116 115
f 120 117 116
f 120 118 117
f 118 120 119
f 126 121 122
f 126 122 123
f 126 123 124
f 124 125 126
f 115 116 122
f 115 122 121
f 116 117 123
f 116 123 122
f 117 118 124
f 117 124 123
f 118 119 125
f 118 125 124
f 119 120 126
f 119 126 125
f 120 115 121
f 120 121 126
f 131 128 127
f 128 130 129
f 128 131 130
f 136 132 133
f 133 134 135
f 133 135 136
f 127 128 133
f 127 133 132
f 128 129 134
f 128 134 133
f 129 130 135
f 129 135 134
f 130 131 136
f 130 136 135
f 131 127 132
f 131 132 136
f 143 138 137
f 143 139 138
f 143 140 139
f 143 141 140
f 141 143 142
f 150 144 145
f 150 145 146
f 150 146 147
f 150 147 148
f 148 149 150
f 137 138 145
f 137 145 144
f 138 139 146
f 138 146 145
f 139 140 147
f 139 147 146
f 140 141 148
f 140 148 147
f 141 142 149
f 141 149 148
f 142 143 150
f 142 150 149
f 143 137 144
f 143 144 150
