# Floorplan 3D Model
# Vertices: 154
# Faces: 244
mtllib Capture d’écran 2025-06-05 224143.mtl

v 7.491028 0.000000 2.884176 1.000 0.714 0.757
v 7.491028 0.000000 4.528548 1.000 0.714 0.757
v 4.084829 0.000000 4.528548 1.000 0.714 0.757
v 4.084829 0.000000 2.884176 1.000 0.714 0.757
v 7.491028 2.500000 2.884176 1.000 0.714 0.757
v 7.491028 2.500000 4.528548 1.000 0.714 0.757
v 4.084829 2.500000 4.528548 1.000 0.714 0.757
v 4.084829 2.500000 2.884176 1.000 0.714 0.757
v 13.481240 0.000000 10.753670 1.000 0.784 0.486
v 13.494290 0.000000 14.512235 1.000 0.784 0.486
v 9.422512 0.000000 14.499184 1.000 0.784 0.486
v 9.422512 0.000000 10.753670 1.000 0.784 0.486
v 13.481240 2.500000 10.753670 1.000 0.784 0.486
v 13.494290 2.500000 14.512235 1.000 0.784 0.486
v 9.422512 2.500000 14.499184 1.000 0.784 0.486
v 9.422512 2.500000 10.753670 1.000 0.784 0.486
v 8.769984 0.000000 10.649266 1.000 0.784 0.486
v 8.769984 0.000000 14.603589 1.000 0.784 0.486
v 4.789560 0.000000 14.616639 1.000 0.784 0.486
v 4.789560 0.000000 10.649266 1.000 0.784 0.486
v 8.769984 2.500000 10.649266 1.000 0.784 0.486
v 8.769984 2.500000 14.603589 1.000 0.784 0.486
v 4.789560 2.500000 14.616639 1.000 0.784 0.486
v 4.789560 2.500000 10.649266 1.000 0.784 0.486
v 14.694943 0.000000 2.636215 1.000 0.784 0.486
v 14.694943 0.000000 7.360522 1.000 0.784 0.486
v 10.492659 0.000000 7.360522 1.000 0.784 0.486
v 10.492659 0.000000 2.636215 1.000 0.784 0.486
v 14.694943 2.500000 2.636215 1.000 0.784 0.486
v 14.694943 2.500000 7.360522 1.000 0.784 0.486
v 10.492659 2.500000 7.360522 1.000 0.784 0.486
v 10.492659 2.500000 2.636215 1.000 0.784 0.486
v 11.680261 0.000000 15.243067 0.678 0.847 0.902
v 11.680261 0.000000 15.660685 0.678 0.847 0.902
v 4.515498 0.000000 15.660685 0.678 0.847 0.902
v 4.515498 0.000000 15.256117 0.678 0.847 0.902
v 11.680261 2.500000 15.243067 0.678 0.847 0.902
v 11.680261 2.500000 15.660685 0.678 0.847 0.902
v 4.515498 2.500000 15.660685 0.678 0.847 0.902
v 4.515498 2.500000 15.256117 0.678 0.847 0.902
v 9.174551 0.000000 2.662316 0.678 0.847 0.902
v 9.187602 0.000000 7.686786 0.678 0.847 0.902
v 12.528548 0.000000 7.699837 0.678 0.847 0.902
v 12.528548 0.000000 10.127243 0.678 0.847 0.902
v 8.052202 0.000000 10.114192 0.678 0.847 0.902
v 7.895595 0.000000 2.662316 0.678 0.847 0.902
v 9.174551 2.500000 2.662316 0.678 0.847 0.902
v 9.187602 2.500000 7.686786 0.678 0.847 0.902
v 12.528548 2.500000 7.699837 0.678 0.847 0.902
v 12.528548 2.500000 10.127243 0.678 0.847 0.902
v 8.052202 2.500000 10.114192 0.678 0.847 0.902
v 7.895595 2.500000 2.662316 0.678 0.847 0.902
v 3.732463 0.000000 3.132137 0.678 0.847 0.902
v 3.536705 0.000000 4.411093 0.678 0.847 0.902
v 6.185971 0.000000 5.115824 0.678 0.847 0.902
v 2.818923 0.000000 6.159869 0.678 0.847 0.902
v 2.192496 0.000000 4.776509 0.678 0.847 0.902
v 2.336052 0.000000 2.831974 0.678 0.847 0.902
v 4.476346 0.000000 2.544861 0.678 0.847 0.902
v 3.732463 2.500000 3.132137 0.678 0.847 0.902
v 3.536705 2.500000 4.411093 0.678 0.847 0.902
v 6.185971 2.500000 5.115824 0.678 0.847 0.902
v 2.818923 2.500000 6.159869 0.678 0.847 0.902
v 2.192496 2.500000 4.776509 0.678 0.847 0.902
v 2.336052 2.500000 2.831974 0.678 0.847 0.902
v 4.476346 2.500000 2.544861 0.678 0.847 0.902
v 14.799347 0.000000 14.942904 1.000 0.894 0.710
v 14.799347 0.000000 15.882545 1.000 0.894 0.710
v 11.876020 0.000000 15.882545 1.000 0.894 0.710
v 11.876020 0.000000 14.942904 1.000 0.894 0.710
v 14.799347 2.500000 14.942904 1.000 0.894 0.710
v 14.799347 2.500000 15.882545 1.000 0.894 0.710
v 11.876020 2.500000 15.882545 1.000 0.894 0.710
v 11.876020 2.500000 14.942904 1.000 0.894 0.710
v 4.737357 0.000000 10.845024 1.000 0.894 0.710
v 4.737357 0.000000 15.243067 1.000 0.894 0.710
v 3.340946 0.000000 15.243067 1.000 0.894 0.710
v 3.340946 0.000000 10.845024 1.000 0.894 0.710
v 4.737357 2.500000 10.845024 1.000 0.894 0.710
v 4.737357 2.500000 15.243067 1.000 0.894 0.710
v 3.340946 2.500000 15.243067 1.000 0.894 0.710
v 3.340946 2.500000 10.845024 1.000 0.894 0.710
v 10.257749 0.000000 2.662316 1.000 0.894 0.710
v 10.257749 0.000000 4.515498 1.000 0.894 0.710
v 9.187602 0.000000 4.515498 1.000 0.894 0.710
v 9.187602 0.000000 2.662316 1.000 0.894 0.710
v 10.257749 2.500000 2.662316 1.000 0.894 0.710
v 10.257749 2.500000 4.515498 1.000 0.894 0.710
v 9.187602 2.500000 4.515498 1.000 0.894 0.710
v 9.187602 2.500000 2.662316 1.000 0.894 0.710
v 14.890701 0.000000 8.274062 1.000 1.000 0.878
v 14.185971 0.000000 8.287113 1.000 1.000 0.878
v 14.185971 0.000000 8.978793 1.000 1.000 0.878
v 12.867863 0.000000 8.978793 1.000 1.000 0.878
v 12.867863 0.000000 7.660685 1.000 1.000 0.878
v 14.890701 0.000000 7.582382 1.000 1.000 0.878
v 14.890701 2.500000 8.274062 1.000 1.000 0.878
v 14.185971 2.500000 8.287113 1.000 1.000 0.878
v 14.185971 2.500000 8.978793 1.000 1.000 0.878
v 12.867863 2.500000 8.978793 1.000 1.000 0.878
v 12.867863 2.500000 7.660685 1.000 1.000 0.878
v 14.890701 2.500000 7.582382 1.000 1.000 0.878
v 10.323002 0.000000 5.207178 0.565 0.933 0.565
v 10.323002 0.000000 7.060359 0.565 0.933 0.565
v 9.200653 0.000000 7.060359 0.565 0.933 0.565
v 9.200653 0.000000 5.207178 0.565 0.933 0.565
v 10.323002 2.500000 5.207178 0.565 0.933 0.565
v 10.323002 2.500000 7.060359 0.565 0.933 0.565
v 9.200653 2.500000 7.060359 0.565 0.933 0.565
v 9.200653 2.500000 5.207178 0.565 0.933 0.565
v 8.783034 0.000000 14.603589 0.596 0.984 0.596
v 8.783034 0.000000 10.649266 0.596 0.984 0.596
v 7.934747 0.000000 9.748777 0.596 0.984 0.596
v 13.938010 0.000000 10.349103 0.596 0.984 0.596
v 13.768352 0.000000 14.890701 0.596 0.984 0.596
v 13.089723 0.000000 10.375204 0.596 0.984 0.596
v 9.409462 0.000000 10.753670 0.596 0.984 0.596
v 9.409462 0.000000 14.499184 0.596 0.984 0.596
v 12.019576 0.000000 14.851550 0.596 0.984 0.596
v 4.828711 0.000000 14.864600 0.596 0.984 0.596
v 8.783034 2.500000 14.603589 0.596 0.984 0.596
v 8.783034 2.500000 10.649266 0.596 0.984 0.596
v 7.934747 2.500000 9.748777 0.596 0.984 0.596
v 13.938010 2.500000 10.349103 0.596 0.984 0.596
v 13.768352 2.500000 14.890701 0.596 0.984 0.596
v 13.089723 2.500000 10.375204 0.596 0.984 0.596
v 9.409462 2.500000 10.753670 0.596 0.984 0.596
v 9.409462 2.500000 14.499184 0.596 0.984 0.596
v 12.019576 2.500000 14.851550 0.596 0.984 0.596
v 4.828711 2.500000 14.864600 0.596 0.984 0.596
v 11.197390 0.000000 16.221860 0.827 0.827 0.827
v 4.672104 0.000000 16.261011 0.827 0.827 0.827
v 4.672104 0.000000 16.026101 0.827 0.827 0.827
v 11.197390 0.000000 15.960848 0.827 0.827 0.827
v 11.197390 2.500000 16.221860 0.827 0.827 0.827
v 4.672104 2.500000 16.261011 0.827 0.827 0.827
v 4.672104 2.500000 16.026101 0.827 0.827 0.827
v 11.197390 2.500000 15.960848 0.827 0.827 0.827
v 15.099511 0.000000 3.523654 0.827 0.827 0.827
v 15.021207 0.000000 5.938010 0.827 0.827 0.827
v 14.903752 0.000000 5.938010 0.827 0.827 0.827
v 14.864600 0.000000 3.523654 0.827 0.827 0.827
v 15.099511 2.500000 3.523654 0.827 0.827 0.827
v 15.021207 2.500000 5.938010 0.827 0.827 0.827
v 14.903752 2.500000 5.938010 0.827 0.827 0.827
v 14.864600 2.500000 3.523654 0.827 0.827 0.827
v 13.650897 0.000000 2.205546 0.827 0.827 0.827
v 13.650897 0.000000 2.505710 0.827 0.827 0.827
v 11.562806 0.000000 2.505710 0.827 0.827 0.827
v 11.562806 0.000000 2.205546 0.827 0.827 0.827
v 13.650897 2.500000 2.205546 0.827 0.827 0.827
v 13.650897 2.500000 2.505710 0.827 0.827 0.827
v 11.562806 2.500000 2.505710 0.827 0.827 0.827
v 11.562806 2.500000 2.205546 0.827 0.827 0.827

usemtl default
f 4 2 1
f 2 4 3
f 8 5 6
f 6 7 8
f 1 2 6
f 1 6 5
f 2 3 7
f 2 7 6
f 3 4 8
f 3 8 7
f 4 1 5
f 4 5 8
f 12 10 9
f 10 12 11
f 16 13 14
f 14 15 16
f 9 10 14
f 9 14 13
f 10 11 15
f 10 15 14
f 11 12 16
f 11 16 15
f 12 9 13
f 12 13 16
f 20 18 17
f 18 20 19
f 24 21 22
f 22 23 24
f 17 18 22
f 17 22 21
f 18 19 23
f 18 23 22
f 19 20 24
f 19 24 23
f 20 17 21
f 20 21 24
f 28 26 25
f 26 28 27
f 32 29 30
f 30 31 32
f 25 26 30
f 25 30 29
f 26 27 31
f 26 31 30
f 27 28 32
f 27 32 31
f 28 25 29
f 28 29 32
f 36 34 33
f 34 36 35
f 40 37 38
f 38 39 40
f 33 34 38
f 33 38 37
f 34 35 39
f 34 39 38
f 35 36 40
f 35 40 39
f 36 33 37
f 36 37 40
f 46 42 41
f 42 44 43
f 42 45 44
f 42 46 45
f 52 47 48
f 48 49 50
f 48 50 51
f 48 51 52
f 41 42 48
f 41 48 47
f 42 43 49
f 42 49 48
f 43 44 50
f 43 50 49
f 44 45 51
f 44 51 50
f 45 46 52
f 45 52 51
f 46 41 47
f 46 47 52
f 54 56 55
f 53 56 54
f 53 57 56
f 53 58 57
f 53 59 58
f 61 62 63
f 60 61 63
f 60 63 64
f 60 64 65
f 60 65 66
f 53 54 61
f 53 61 60
f 54 55 62
f 54 62 61
f 55 56 63
f 55 63 62
f 56 57 64
f 56 64 63
f 57 58 65
f 57 65 64
f 58 59 66
f 58 66 65
f 59 53 60
f 59 60 66
f 70 68 67
f 68 70 69
f 74 71 72
f 72 73 74
f 67 68 72
f 67 72 71
f 68 69 73
f 68 73 72
f 69 70 74
f 69 74 73
f 70 67 71
f 70 71 74
f 78 76 75
f 76 78 77
f 82 79 80
f 80 81 82
f 75 76 80
f 75 80 79
f 76 77 81
f 76 81 80
f 77 78 82
f 77 82 81
f 78 75 79
f 78 79 82
f 86 84 83
f 84 86 85
f 90 87 88
f 88 89 90
f 83 84 88
f 83 88 87
f 84 85 89
f 84 89 88
f 85 86 90
f 85 90 89
f 86 83 87
f 86 87 90
f 96 92 91
f 92 94 93
f 96 94 92
f 94 96 95
f 102 97 98
f 98 99 100
f 102 98 100
f 100 101 102
f 91 92 98
f 91 98 97
f 92 93 99
f 92 99 98
f 93 94 100
f 93 100 99
f 94 95 101
f 94 101 100
f 95 96 102
f 95 102 101
f 96 91 97
f 96 97 102
f 106 104 103
f 104 106 105
f 110 107 108
f 108 109 110
f 103 104 108
f 103 108 107
f 104 105 109
f 104 109 108
f 105 106 110
f 105 110 109
f 106 103 107
f 106 107 110
f 114 116 115
f 113 116 114
f 112 116 113
f 112 117 116
f 111 117 112
f 111 118 117
f 111 119 118
f 111 120 119
f 124 125 126
f 123 124 126
f 122 123 126
f 122 126 127
f 121 122 127
f 121 127 128
f 121 128 129
f 121 129 130
f 111 112 122
f 111 122 121
f 112 113 123
f 112 123 122
f 113 114 124
f 113 124 123
f 114 115 125
f 114 125 124
f 115 116 126
f 115 126 125
f 116 117 127
f 116 127 126
f 117 118 128
f 117 128 127
f 118 119 129
f 118 129 128
f 119 120 130
f 119 130 129
f 120 111 121
f 120 121 130
f 134 132 131
f 132 134 133
f 138 135 136
f 136 137 138
f 131 132 136
f 131 136 135
f 132 133 137
f 132 137 136
f 133 134 138
f 133 138 137
f 134 131 135
f 134 135 138
f 142 140 139
f 140 142 141
f 146 143 144
f 144 145 146
f 139 140 144
f 139 144 143
f 140 141 145
f 140 145 144
f 141 142 146
f 141 146 145
f 142 139 143
f 142 143 146
f 150 148 147
f 148 150 149
f 154 151 152
f 152 153 154
f 147 148 152
f 147 152 151
f 148 149 153
f 148 153 152
f 149 150 154
f 149 154 153
f 150 147 151
f 150 151 154
