# Wall-Based Floorplan 3D Model
# Vertices: 788
# Faces: 914
mtllib Capture d’écran 2025-06-05 224143.mtl

v 8.549591 0.000000 13.468553 0.900 0.900 0.900
v 8.549591 0.000000 13.348553 0.900 0.900 0.900
v 3.909008 0.000000 13.348553 0.900 0.900 0.900
v 3.909008 0.000000 13.468553 0.900 0.900 0.900
v 8.549591 2.500000 13.468553 0.900 0.900 0.900
v 8.549591 2.500000 13.348553 0.900 0.900 0.900
v 3.909008 2.500000 13.348553 0.900 0.900 0.900
v 3.909008 2.500000 13.468553 0.900 0.900 0.900
v 3.909008 0.000000 13.545096 0.900 0.900 0.900
v 3.909008 0.000000 13.665096 0.900 0.900 0.900
v 8.560510 0.000000 13.665096 0.900 0.900 0.900
v 8.560510 0.000000 13.545096 0.900 0.900 0.900
v 3.909008 2.500000 13.545096 0.900 0.900 0.900
v 3.909008 2.500000 13.665096 0.900 0.900 0.900
v 8.560510 2.500000 13.665096 0.900 0.900 0.900
v 8.560510 2.500000 13.545096 0.900 0.900 0.900
v 8.571429 0.000000 13.512338 0.900 0.900 0.900
v 8.571429 0.000000 13.632338 0.900 0.900 0.900
v 9.368517 0.000000 13.632338 0.900 0.900 0.900
v 9.368517 0.000000 13.512338 0.900 0.900 0.900
v 8.571429 2.500000 13.512338 0.900 0.900 0.900
v 8.571429 2.500000 13.632338 0.900 0.900 0.900
v 9.368517 2.500000 13.632338 0.900 0.900 0.900
v 9.368517 2.500000 13.512338 0.900 0.900 0.900
v 9.368517 0.000000 13.413958 0.900 0.900 0.900
v 9.368517 0.000000 13.293958 0.900 0.900 0.900
v 8.560510 0.000000 13.293958 0.900 0.900 0.900
v 8.560510 0.000000 13.413958 0.900 0.900 0.900
v 9.368517 2.500000 13.413958 0.900 0.900 0.900
v 9.368517 2.500000 13.293958 0.900 0.900 0.900
v 8.560510 2.500000 13.293958 0.900 0.900 0.900
v 8.560510 2.500000 13.413958 0.900 0.900 0.900
v 9.996306 0.000000 12.502275 0.900 0.900 0.900
v 9.876306 0.000000 12.502275 0.900 0.900 0.900
v 9.876306 0.000000 13.288444 0.900 0.900 0.900
v 9.996306 0.000000 13.288444 0.900 0.900 0.900
v 9.996306 2.500000 12.502275 0.900 0.900 0.900
v 9.876306 2.500000 12.502275 0.900 0.900 0.900
v 9.876306 2.500000 13.288444 0.900 0.900 0.900
v 9.996306 2.500000 13.288444 0.900 0.900 0.900
v 9.936306 0.000000 13.228444 0.900 0.900 0.900
v 9.936306 0.000000 13.348444 0.900 0.900 0.900
v 12.382166 0.000000 13.348444 0.900 0.900 0.900
v 12.382166 0.000000 13.228444 0.900 0.900 0.900
v 9.936306 2.500000 13.228444 0.900 0.900 0.900
v 9.936306 2.500000 13.348444 0.900 0.900 0.900
v 12.382166 2.500000 13.348444 0.900 0.900 0.900
v 12.382166 2.500000 13.228444 0.900 0.900 0.900
v 12.322166 0.000000 13.288444 0.900 0.900 0.900
v 12.442166 0.000000 13.288444 0.900 0.900 0.900
v 12.442166 0.000000 12.502275 0.900 0.900 0.900
v 12.322166 0.000000 12.502275 0.900 0.900 0.900
v 12.322166 2.500000 13.288444 0.900 0.900 0.900
v 12.442166 2.500000 13.288444 0.900 0.900 0.900
v 12.442166 2.500000 12.502275 0.900 0.900 0.900
v 12.322166 2.500000 12.502275 0.900 0.900 0.900
v 12.382166 0.000000 12.562275 0.900 0.900 0.900
v 12.382166 0.000000 12.442275 0.900 0.900 0.900
v 9.936306 0.000000 12.442275 0.900 0.900 0.900
v 9.936306 0.000000 12.562275 0.900 0.900 0.900
v 12.382166 2.500000 12.562275 0.900 0.900 0.900
v 12.382166 2.500000 12.442275 0.900 0.900 0.900
v 9.936306 2.500000 12.442275 0.900 0.900 0.900
v 9.936306 2.500000 12.562275 0.900 0.900 0.900
v 2.855268 0.000000 9.073703 0.900 0.900 0.900
v 2.735268 0.000000 9.073703 0.900 0.900 0.900
v 2.735268 0.000000 12.753412 0.900 0.900 0.900
v 2.855268 0.000000 12.753412 0.900 0.900 0.900
v 2.855268 2.500000 9.073703 0.900 0.900 0.900
v 2.735268 2.500000 9.073703 0.900 0.900 0.900
v 2.735268 2.500000 12.753412 0.900 0.900 0.900
v 2.855268 2.500000 12.753412 0.900 0.900 0.900
v 2.795268 0.000000 12.693412 0.900 0.900 0.900
v 2.795268 0.000000 12.813412 0.900 0.900 0.900
v 3.767061 0.000000 12.813412 0.900 0.900 0.900
v 3.767061 0.000000 12.693412 0.900 0.900 0.900
v 2.795268 2.500000 12.693412 0.900 0.900 0.900
v 2.795268 2.500000 12.813412 0.900 0.900 0.900
v 3.767061 2.500000 12.813412 0.900 0.900 0.900
v 3.767061 2.500000 12.693412 0.900 0.900 0.900
v 3.837980 0.000000 12.764331 0.900 0.900 0.900
v 3.717980 0.000000 12.764331 0.900 0.900 0.900
v 3.717980 0.000000 13.102821 0.900 0.900 0.900
v 3.837980 0.000000 13.102821 0.900 0.900 0.900
v 3.837980 2.500000 12.764331 0.900 0.900 0.900
v 3.717980 2.500000 12.764331 0.900 0.900 0.900
v 3.717980 2.500000 13.102821 0.900 0.900 0.900
v 3.837980 2.500000 13.102821 0.900 0.900 0.900
v 3.777980 0.000000 13.042821 0.900 0.900 0.900
v 3.777980 0.000000 13.162821 0.900 0.900 0.900
v 9.772520 0.000000 13.162821 0.900 0.900 0.900
v 9.772520 0.000000 13.042821 0.900 0.900 0.900
v 3.777980 2.500000 13.042821 0.900 0.900 0.900
v 3.777980 2.500000 13.162821 0.900 0.900 0.900
v 9.772520 2.500000 13.162821 0.900 0.900 0.900
v 9.772520 2.500000 13.042821 0.900 0.900 0.900
v 9.712520 0.000000 13.102821 0.900 0.900 0.900
v 9.832520 0.000000 13.102821 0.900 0.900 0.900
v 9.832520 0.000000 12.753412 0.900 0.900 0.900
v 9.712520 0.000000 12.753412 0.900 0.900 0.900
v 9.712520 2.500000 13.102821 0.900 0.900 0.900
v 9.832520 2.500000 13.102821 0.900 0.900 0.900
v 9.832520 2.500000 12.753412 0.900 0.900 0.900
v 9.712520 2.500000 12.753412 0.900 0.900 0.900
v 9.772520 0.000000 12.813412 0.900 0.900 0.900
v 9.772520 0.000000 12.693412 0.900 0.900 0.900
v 3.974522 0.000000 12.693412 0.900 0.900 0.900
v 3.974522 0.000000 12.813412 0.900 0.900 0.900
v 9.772520 2.500000 12.813412 0.900 0.900 0.900
v 9.772520 2.500000 12.693412 0.900 0.900 0.900
v 3.974522 2.500000 12.693412 0.900 0.900 0.900
v 3.974522 2.500000 12.813412 0.900 0.900 0.900
v 3.903603 0.000000 12.742493 0.900 0.900 0.900
v 4.023603 0.000000 12.742493 0.900 0.900 0.900
v 4.023603 0.000000 9.073703 0.900 0.900 0.900
v 3.903603 0.000000 9.073703 0.900 0.900 0.900
v 3.903603 2.500000 12.742493 0.900 0.900 0.900
v 4.023603 2.500000 12.742493 0.900 0.900 0.900
v 4.023603 2.500000 9.073703 0.900 0.900 0.900
v 3.903603 2.500000 9.073703 0.900 0.900 0.900
v 3.963603 0.000000 9.133703 0.900 0.900 0.900
v 3.963603 0.000000 9.013703 0.900 0.900 0.900
v 2.795268 0.000000 9.013703 0.900 0.900 0.900
v 2.795268 0.000000 9.133703 0.900 0.900 0.900
v 3.963603 2.500000 9.133703 0.900 0.900 0.900
v 3.963603 2.500000 9.013703 0.900 0.900 0.900
v 2.795268 2.500000 9.013703 0.900 0.900 0.900
v 2.795268 2.500000 9.133703 0.900 0.900 0.900
v 13.020874 0.000000 8.757052 0.900 0.900 0.900
v 12.900874 0.000000 8.757052 0.900 0.900 0.900
v 12.900874 0.000000 9.248408 0.900 0.900 0.900
v 13.020874 0.000000 9.248408 0.900 0.900 0.900
v 13.020874 2.500000 8.757052 0.900 0.900 0.900
v 12.900874 2.500000 8.757052 0.900 0.900 0.900
v 12.900874 2.500000 9.248408 0.900 0.900 0.900
v 13.020874 2.500000 9.248408 0.900 0.900 0.900
v 12.960874 0.000000 9.188408 0.900 0.900 0.900
v 12.960874 0.000000 9.308408 0.900 0.900 0.900
v 13.277525 0.000000 9.308408 0.900 0.900 0.900
v 13.277525 0.000000 9.188408 0.900 0.900 0.900
v 12.960874 2.500000 9.188408 0.900 0.900 0.900
v 12.960874 2.500000 9.308408 0.900 0.900 0.900
v 13.277525 2.500000 9.308408 0.900 0.900 0.900
v 13.277525 2.500000 9.188408 0.900 0.900 0.900
v 13.217525 0.000000 9.248408 0.900 0.900 0.900
v 13.337525 0.000000 9.248408 0.900 0.900 0.900
v 13.337525 0.000000 8.757052 0.900 0.900 0.900
v 13.217525 0.000000 8.757052 0.900 0.900 0.900
v 13.217525 2.500000 9.248408 0.900 0.900 0.900
v 13.337525 2.500000 9.248408 0.900 0.900 0.900
v 13.337525 2.500000 8.757052 0.900 0.900 0.900
v 13.217525 2.500000 8.757052 0.900 0.900 0.900
v 13.277525 0.000000 8.817052 0.900 0.900 0.900
v 13.277525 0.000000 8.697052 0.900 0.900 0.900
v 12.960874 0.000000 8.697052 0.900 0.900 0.900
v 12.960874 0.000000 8.817052 0.900 0.900 0.900
v 13.277525 2.500000 8.817052 0.900 0.900 0.900
v 13.277525 2.500000 8.697052 0.900 0.900 0.900
v 12.960874 2.500000 8.697052 0.900 0.900 0.900
v 12.960874 2.500000 8.817052 0.900 0.900 0.900
v 11.858053 0.000000 6.469463 0.900 0.900 0.900
v 11.858053 0.000000 6.349463 0.900 0.900 0.900
v 10.766151 0.000000 6.349463 0.900 0.900 0.900
v 10.766151 0.000000 6.469463 0.900 0.900 0.900
v 11.858053 2.500000 6.469463 0.900 0.900 0.900
v 11.858053 2.500000 6.349463 0.900 0.900 0.900
v 10.766151 2.500000 6.349463 0.900 0.900 0.900
v 10.766151 2.500000 6.469463 0.900 0.900 0.900
v 10.826151 0.000000 6.409463 0.900 0.900 0.900
v 10.706151 0.000000 6.409463 0.900 0.900 0.900
v 10.706151 0.000000 7.512284 0.900 0.900 0.900
v 10.826151 0.000000 7.512284 0.900 0.900 0.900
v 10.826151 2.500000 6.409463 0.900 0.900 0.900
v 10.706151 2.500000 6.409463 0.900 0.900 0.900
v 10.706151 2.500000 7.512284 0.900 0.900 0.900
v 10.826151 2.500000 7.512284 0.900 0.900 0.900
v 10.766151 0.000000 7.452284 0.900 0.900 0.900
v 10.766151 0.000000 7.572284 0.900 0.900 0.900
v 11.868972 0.000000 7.572284 0.900 0.900 0.900
v 11.868972 0.000000 7.452284 0.900 0.900 0.900
v 10.766151 2.500000 7.452284 0.900 0.900 0.900
v 10.766151 2.500000 7.572284 0.900 0.900 0.900
v 11.868972 2.500000 7.572284 0.900 0.900 0.900
v 11.868972 2.500000 7.452284 0.900 0.900 0.900
v 11.808972 0.000000 7.512284 0.900 0.900 0.900
v 11.928972 0.000000 7.512284 0.900 0.900 0.900
v 11.928972 0.000000 6.933576 0.900 0.900 0.900
v 11.808972 0.000000 6.933576 0.900 0.900 0.900
v 11.808972 2.500000 7.512284 0.900 0.900 0.900
v 11.928972 2.500000 7.512284 0.900 0.900 0.900
v 11.928972 2.500000 6.933576 0.900 0.900 0.900
v 11.808972 2.500000 6.933576 0.900 0.900 0.900
v 11.879891 0.000000 6.862657 0.900 0.900 0.900
v 11.879891 0.000000 6.982657 0.900 0.900 0.900
v 12.458599 0.000000 6.982657 0.900 0.900 0.900
v 12.458599 0.000000 6.862657 0.900 0.900 0.900
v 11.879891 2.500000 6.862657 0.900 0.900 0.900
v 11.879891 2.500000 6.982657 0.900 0.900 0.900
v 12.458599 2.500000 6.982657 0.900 0.900 0.900
v 12.458599 2.500000 6.862657 0.900 0.900 0.900
v 12.398599 0.000000 6.922657 0.900 0.900 0.900
v 12.518599 0.000000 6.922657 0.900 0.900 0.900
v 12.518599 0.000000 6.343949 0.900 0.900 0.900
v 12.398599 0.000000 6.343949 0.900 0.900 0.900
v 12.398599 2.500000 6.922657 0.900 0.900 0.900
v 12.518599 2.500000 6.922657 0.900 0.900 0.900
v 12.518599 2.500000 6.343949 0.900 0.900 0.900
v 12.398599 2.500000 6.343949 0.900 0.900 0.900
v 12.458599 0.000000 6.403949 0.900 0.900 0.900
v 12.458599 0.000000 6.283949 0.900 0.900 0.900
v 11.868972 0.000000 6.283949 0.900 0.900 0.900
v 11.868972 0.000000 6.403949 0.900 0.900 0.900
v 12.458599 2.500000 6.403949 0.900 0.900 0.900
v 12.458599 2.500000 6.283949 0.900 0.900 0.900
v 11.868972 2.500000 6.283949 0.900 0.900 0.900
v 11.868972 2.500000 6.403949 0.900 0.900 0.900
v 12.758817 0.000000 5.350318 0.900 0.900 0.900
v 12.638817 0.000000 5.350318 0.900 0.900 0.900
v 12.638817 0.000000 5.743403 0.900 0.900 0.900
v 12.758817 0.000000 5.743403 0.900 0.900 0.900
v 12.758817 2.500000 5.350318 0.900 0.900 0.900
v 12.638817 2.500000 5.350318 0.900 0.900 0.900
v 12.638817 2.500000 5.743403 0.900 0.900 0.900
v 12.758817 2.500000 5.743403 0.900 0.900 0.900
v 12.840764 0.000000 5.847188 0.900 0.900 0.900
v 12.840764 0.000000 5.967188 0.900 0.900 0.900
v 13.212011 0.000000 5.967188 0.900 0.900 0.900
v 13.212011 0.000000 5.847188 0.900 0.900 0.900
v 12.840764 2.500000 5.847188 0.900 0.900 0.900
v 12.840764 2.500000 5.967188 0.900 0.900 0.900
v 13.212011 2.500000 5.967188 0.900 0.900 0.900
v 13.212011 2.500000 5.847188 0.900 0.900 0.900
v 13.152011 0.000000 5.907188 0.900 0.900 0.900
v 13.272011 0.000000 5.907188 0.900 0.900 0.900
v 13.272011 0.000000 5.273885 0.900 0.900 0.900
v 13.152011 0.000000 5.273885 0.900 0.900 0.900
v 13.152011 2.500000 5.907188 0.900 0.900 0.900
v 13.272011 2.500000 5.907188 0.900 0.900 0.900
v 13.272011 2.500000 5.273885 0.900 0.900 0.900
v 13.152011 2.500000 5.273885 0.900 0.900 0.900
v 13.212011 0.000000 5.333885 0.900 0.900 0.900
v 13.212011 0.000000 5.213885 0.900 0.900 0.900
v 12.840764 0.000000 5.213885 0.900 0.900 0.900
v 12.840764 0.000000 5.333885 0.900 0.900 0.900
v 13.212011 2.500000 5.333885 0.900 0.900 0.900
v 13.212011 2.500000 5.213885 0.900 0.900 0.900
v 12.840764 2.500000 5.213885 0.900 0.900 0.900
v 12.840764 2.500000 5.333885 0.900 0.900 0.900
v 3.062730 0.000000 5.164695 0.900 0.900 0.900
v 2.942730 0.000000 5.164695 0.900 0.900 0.900
v 2.942730 0.000000 8.778890 0.900 0.900 0.900
v 3.062730 0.000000 8.778890 0.900 0.900 0.900
v 3.062730 2.500000 5.164695 0.900 0.900 0.900
v 2.942730 2.500000 5.164695 0.900 0.900 0.900
v 2.942730 2.500000 8.778890 0.900 0.900 0.900
v 3.062730 2.500000 8.778890 0.900 0.900 0.900
v 3.002730 0.000000 8.718890 0.900 0.900 0.900
v 3.002730 0.000000 8.838890 0.900 0.900 0.900
v 6.365787 0.000000 8.838890 0.900 0.900 0.900
v 6.365787 0.000000 8.718890 0.900 0.900 0.900
v 3.002730 2.500000 8.718890 0.900 0.900 0.900
v 3.002730 2.500000 8.838890 0.900 0.900 0.900
v 6.365787 2.500000 8.838890 0.900 0.900 0.900
v 6.365787 2.500000 8.718890 0.900 0.900 0.900
v 6.305787 0.000000 8.778890 0.900 0.900 0.900
v 6.425787 0.000000 8.778890 0.900 0.900 0.900
v 6.425787 0.000000 5.164695 0.900 0.900 0.900
v 6.305787 0.000000 5.164695 0.900 0.900 0.900
v 6.305787 2.500000 8.778890 0.900 0.900 0.900
v 6.425787 2.500000 8.778890 0.900 0.900 0.900
v 6.425787 2.500000 5.164695 0.900 0.900 0.900
v 6.305787 2.500000 5.164695 0.900 0.900 0.900
v 6.365787 0.000000 5.224695 0.900 0.900 0.900
v 6.365787 0.000000 5.104695 0.900 0.900 0.900
v 3.002730 0.000000 5.104695 0.900 0.900 0.900
v 3.002730 0.000000 5.224695 0.900 0.900 0.900
v 6.365787 2.500000 5.224695 0.900 0.900 0.900
v 6.365787 2.500000 5.104695 0.900 0.900 0.900
v 3.002730 2.500000 5.104695 0.900 0.900 0.900
v 3.002730 2.500000 5.224695 0.900 0.900 0.900
v 12.496761 0.000000 2.948135 0.900 0.900 0.900
v 12.376761 0.000000 2.948135 0.900 0.900 0.900
v 12.376761 0.000000 4.520473 0.900 0.900 0.900
v 12.496761 0.000000 4.520473 0.900 0.900 0.900
v 12.496761 2.500000 2.948135 0.900 0.900 0.900
v 12.376761 2.500000 2.948135 0.900 0.900 0.900
v 12.376761 2.500000 4.520473 0.900 0.900 0.900
v 12.496761 2.500000 4.520473 0.900 0.900 0.900
v 12.529518 0.000000 4.531392 0.900 0.900 0.900
v 12.409518 0.000000 4.531392 0.900 0.900 0.900
v 12.409518 0.000000 4.968153 0.900 0.900 0.900
v 12.529518 0.000000 4.968153 0.900 0.900 0.900
v 12.529518 2.500000 4.531392 0.900 0.900 0.900
v 12.409518 2.500000 4.531392 0.900 0.900 0.900
v 12.409518 2.500000 4.968153 0.900 0.900 0.900
v 12.529518 2.500000 4.968153 0.900 0.900 0.900
v 12.507789 0.000000 4.968153 0.900 0.900 0.900
v 12.627789 0.000000 4.968153 0.900 0.900 0.900
v 12.627789 0.000000 4.531392 0.900 0.900 0.900
v 12.507789 0.000000 4.531392 0.900 0.900 0.900
v 12.507789 2.500000 4.968153 0.900 0.900 0.900
v 12.627789 2.500000 4.968153 0.900 0.900 0.900
v 12.627789 2.500000 4.531392 0.900 0.900 0.900
v 12.507789 2.500000 4.531392 0.900 0.900 0.900
v 12.573303 0.000000 4.520473 0.900 0.900 0.900
v 12.693303 0.000000 4.520473 0.900 0.900 0.900
v 12.693303 0.000000 2.948135 0.900 0.900 0.900
v 12.573303 0.000000 2.948135 0.900 0.900 0.900
v 12.573303 2.500000 4.520473 0.900 0.900 0.900
v 12.693303 2.500000 4.520473 0.900 0.900 0.900
v 12.693303 2.500000 2.948135 0.900 0.900 0.900
v 12.573303 2.500000 2.948135 0.900 0.900 0.900
v 6.666005 0.000000 2.227480 0.900 0.900 0.900
v 6.546005 0.000000 2.227480 0.900 0.900 0.900
v 6.546005 0.000000 6.442220 0.900 0.900 0.900
v 6.666005 0.000000 6.442220 0.900 0.900 0.900
v 6.666005 2.500000 2.227480 0.900 0.900 0.900
v 6.546005 2.500000 2.227480 0.900 0.900 0.900
v 6.546005 2.500000 6.442220 0.900 0.900 0.900
v 6.666005 2.500000 6.442220 0.900 0.900 0.900
v 6.797034 0.000000 6.453139 0.900 0.900 0.900
v 6.677034 0.000000 6.453139 0.900 0.900 0.900
v 6.677034 0.000000 8.374886 0.900 0.900 0.900
v 6.797034 0.000000 8.374886 0.900 0.900 0.900
v 6.797034 2.500000 6.453139 0.900 0.900 0.900
v 6.677034 2.500000 6.453139 0.900 0.900 0.900
v 6.677034 2.500000 8.374886 0.900 0.900 0.900
v 6.797034 2.500000 8.374886 0.900 0.900 0.900
v 6.747953 0.000000 8.969918 0.900 0.900 0.900
v 6.747953 0.000000 8.849918 0.900 0.900 0.900
v 4.007279 0.000000 8.849918 0.900 0.900 0.900
v 4.007279 0.000000 8.969918 0.900 0.900 0.900
v 6.747953 2.500000 8.969918 0.900 0.900 0.900
v 6.747953 2.500000 8.849918 0.900 0.900 0.900
v 4.007279 2.500000 8.849918 0.900 0.900 0.900
v 4.007279 2.500000 8.969918 0.900 0.900 0.900
v 4.067279 0.000000 8.909918 0.900 0.900 0.900
v 3.947279 0.000000 8.909918 0.900 0.900 0.900
v 3.947279 0.000000 12.229299 0.900 0.900 0.900
v 4.067279 0.000000 12.229299 0.900 0.900 0.900
v 4.067279 2.500000 8.909918 0.900 0.900 0.900
v 3.947279 2.500000 8.909918 0.900 0.900 0.900
v 3.947279 2.500000 12.229299 0.900 0.900 0.900
v 4.067279 2.500000 12.229299 0.900 0.900 0.900
v 4.007279 0.000000 12.169299 0.900 0.900 0.900
v 4.007279 0.000000 12.289299 0.900 0.900 0.900
v 6.431301 0.000000 12.289299 0.900 0.900 0.900
v 6.431301 0.000000 12.169299 0.900 0.900 0.900
v 4.007279 2.500000 12.169299 0.900 0.900 0.900
v 4.007279 2.500000 12.289299 0.900 0.900 0.900
v 6.431301 2.500000 12.289299 0.900 0.900 0.900
v 6.431301 2.500000 12.169299 0.900 0.900 0.900
v 4.040036 0.000000 12.376761 0.900 0.900 0.900
v 4.040036 0.000000 12.496761 0.900 0.900 0.900
v 10.034577 0.000000 12.496761 0.900 0.900 0.900
v 10.034577 0.000000 12.376761 0.900 0.900 0.900
v 4.040036 2.500000 12.376761 0.900 0.900 0.900
v 4.040036 2.500000 12.496761 0.900 0.900 0.900
v 10.034577 2.500000 12.496761 0.900 0.900 0.900
v 10.034577 2.500000 12.376761 0.900 0.900 0.900
v 8.112830 0.000000 12.081947 0.900 0.900 0.900
v 8.112830 0.000000 12.201947 0.900 0.900 0.900
v 11.290264 0.000000 12.201947 0.900 0.900 0.900
v 11.290264 0.000000 12.081947 0.900 0.900 0.900
v 8.112830 2.500000 12.081947 0.900 0.900 0.900
v 8.112830 2.500000 12.201947 0.900 0.900 0.900
v 11.290264 2.500000 12.201947 0.900 0.900 0.900
v 11.290264 2.500000 12.081947 0.900 0.900 0.900
v 11.230264 0.000000 12.141947 0.900 0.900 0.900
v 11.350264 0.000000 12.141947 0.900 0.900 0.900
v 11.350264 0.000000 11.039126 0.900 0.900 0.900
v 11.230264 0.000000 11.039126 0.900 0.900 0.900
v 11.230264 2.500000 12.141947 0.900 0.900 0.900
v 11.350264 2.500000 12.141947 0.900 0.900 0.900
v 11.350264 2.500000 11.039126 0.900 0.900 0.900
v 11.230264 2.500000 11.039126 0.900 0.900 0.900
v 7.173794 0.000000 8.413157 0.900 0.900 0.900
v 7.173794 0.000000 8.533157 0.900 0.900 0.900
v 10.482257 0.000000 8.533157 0.900 0.900 0.900
v 10.482257 0.000000 8.413157 0.900 0.900 0.900
v 7.173794 2.500000 8.413157 0.900 0.900 0.900
v 7.173794 2.500000 8.533157 0.900 0.900 0.900
v 10.482257 2.500000 8.533157 0.900 0.900 0.900
v 10.482257 2.500000 8.413157 0.900 0.900 0.900
v 10.422257 0.000000 8.473157 0.900 0.900 0.900
v 10.542257 0.000000 8.473157 0.900 0.900 0.900
v 10.542257 0.000000 6.442220 0.900 0.900 0.900
v 10.422257 0.000000 6.442220 0.900 0.900 0.900
v 10.422257 2.500000 8.473157 0.900 0.900 0.900
v 10.542257 2.500000 8.473157 0.900 0.900 0.900
v 10.542257 2.500000 6.442220 0.900 0.900 0.900
v 10.422257 2.500000 6.442220 0.900 0.900 0.900
v 10.482257 0.000000 6.502220 0.900 0.900 0.900
v 10.482257 0.000000 6.382220 0.900 0.900 0.900
v 7.697907 0.000000 6.382220 0.900 0.900 0.900
v 7.697907 0.000000 6.502220 0.900 0.900 0.900
v 10.482257 2.500000 6.502220 0.900 0.900 0.900
v 10.482257 2.500000 6.382220 0.900 0.900 0.900
v 7.697907 2.500000 6.382220 0.900 0.900 0.900
v 7.697907 2.500000 6.502220 0.900 0.900 0.900
v 7.626988 0.000000 6.431301 0.900 0.900 0.900
v 7.746988 0.000000 6.431301 0.900 0.900 0.900
v 7.746988 0.000000 5.918107 0.900 0.900 0.900
v 7.626988 0.000000 5.918107 0.900 0.900 0.900
v 7.626988 2.500000 6.431301 0.900 0.900 0.900
v 7.746988 2.500000 6.431301 0.900 0.900 0.900
v 7.746988 2.500000 5.918107 0.900 0.900 0.900
v 7.626988 2.500000 5.918107 0.900 0.900 0.900
v 7.697907 0.000000 5.847188 0.900 0.900 0.900
v 7.697907 0.000000 5.967188 0.900 0.900 0.900
v 8.636943 0.000000 5.967188 0.900 0.900 0.900
v 8.636943 0.000000 5.847188 0.900 0.900 0.900
v 7.697907 2.500000 5.847188 0.900 0.900 0.900
v 7.697907 2.500000 5.967188 0.900 0.900 0.900
v 8.636943 2.500000 5.967188 0.900 0.900 0.900
v 8.636943 2.500000 5.847188 0.900 0.900 0.900
v 8.576943 0.000000 5.907188 0.900 0.900 0.900
v 8.696943 0.000000 5.907188 0.900 0.900 0.900
v 8.696943 0.000000 4.356688 0.900 0.900 0.900
v 8.576943 0.000000 4.356688 0.900 0.900 0.900
v 8.576943 2.500000 5.907188 0.900 0.900 0.900
v 8.696943 2.500000 5.907188 0.900 0.900 0.900
v 8.696943 2.500000 4.356688 0.900 0.900 0.900
v 8.576943 2.500000 4.356688 0.900 0.900 0.900
v 8.636943 0.000000 4.416688 0.900 0.900 0.900
v 8.636943 0.000000 4.296688 0.900 0.900 0.900
v 7.697907 0.000000 4.296688 0.900 0.900 0.900
v 7.697907 0.000000 4.416688 0.900 0.900 0.900
v 8.636943 2.500000 4.416688 0.900 0.900 0.900
v 8.636943 2.500000 4.296688 0.900 0.900 0.900
v 7.697907 2.500000 4.296688 0.900 0.900 0.900
v 7.697907 2.500000 4.416688 0.900 0.900 0.900
v 7.626988 0.000000 4.345769 0.900 0.900 0.900
v 7.746988 0.000000 4.345769 0.900 0.900 0.900
v 7.746988 0.000000 3.788899 0.900 0.900 0.900
v 7.626988 0.000000 3.788899 0.900 0.900 0.900
v 7.626988 2.500000 4.345769 0.900 0.900 0.900
v 7.746988 2.500000 4.345769 0.900 0.900 0.900
v 7.746988 2.500000 3.788899 0.900 0.900 0.900
v 7.626988 2.500000 3.788899 0.900 0.900 0.900
v 7.697907 0.000000 3.717980 0.900 0.900 0.900
v 7.697907 0.000000 3.837980 0.900 0.900 0.900
v 8.582348 0.000000 3.837980 0.900 0.900 0.900
v 8.582348 0.000000 3.717980 0.900 0.900 0.900
v 7.697907 2.500000 3.717980 0.900 0.900 0.900
v 7.697907 2.500000 3.837980 0.900 0.900 0.900
v 8.582348 2.500000 3.837980 0.900 0.900 0.900
v 8.582348 2.500000 3.717980 0.900 0.900 0.900
v 8.522348 0.000000 3.777980 0.900 0.900 0.900
v 8.642348 0.000000 3.777980 0.900 0.900 0.900
v 8.642348 0.000000 2.227480 0.900 0.900 0.900
v 8.522348 0.000000 2.227480 0.900 0.900 0.900
v 8.522348 2.500000 3.777980 0.900 0.900 0.900
v 8.642348 2.500000 3.777980 0.900 0.900 0.900
v 8.642348 2.500000 2.227480 0.900 0.900 0.900
v 8.522348 2.500000 2.227480 0.900 0.900 0.900
v 8.582348 0.000000 2.287480 0.900 0.900 0.900
v 8.582348 0.000000 2.167480 0.900 0.900 0.900
v 6.606005 0.000000 2.167480 0.900 0.900 0.900
v 6.606005 0.000000 2.287480 0.900 0.900 0.900
v 8.582348 2.500000 2.287480 0.900 0.900 0.900
v 8.582348 2.500000 2.167480 0.900 0.900 0.900
v 6.606005 2.500000 2.167480 0.900 0.900 0.900
v 6.606005 2.500000 2.287480 0.900 0.900 0.900
v 8.838890 0.000000 2.205641 0.900 0.900 0.900
v 8.718890 0.000000 2.205641 0.900 0.900 0.900
v 8.718890 0.000000 6.158326 0.900 0.900 0.900
v 8.838890 0.000000 6.158326 0.900 0.900 0.900
v 8.838890 2.500000 2.205641 0.900 0.900 0.900
v 8.718890 2.500000 2.205641 0.900 0.900 0.900
v 8.718890 2.500000 6.158326 0.900 0.900 0.900
v 8.838890 2.500000 6.158326 0.900 0.900 0.900
v 8.778890 0.000000 6.098326 0.900 0.900 0.900
v 8.778890 0.000000 6.218326 0.900 0.900 0.900
v 12.294813 0.000000 6.218326 0.900 0.900 0.900
v 12.294813 0.000000 6.098326 0.900 0.900 0.900
v 8.778890 2.500000 6.098326 0.900 0.900 0.900
v 8.778890 2.500000 6.218326 0.900 0.900 0.900
v 12.294813 2.500000 6.218326 0.900 0.900 0.900
v 12.294813 2.500000 6.098326 0.900 0.900 0.900
v 12.234813 0.000000 6.158326 0.900 0.900 0.900
v 12.354813 0.000000 6.158326 0.900 0.900 0.900
v 12.354813 0.000000 2.205641 0.900 0.900 0.900
v 12.234813 0.000000 2.205641 0.900 0.900 0.900
v 12.234813 2.500000 6.158326 0.900 0.900 0.900
v 12.354813 2.500000 6.158326 0.900 0.900 0.900
v 12.354813 2.500000 2.205641 0.900 0.900 0.900
v 12.234813 2.500000 2.205641 0.900 0.900 0.900
v 12.294813 0.000000 2.265641 0.900 0.900 0.900
v 12.294813 0.000000 2.145641 0.900 0.900 0.900
v 8.778890 0.000000 2.145641 0.900 0.900 0.900
v 8.778890 0.000000 2.265641 0.900 0.900 0.900
v 12.294813 2.500000 2.265641 0.900 0.900 0.900
v 12.294813 2.500000 2.145641 0.900 0.900 0.900
v 8.778890 2.500000 2.145641 0.900 0.900 0.900
v 8.778890 2.500000 2.265641 0.900 0.900 0.900
v 1.812557 0.000000 3.979927 0.900 0.900 0.900
v 1.812557 0.000000 3.859927 0.900 0.900 0.900
v 1.277525 0.000000 3.859927 0.900 0.900 0.900
v 1.277525 0.000000 3.979927 0.900 0.900 0.900
v 1.812557 2.500000 3.979927 0.900 0.900 0.900
v 1.812557 2.500000 3.859927 0.900 0.900 0.900
v 1.277525 2.500000 3.859927 0.900 0.900 0.900
v 1.277525 2.500000 3.979927 0.900 0.900 0.900
v 1.337525 0.000000 3.919927 0.900 0.900 0.900
v 1.217525 0.000000 3.919927 0.900 0.900 0.900
v 1.217525 0.000000 4.607825 0.900 0.900 0.900
v 1.337525 0.000000 4.607825 0.900 0.900 0.900
v 1.337525 2.500000 3.919927 0.900 0.900 0.900
v 1.217525 2.500000 3.919927 0.900 0.900 0.900
v 1.217525 2.500000 4.607825 0.900 0.900 0.900
v 1.337525 2.500000 4.607825 0.900 0.900 0.900
v 1.277525 0.000000 4.547825 0.900 0.900 0.900
v 1.277525 0.000000 4.667825 0.900 0.900 0.900
v 1.823476 0.000000 4.667825 0.900 0.900 0.900
v 1.823476 0.000000 4.547825 0.900 0.900 0.900
v 1.277525 2.500000 4.547825 0.900 0.900 0.900
v 1.277525 2.500000 4.667825 0.900 0.900 0.900
v 1.823476 2.500000 4.667825 0.900 0.900 0.900
v 1.823476 2.500000 4.547825 0.900 0.900 0.900
v 1.763476 0.000000 4.607825 0.900 0.900 0.900
v 1.883476 0.000000 4.607825 0.900 0.900 0.900
v 1.883476 0.000000 4.007279 0.900 0.900 0.900
v 1.763476 0.000000 4.007279 0.900 0.900 0.900
v 1.763476 2.500000 4.607825 0.900 0.900 0.900
v 1.883476 2.500000 4.607825 0.900 0.900 0.900
v 1.883476 2.500000 4.007279 0.900 0.900 0.900
v 1.763476 2.500000 4.007279 0.900 0.900 0.900
v 3.477652 0.000000 2.413103 0.900 0.900 0.900
v 3.357652 0.000000 2.413103 0.900 0.900 0.900
v 3.357652 0.000000 3.788899 0.900 0.900 0.900
v 3.477652 0.000000 3.788899 0.900 0.900 0.900
v 3.477652 2.500000 2.413103 0.900 0.900 0.900
v 3.357652 2.500000 2.413103 0.900 0.900 0.900
v 3.357652 2.500000 3.788899 0.900 0.900 0.900
v 3.477652 2.500000 3.788899 0.900 0.900 0.900
v 3.417652 0.000000 3.728899 0.900 0.900 0.900
v 3.417652 0.000000 3.848899 0.900 0.900 0.900
v 6.267516 0.000000 3.848899 0.900 0.900 0.900
v 6.267516 0.000000 3.728899 0.900 0.900 0.900
v 3.417652 2.500000 3.728899 0.900 0.900 0.900
v 3.417652 2.500000 3.848899 0.900 0.900 0.900
v 6.267516 2.500000 3.848899 0.900 0.900 0.900
v 6.267516 2.500000 3.728899 0.900 0.900 0.900
v 6.207516 0.000000 3.788899 0.900 0.900 0.900
v 6.327516 0.000000 3.788899 0.900 0.900 0.900
v 6.327516 0.000000 2.413103 0.900 0.900 0.900
v 6.207516 0.000000 2.413103 0.900 0.900 0.900
v 6.207516 2.500000 3.788899 0.900 0.900 0.900
v 6.327516 2.500000 3.788899 0.900 0.900 0.900
v 6.327516 2.500000 2.413103 0.900 0.900 0.900
v 6.207516 2.500000 2.413103 0.900 0.900 0.900
v 6.267516 0.000000 2.473103 0.900 0.900 0.900
v 6.267516 0.000000 2.353103 0.900 0.900 0.900
v 3.417652 0.000000 2.353103 0.900 0.900 0.900
v 3.417652 0.000000 2.473103 0.900 0.900 0.900
v 6.267516 2.500000 2.473103 0.900 0.900 0.900
v 6.267516 2.500000 2.353103 0.900 0.900 0.900
v 3.417652 2.500000 2.353103 0.900 0.900 0.900
v 3.417652 2.500000 2.473103 0.900 0.900 0.900
v 9.674249 0.000000 2.036451 0.900 0.900 0.900
v 9.674249 0.000000 2.156451 0.900 0.900 0.900
v 11.421292 0.000000 2.156451 0.900 0.900 0.900
v 11.421292 0.000000 2.036451 0.900 0.900 0.900
v 9.674249 2.500000 2.036451 0.900 0.900 0.900
v 9.674249 2.500000 2.156451 0.900 0.900 0.900
v 11.421292 2.500000 2.156451 0.900 0.900 0.900
v 11.421292 2.500000 2.036451 0.900 0.900 0.900
v 11.421292 0.000000 1.905314 0.900 0.900 0.900
v 11.421292 0.000000 1.785314 0.900 0.900 0.900
v 9.674249 0.000000 1.785314 0.900 0.900 0.900
v 9.674249 0.000000 1.905314 0.900 0.900 0.900
v 11.421292 2.500000 1.905314 0.900 0.900 0.900
v 11.421292 2.500000 1.785314 0.900 0.900 0.900
v 9.674249 2.500000 1.785314 0.900 0.900 0.900
v 9.674249 2.500000 1.905314 0.900 0.900 0.900
v 6.429160 0.000000 12.180257 0.900 0.900 0.900
v 6.433443 0.000000 12.300180 0.900 0.900 0.900
v 7.350640 0.000000 12.267423 0.900 0.900 0.900
v 7.346357 0.000000 12.147500 0.900 0.900 0.900
v 6.429160 2.500000 12.180257 0.900 0.900 0.900
v 6.433443 2.500000 12.300180 0.900 0.900 0.900
v 7.350640 2.500000 12.267423 0.900 0.900 0.900
v 7.346357 2.500000 12.147500 0.900 0.900 0.900
v 6.747953 0.000000 8.849918 0.900 0.900 0.900
v 6.747953 0.000000 8.969918 0.900 0.900 0.900
v 7.348499 0.000000 8.969918 0.900 0.900 0.900
v 7.348499 0.000000 8.849918 0.900 0.900 0.900
v 6.747953 2.500000 8.849918 0.900 0.900 0.900
v 6.747953 2.500000 8.969918 0.900 0.900 0.900
v 7.348499 2.500000 8.969918 0.900 0.900 0.900
v 7.348499 2.500000 8.849918 0.900 0.900 0.900
v 6.727578 0.000000 8.413175 0.900 0.900 0.900
v 6.724652 0.000000 8.533140 0.900 0.900 0.900
v 7.172331 0.000000 8.544059 0.900 0.900 0.900
v 7.175257 0.000000 8.424094 0.900 0.900 0.900
v 6.727578 2.500000 8.413175 0.900 0.900 0.900
v 6.724652 2.500000 8.533140 0.900 0.900 0.900
v 7.172331 2.500000 8.544059 0.900 0.900 0.900
v 7.175257 2.500000 8.424094 0.900 0.900 0.900
v 11.328425 0.000000 8.986032 0.900 0.900 0.900
v 11.208427 0.000000 8.986670 0.900 0.900 0.900
v 11.219346 0.000000 11.039446 0.900 0.900 0.900
v 11.339344 0.000000 11.038807 0.900 0.900 0.900
v 11.328425 2.500000 8.986032 0.900 0.900 0.900
v 11.208427 2.500000 8.986670 0.900 0.900 0.900
v 11.219346 2.500000 11.039446 0.900 0.900 0.900
v 11.339344 2.500000 11.038807 0.900 0.900 0.900
v 11.219346 0.000000 11.038807 0.900 0.900 0.900
v 11.339344 0.000000 11.039446 0.900 0.900 0.900
v 11.350263 0.000000 8.986670 0.900 0.900 0.900
v 11.230265 0.000000 8.986032 0.900 0.900 0.900
v 11.219346 2.500000 11.038807 0.900 0.900 0.900
v 11.339344 2.500000 11.039446 0.900 0.900 0.900
v 11.350263 2.500000 8.986670 0.900 0.900 0.900
v 11.230265 2.500000 8.986032 0.900 0.900 0.900
v 7.921692 0.000000 8.986351 0.900 0.900 0.900
v 7.801692 0.000000 8.986351 0.900 0.900 0.900
v 7.801692 0.000000 12.141947 0.900 0.900 0.900
v 7.921692 0.000000 12.141947 0.900 0.900 0.900
v 7.921692 2.500000 8.986351 0.900 0.900 0.900
v 7.801692 2.500000 8.986351 0.900 0.900 0.900
v 7.801692 2.500000 12.141947 0.900 0.900 0.900
v 7.921692 2.500000 12.141947 0.900 0.900 0.900
v 7.801694 0.000000 12.141532 0.900 0.900 0.900
v 7.921691 0.000000 12.142362 0.900 0.900 0.900
v 7.943529 0.000000 8.986766 0.900 0.900 0.900
v 7.823532 0.000000 8.985936 0.900 0.900 0.900
v 7.801694 2.500000 12.141532 0.900 0.900 0.900
v 7.921691 2.500000 12.142362 0.900 0.900 0.900
v 7.943529 2.500000 8.986766 0.900 0.900 0.900
v 7.823532 2.500000 8.985936 0.900 0.900 0.900
v 7.386661 0.000000 8.898999 0.900 0.900 0.900
v 7.266661 0.000000 8.898999 0.900 0.900 0.900
v 7.266661 0.000000 12.229299 0.900 0.900 0.900
v 7.386661 0.000000 12.229299 0.900 0.900 0.900
v 7.386661 2.500000 8.898999 0.900 0.900 0.900
v 7.266661 2.500000 8.898999 0.900 0.900 0.900
v 7.266661 2.500000 12.229299 0.900 0.900 0.900
v 7.386661 2.500000 12.229299 0.900 0.900 0.900
v 7.266662 0.000000 12.228906 0.900 0.900 0.900
v 7.386659 0.000000 12.229693 0.900 0.900 0.900
v 7.408497 0.000000 8.899393 0.900 0.900 0.900
v 7.288500 0.000000 8.898606 0.900 0.900 0.900
v 7.266662 2.500000 12.228906 0.900 0.900 0.900
v 7.386659 2.500000 12.229693 0.900 0.900 0.900
v 7.408497 2.500000 8.899393 0.900 0.900 0.900
v 7.288500 2.500000 8.898606 0.900 0.900 0.900
v 7.736069 0.000000 4.345769 0.900 0.900 0.900
v 7.616069 0.000000 4.345769 0.900 0.900 0.900
v 7.616069 0.000000 5.918107 0.900 0.900 0.900
v 7.736069 0.000000 5.918107 0.900 0.900 0.900
v 7.736069 2.500000 4.345769 0.900 0.900 0.900
v 7.616069 2.500000 4.345769 0.900 0.900 0.900
v 7.616069 2.500000 5.918107 0.900 0.900 0.900
v 7.736069 2.500000 5.918107 0.900 0.900 0.900
v 7.616075 0.000000 5.917274 0.900 0.900 0.900
v 7.736063 0.000000 5.918941 0.900 0.900 0.900
v 7.757901 0.000000 4.346602 0.900 0.900 0.900
v 7.637913 0.000000 4.344936 0.900 0.900 0.900
v 7.616075 2.500000 5.917274 0.900 0.900 0.900
v 7.736063 2.500000 5.918941 0.900 0.900 0.900
v 7.757901 2.500000 4.346602 0.900 0.900 0.900
v 7.637913 2.500000 4.344936 0.900 0.900 0.900
v 7.725150 0.000000 2.216561 0.900 0.900 0.900
v 7.605150 0.000000 2.216561 0.900 0.900 0.900
v 7.605150 0.000000 3.788899 0.900 0.900 0.900
v 7.725150 0.000000 3.788899 0.900 0.900 0.900
v 7.725150 2.500000 2.216561 0.900 0.900 0.900
v 7.605150 2.500000 2.216561 0.900 0.900 0.900
v 7.605150 2.500000 3.788899 0.900 0.900 0.900
v 7.725150 2.500000 3.788899 0.900 0.900 0.900
v 7.605156 0.000000 3.788066 0.900 0.900 0.900
v 7.725144 0.000000 3.789732 0.900 0.900 0.900
v 7.746982 0.000000 2.217394 0.900 0.900 0.900
v 7.626994 0.000000 2.215727 0.900 0.900 0.900
v 7.605156 2.500000 3.788066 0.900 0.900 0.900
v 7.725144 2.500000 3.789732 0.900 0.900 0.900
v 7.746982 2.500000 2.217394 0.900 0.900 0.900
v 7.626994 2.500000 2.215727 0.900 0.900 0.900
v 3.417652 0.000000 2.413103 0.950 0.750 0.800
v 3.417652 0.000000 3.788899 0.950 0.750 0.800
v 6.267516 0.000000 3.788899 0.950 0.750 0.800
v 6.267516 0.000000 2.413103 0.950 0.750 0.800
v 7.883530 0.000000 8.997270 0.700 0.850 0.950
v 7.883530 0.000000 12.131028 0.700 0.850 0.950
v 11.290264 0.000000 12.141947 0.700 0.850 0.950
v 11.279345 0.000000 8.997270 0.700 0.850 0.950
v 4.007279 0.000000 8.909918 0.700 0.850 0.950
v 4.007279 0.000000 12.229299 0.700 0.850 0.950
v 7.337580 0.000000 12.218380 0.700 0.850 0.950
v 7.337580 0.000000 8.909918 0.700 0.850 0.950
v 8.778890 0.000000 2.205641 0.700 0.850 0.950
v 8.778890 0.000000 6.158326 0.700 0.850 0.950
v 12.294813 0.000000 6.158326 0.700 0.850 0.950
v 12.294813 0.000000 2.205641 0.700 0.850 0.950
v 3.777980 0.000000 12.764331 0.800 0.900 0.950
v 3.777980 0.000000 13.102821 0.800 0.900 0.950
v 9.772520 0.000000 13.102821 0.800 0.900 0.950
v 9.772520 0.000000 12.753412 0.800 0.900 0.950
v 6.606005 0.000000 2.227480 0.800 0.900 0.950
v 6.737034 0.000000 8.462238 0.800 0.900 0.950
v 10.482257 0.000000 8.473157 0.800 0.900 0.950
v 10.482257 0.000000 6.442220 0.800 0.900 0.950
v 7.686988 0.000000 6.431301 0.800 0.900 0.950
v 7.676069 0.000000 2.227480 0.800 0.900 0.950
v 3.745223 0.000000 2.129208 0.800 0.900 0.950
v 1.954504 0.000000 2.369427 0.800 0.900 0.950
v 1.834395 0.000000 3.996360 0.800 0.900 0.950
v 2.358508 0.000000 5.153776 0.800 0.900 0.950
v 5.175614 0.000000 4.280255 0.800 0.900 0.950
v 2.959054 0.000000 3.690628 0.800 0.900 0.950
v 3.122839 0.000000 2.620564 0.800 0.900 0.950
v 9.936306 0.000000 12.502275 0.950 0.900 0.750
v 9.936306 0.000000 13.288444 0.950 0.900 0.750
v 12.382166 0.000000 13.288444 0.950 0.900 0.750
v 12.382166 0.000000 12.502275 0.950 0.900 0.750
v 2.795268 0.000000 9.073703 0.950 0.900 0.750
v 2.795268 0.000000 12.753412 0.950 0.900 0.750
v 3.963603 0.000000 12.753412 0.950 0.900 0.750
v 3.963603 0.000000 9.073703 0.950 0.900 0.750
v 7.686988 0.000000 2.227480 0.950 0.900 0.750
v 7.686988 0.000000 3.777980 0.950 0.900 0.750
v 8.582348 0.000000 3.777980 0.950 0.900 0.750
v 8.582348 0.000000 2.227480 0.950 0.900 0.750
v 12.458599 0.000000 6.343949 0.950 0.950 0.800
v 10.766151 0.000000 6.409463 0.950 0.950 0.800
v 10.766151 0.000000 7.512284 0.950 0.950 0.800
v 11.868972 0.000000 7.512284 0.950 0.950 0.800
v 11.868972 0.000000 6.933576 0.950 0.950 0.800
v 12.458599 0.000000 6.922657 0.950 0.950 0.800
v 3.002730 0.000000 5.164695 0.550 0.350 0.200
v 3.002730 0.000000 8.778890 0.550 0.350 0.200
v 6.365787 0.000000 8.778890 0.550 0.350 0.200
v 6.365787 0.000000 5.164695 0.550 0.350 0.200
v 7.697907 0.000000 4.356688 0.600 0.900 0.600
v 7.697907 0.000000 5.907188 0.600 0.900 0.600
v 8.636943 0.000000 5.907188 0.600 0.900 0.600
v 8.636943 0.000000 4.356688 0.600 0.900 0.600
v 4.040036 0.000000 12.436761 0.650 0.950 0.650
v 10.056415 0.000000 12.425842 0.650 0.950 0.650
v 7.872611 0.000000 12.131028 0.650 0.950 0.650
v 7.872611 0.000000 8.997270 0.650 0.950 0.650
v 10.951774 0.000000 8.680619 0.650 0.950 0.650
v 11.519563 0.000000 12.458599 0.650 0.950 0.650
v 11.661510 0.000000 8.658781 0.650 0.950 0.650
v 6.638763 0.000000 8.156506 0.650 0.950 0.650
v 6.758872 0.000000 8.898999 0.650 0.950 0.650
v 7.348499 0.000000 8.909918 0.650 0.950 0.650
v 7.348499 0.000000 12.218380 0.650 0.950 0.650
v 12.960874 0.000000 8.757052 0.600 0.600 0.600
v 12.960874 0.000000 9.248408 0.600 0.600 0.600
v 13.277525 0.000000 9.248408 0.600 0.600 0.600
v 13.277525 0.000000 8.757052 0.600 0.600 0.600
v 12.698817 0.000000 5.350318 0.600 0.600 0.600
v 12.698817 0.000000 5.743403 0.600 0.600 0.600
v 12.840764 0.000000 5.754322 0.600 0.600 0.600
v 12.840764 0.000000 5.907188 0.600 0.600 0.600
v 13.212011 0.000000 5.907188 0.600 0.600 0.600
v 13.212011 0.000000 5.273885 0.600 0.600 0.600
v 12.840764 0.000000 5.273885 0.600 0.600 0.600
v 12.829845 0.000000 5.350318 0.600 0.600 0.600
v 1.277525 0.000000 3.919927 0.600 0.600 0.600
v 1.277525 0.000000 4.607825 0.600 0.600 0.600
v 1.823476 0.000000 4.607825 0.600 0.600 0.600
v 1.823476 0.000000 3.919927 0.600 0.600 0.600
v 9.368517 0.000000 13.353958 0.750 0.750 0.750
v 3.909008 0.000000 13.408553 0.750 0.750 0.750
v 3.909008 0.000000 13.605096 0.750 0.750 0.750
v 9.368517 0.000000 13.572338 0.750 0.750 0.750
v 2.489536 0.000000 7.010009 0.750 0.750 0.750
v 2.489536 0.000000 7.534122 0.750 0.750 0.750
v 2.664240 0.000000 7.534122 0.750 0.750 0.750
v 2.664240 0.000000 7.010009 0.750 0.750 0.750
v 12.436761 0.000000 2.948135 0.750 0.750 0.750
v 12.469518 0.000000 4.968153 0.750 0.750 0.750
v 12.567789 0.000000 4.968153 0.750 0.750 0.750
v 12.567789 0.000000 4.531392 0.750 0.750 0.750
v 12.633303 0.000000 4.520473 0.750 0.750 0.750
v 12.633303 0.000000 2.948135 0.750 0.750 0.750
v 6.944495 0.000000 1.954504 0.750 0.750 0.750
v 6.944495 0.000000 2.129208 0.750 0.750 0.750
v 7.610555 0.000000 2.129208 0.750 0.750 0.750
v 7.610555 0.000000 1.954504 0.750 0.750 0.750
v 9.674249 0.000000 1.845314 0.750 0.750 0.750
v 9.674249 0.000000 2.096451 0.750 0.750 0.750
v 11.421292 0.000000 2.096451 0.750 0.750 0.750
v 11.421292 0.000000 1.845314 0.750 0.750 0.750

usemtl walls
f 5 6 7
f 5 7 8
f 1 2 6
f 1 6 5
f 3 4 8
f 3 8 7
f 1 5 8
f 1 8 4
f 2 3 7
f 2 7 6
f 13 14 15
f 13 15 16
f 9 10 14
f 9 14 13
f 11 12 16
f 11 16 15
f 9 13 16
f 9 16 12
f 10 11 15
f 10 15 14
f 21 22 23
f 21 23 24
f 17 18 22
f 17 22 21
f 19 20 24
f 19 24 23
f 17 21 24
f 17 24 20
f 18 19 23
f 18 23 22
f 29 30 31
f 29 31 32
f 25 26 30
f 25 30 29
f 27 28 32
f 27 32 31
f 25 29 32
f 25 32 28
f 26 27 31
f 26 31 30
f 37 38 39
f 37 39 40
f 33 34 38
f 33 38 37
f 35 36 40
f 35 40 39
f 33 37 40
f 33 40 36
f 34 35 39
f 34 39 38
f 45 46 47
f 45 47 48
f 41 42 46
f 41 46 45
f 43 44 48
f 43 48 47
f 41 45 48
f 41 48 44
f 42 43 47
f 42 47 46
f 53 54 55
f 53 55 56
f 49 50 54
f 49 54 53
f 51 52 56
f 51 56 55
f 49 53 56
f 49 56 52
f 50 51 55
f 50 55 54
f 61 62 63
f 61 63 64
f 57 58 62
f 57 62 61
f 59 60 64
f 59 64 63
f 57 61 64
f 57 64 60
f 58 59 63
f 58 63 62
f 69 70 71
f 69 71 72
f 65 66 70
f 65 70 69
f 67 68 72
f 67 72 71
f 65 69 72
f 65 72 68
f 66 67 71
f 66 71 70
f 77 78 79
f 77 79 80
f 73 74 78
f 73 78 77
f 75 76 80
f 75 80 79
f 73 77 80
f 73 80 76
f 74 75 79
f 74 79 78
f 85 86 87
f 85 87 88
f 81 82 86
f 81 86 85
f 83 84 88
f 83 88 87
f 81 85 88
f 81 88 84
f 82 83 87
f 82 87 86
f 93 94 95
f 93 95 96
f 89 90 94
f 89 94 93
f 91 92 96
f 91 96 95
f 89 93 96
f 89 96 92
f 90 91 95
f 90 95 94
f 101 102 103
f 101 103 104
f 97 98 102
f 97 102 101
f 99 100 104
f 99 104 103
f 97 101 104
f 97 104 100
f 98 99 103
f 98 103 102
f 109 110 111
f 109 111 112
f 105 106 110
f 105 110 109
f 107 108 112
f 107 112 111
f 105 109 112
f 105 112 108
f 106 107 111
f 106 111 110
f 117 118 119
f 117 119 120
f 113 114 118
f 113 118 117
f 115 116 120
f 115 120 119
f 113 117 120
f 113 120 116
f 114 115 119
f 114 119 118
f 125 126 127
f 125 127 128
f 121 122 126
f 121 126 125
f 123 124 128
f 123 128 127
f 121 125 128
f 121 128 124
f 122 123 127
f 122 127 126
f 133 134 135
f 133 135 136
f 129 130 134
f 129 134 133
f 131 132 136
f 131 136 135
f 129 133 136
f 129 136 132
f 130 131 135
f 130 135 134
f 141 142 143
f 141 143 144
f 137 138 142
f 137 142 141
f 139 140 144
f 139 144 143
f 137 141 144
f 137 144 140
f 138 139 143
f 138 143 142
f 149 150 151
f 149 151 152
f 145 146 150
f 145 150 149
f 147 148 152
f 147 152 151
f 145 149 152
f 145 152 148
f 146 147 151
f 146 151 150
f 157 158 159
f 157 159 160
f 153 154 158
f 153 158 157
f 155 156 160
f 155 160 159
f 153 157 160
f 153 160 156
f 154 155 159
f 154 159 158
f 165 166 167
f 165 167 168
f 161 162 166
f 161 166 165
f 163 164 168
f 163 168 167
f 161 165 168
f 161 168 164
f 162 163 167
f 162 167 166
f 173 174 175
f 173 175 176
f 169 170 174
f 169 174 173
f 171 172 176
f 171 176 175
f 169 173 176
f 169 176 172
f 170 171 175
f 170 175 174
f 181 182 183
f 181 183 184
f 177 178 182
f 177 182 181
f 179 180 184
f 179 184 183
f 177 181 184
f 177 184 180
f 178 179 183
f 178 183 182
f 189 190 191
f 189 191 192
f 185 186 190
f 185 190 189
f 187 188 192
f 187 192 191
f 185 189 192
f 185 192 188
f 186 187 191
f 186 191 190
f 197 198 199
f 197 199 200
f 193 194 198
f 193 198 197
f 195 196 200
f 195 200 199
f 193 197 200
f 193 200 196
f 194 195 199
f 194 199 198
f 205 206 207
f 205 207 208
f 201 202 206
f 201 206 205
f 203 204 208
f 203 208 207
f 201 205 208
f 201 208 204
f 202 203 207
f 202 207 206
f 213 214 215
f 213 215 216
f 209 210 214
f 209 214 213
f 211 212 216
f 211 216 215
f 209 213 216
f 209 216 212
f 210 211 215
f 210 215 214
f 221 222 223
f 221 223 224
f 217 218 222
f 217 222 221
f 219 220 224
f 219 224 223
f 217 221 224
f 217 224 220
f 218 219 223
f 218 223 222
f 229 230 231
f 229 231 232
f 225 226 230
f 225 230 229
f 227 228 232
f 227 232 231
f 225 229 232
f 225 232 228
f 226 227 231
f 226 231 230
f 237 238 239
f 237 239 240
f 233 234 238
f 233 238 237
f 235 236 240
f 235 240 239
f 233 237 240
f 233 240 236
f 234 235 239
f 234 239 238
f 245 246 247
f 245 247 248
f 241 242 246
f 241 246 245
f 243 244 248
f 243 248 247
f 241 245 248
f 241 248 244
f 242 243 247
f 242 247 246
f 253 254 255
f 253 255 256
f 249 250 254
f 249 254 253
f 251 252 256
f 251 256 255
f 249 253 256
f 249 256 252
f 250 251 255
f 250 255 254
f 261 262 263
f 261 263 264
f 257 258 262
f 257 262 261
f 259 260 264
f 259 264 263
f 257 261 264
f 257 264 260
f 258 259 263
f 258 263 262
f 269 270 271
f 269 271 272
f 265 266 270
f 265 270 269
f 267 268 272
f 267 272 271
f 265 269 272
f 265 272 268
f 266 267 271
f 266 271 270
f 277 278 279
f 277 279 280
f 273 274 278
f 273 278 277
f 275 276 280
f 275 280 279
f 273 277 280
f 273 280 276
f 274 275 279
f 274 279 278
f 285 286 287
f 285 287 288
f 281 282 286
f 281 286 285
f 283 284 288
f 283 288 287
f 281 285 288
f 281 288 284
f 282 283 287
f 282 287 286
f 293 294 295
f 293 295 296
f 289 290 294
f 289 294 293
f 291 292 296
f 291 296 295
f 289 293 296
f 289 296 292
f 290 291 295
f 290 295 294
f 301 302 303
f 301 303 304
f 297 298 302
f 297 302 301
f 299 300 304
f 299 304 303
f 297 301 304
f 297 304 300
f 298 299 303
f 298 303 302
f 309 310 311
f 309 311 312
f 305 306 310
f 305 310 309
f 307 308 312
f 307 312 311
f 305 309 312
f 305 312 308
f 306 307 311
f 306 311 310
f 317 318 319
f 317 319 320
f 313 314 318
f 313 318 317
f 315 316 320
f 315 320 319
f 313 317 320
f 313 320 316
f 314 315 319
f 314 319 318
f 325 326 327
f 325 327 328
f 321 322 326
f 321 326 325
f 323 324 328
f 323 328 327
f 321 325 328
f 321 328 324
f 322 323 327
f 322 327 326
f 333 334 335
f 333 335 336
f 329 330 334
f 329 334 333
f 331 332 336
f 331 336 335
f 329 333 336
f 329 336 332
f 330 331 335
f 330 335 334
f 341 342 343
f 341 343 344
f 337 338 342
f 337 342 341
f 339 340 344
f 339 344 343
f 337 341 344
f 337 344 340
f 338 339 343
f 338 343 342
f 349 350 351
f 349 351 352
f 345 346 350
f 345 350 349
f 347 348 352
f 347 352 351
f 345 349 352
f 345 352 348
f 346 347 351
f 346 351 350
f 357 358 359
f 357 359 360
f 353 354 358
f 353 358 357
f 355 356 360
f 355 360 359
f 353 357 360
f 353 360 356
f 354 355 359
f 354 359 358
f 365 366 367
f 365 367 368
f 361 362 366
f 361 366 365
f 363 364 368
f 363 368 367
f 361 365 368
f 361 368 364
f 362 363 367
f 362 367 366
f 373 374 375
f 373 375 376
f 369 370 374
f 369 374 373
f 371 372 376
f 371 376 375
f 369 373 376
f 369 376 372
f 370 371 375
f 370 375 374
f 381 382 383
f 381 383 384
f 377 378 382
f 377 382 381
f 379 380 384
f 379 384 383
f 377 381 384
f 377 384 380
f 378 379 383
f 378 383 382
f 389 390 391
f 389 391 392
f 385 386 390
f 385 390 389
f 387 388 392
f 387 392 391
f 385 389 392
f 385 392 388
f 386 387 391
f 386 391 390
f 397 398 399
f 397 399 400
f 393 394 398
f 393 398 397
f 395 396 400
f 395 400 399
f 393 397 400
f 393 400 396
f 394 395 399
f 394 399 398
f 405 406 407
f 405 407 408
f 401 402 406
f 401 406 405
f 403 404 408
f 403 408 407
f 401 405 408
f 401 408 404
f 402 403 407
f 402 407 406
f 413 414 415
f 413 415 416
f 409 410 414
f 409 414 413
f 411 412 416
f 411 416 415
f 409 413 416
f 409 416 412
f 410 411 415
f 410 415 414
f 421 422 423
f 421 423 424
f 417 418 422
f 417 422 421
f 419 420 424
f 419 424 423
f 417 421 424
f 417 424 420
f 418 419 423
f 418 423 422
f 429 430 431
f 429 431 432
f 425 426 430
f 425 430 429
f 427 428 432
f 427 432 431
f 425 429 432
f 425 432 428
f 426 427 431
f 426 431 430
f 437 438 439
f 437 439 440
f 433 434 438
f 433 438 437
f 435 436 440
f 435 440 439
f 433 437 440
f 433 440 436
f 434 435 439
f 434 439 438
f 445 446 447
f 445 447 448
f 441 442 446
f 441 446 445
f 443 444 448
f 443 448 447
f 441 445 448
f 441 448 444
f 442 443 447
f 442 447 446
f 453 454 455
f 453 455 456
f 449 450 454
f 449 454 453
f 451 452 456
f 451 456 455
f 449 453 456
f 449 456 452
f 450 451 455
f 450 455 454
f 461 462 463
f 461 463 464
f 457 458 462
f 457 462 461
f 459 460 464
f 459 464 463
f 457 461 464
f 457 464 460
f 458 459 463
f 458 463 462
f 469 470 471
f 469 471 472
f 465 466 470
f 465 470 469
f 467 468 472
f 467 472 471
f 465 469 472
f 465 472 468
f 466 467 471
f 466 471 470
f 477 478 479
f 477 479 480
f 473 474 478
f 473 478 477
f 475 476 480
f 475 480 479
f 473 477 480
f 473 480 476
f 474 475 479
f 474 479 478
f 485 486 487
f 485 487 488
f 481 482 486
f 481 486 485
f 483 484 488
f 483 488 487
f 481 485 488
f 481 488 484
f 482 483 487
f 482 487 486
f 493 494 495
f 493 495 496
f 489 490 494
f 489 494 493
f 491 492 496
f 491 496 495
f 489 493 496
f 489 496 492
f 490 491 495
f 490 495 494
f 501 502 503
f 501 503 504
f 497 498 502
f 497 502 501
f 499 500 504
f 499 504 503
f 497 501 504
f 497 504 500
f 498 499 503
f 498 503 502
f 509 510 511
f 509 511 512
f 505 506 510
f 505 510 509
f 507 508 512
f 507 512 511
f 505 509 512
f 505 512 508
f 506 507 511
f 506 511 510
f 517 518 519
f 517 519 520
f 513 514 518
f 513 518 517
f 515 516 520
f 515 520 519
f 513 517 520
f 513 520 516
f 514 515 519
f 514 519 518
f 525 526 527
f 525 527 528
f 521 522 526
f 521 526 525
f 523 524 528
f 523 528 527
f 521 525 528
f 521 528 524
f 522 523 527
f 522 527 526
f 533 534 535
f 533 535 536
f 529 530 534
f 529 534 533
f 531 532 536
f 531 536 535
f 529 533 536
f 529 536 532
f 530 531 535
f 530 535 534
f 541 542 543
f 541 543 544
f 537 538 542
f 537 542 541
f 539 540 544
f 539 544 543
f 537 541 544
f 537 544 540
f 538 539 543
f 538 543 542
f 549 550 551
f 549 551 552
f 545 546 550
f 545 550 549
f 547 548 552
f 547 552 551
f 545 549 552
f 545 552 548
f 546 547 551
f 546 551 550
f 557 558 559
f 557 559 560
f 553 554 558
f 553 558 557
f 555 556 560
f 555 560 559
f 553 557 560
f 553 560 556
f 554 555 559
f 554 559 558
f 565 566 567
f 565 567 568
f 561 562 566
f 561 566 565
f 563 564 568
f 563 568 567
f 561 565 568
f 561 568 564
f 562 563 567
f 562 567 566
f 573 574 575
f 573 575 576
f 569 570 574
f 569 574 573
f 571 572 576
f 571 576 575
f 569 573 576
f 569 576 572
f 570 571 575
f 570 575 574
f 581 582 583
f 581 583 584
f 577 578 582
f 577 582 581
f 579 580 584
f 579 584 583
f 577 581 584
f 577 584 580
f 578 579 583
f 578 583 582
f 589 590 591
f 589 591 592
f 585 586 590
f 585 590 589
f 587 588 592
f 587 592 591
f 585 589 592
f 585 592 588
f 586 587 591
f 586 591 590
f 597 598 599
f 597 599 600
f 593 594 598
f 593 598 597
f 595 596 600
f 595 600 599
f 593 597 600
f 593 600 596
f 594 595 599
f 594 599 598
f 605 606 607
f 605 607 608
f 601 602 606
f 601 606 605
f 603 604 608
f 603 608 607
f 601 605 608
f 601 608 604
f 602 603 607
f 602 607 606
f 613 614 615
f 613 615 616
f 609 610 614
f 609 614 613
f 611 612 616
f 611 616 615
f 609 613 616
f 609 616 612
f 610 611 615
f 610 615 614
f 621 622 623
f 621 623 624
f 617 618 622
f 617 622 621
f 619 620 624
f 619 624 623
f 617 621 624
f 617 624 620
f 618 619 623
f 618 623 622
f 629 630 631
f 629 631 632
f 625 626 630
f 625 630 629
f 627 628 632
f 627 632 631
f 625 629 632
f 625 632 628
f 626 627 631
f 626 631 630
f 637 638 639
f 637 639 640
f 633 634 638
f 633 638 637
f 635 636 640
f 635 640 639
f 633 637 640
f 633 640 636
f 634 635 639
f 634 639 638
f 645 646 647
f 645 647 648
f 641 642 646
f 641 646 645
f 643 644 648
f 643 648 647
f 641 645 648
f 641 648 644
f 642 643 647
f 642 647 646
f 653 654 655
f 653 655 656
f 649 650 654
f 649 654 653
f 651 652 656
f 651 656 655
f 649 653 656
f 649 656 652
f 650 651 655
f 650 655 654
f 661 662 663
f 661 663 664
f 657 658 662
f 657 662 661
f 659 660 664
f 659 664 663
f 657 661 664
f 657 664 660
f 658 659 663
f 658 663 662
f 669 670 671
f 669 671 672
f 665 666 670
f 665 670 669
f 667 668 672
f 667 672 671
f 665 669 672
f 665 672 668
f 666 667 671
f 666 671 670
f 677 678 679
f 677 679 680
f 673 674 678
f 673 678 677
f 675 676 680
f 675 680 679
f 673 677 680
f 673 680 676
f 674 675 679
f 674 679 678
f 681 682 683
f 681 683 684
f 685 686 687
f 685 687 688
f 689 690 691
f 689 691 692
f 693 694 695
f 693 695 696
f 697 698 699
f 697 699 700
f 701 702 703
f 701 703 704
f 701 704 705
f 701 705 706
f 707 708 709
f 707 709 710
f 707 710 711
f 707 711 712
f 707 712 713
f 714 715 716
f 714 716 717
f 718 719 720
f 718 720 721
f 722 723 724
f 722 724 725
f 726 727 728
f 726 728 729
f 726 729 730
f 726 730 731
f 732 733 734
f 732 734 735
f 736 737 738
f 736 738 739
f 740 741 742
f 740 742 743
f 740 743 744
f 740 744 745
f 740 745 746
f 740 746 747
f 740 747 748
f 740 748 749
f 740 749 750
f 751 752 753
f 751 753 754
f 755 756 757
f 755 757 758
f 755 758 759
f 755 759 760
f 755 760 761
f 755 761 762
f 763 764 765
f 763 765 766
f 767 768 769
f 767 769 770
f 771 772 773
f 771 773 774
f 775 776 777
f 775 777 778
f 775 778 779
f 775 779 780
f 781 782 783
f 781 783 784
f 785 786 787
f 785 787 788
